<svg xmlns="http://www.w3.org/2000/svg" xmlns:xlink="http://www.w3.org/1999/xlink" viewBox="0 0 48 48"><defs><linearGradient id="b"><stop offset="0" style="stop-color:#fff"/><stop offset=".5" style="stop-color:#311a14"/><stop offset="1" style="stop-color:#000"/></linearGradient><linearGradient id="a"><stop offset="0" style="stop-color:#fff"/><stop offset="1" style="stop-color:#fff;stop-opacity:0"/></linearGradient><linearGradient id="f" x1="7" x2="35" y1="1006.4" y2="1049.4" gradientTransform="translate(5.054 232)scale(.76882)" gradientUnits="userSpaceOnUse"><stop offset="0" style="stop-color:#729fcf"/><stop offset="1" style="stop-color:#3465a4"/></linearGradient><linearGradient xlink:href="#a" id="h" x1="5" x2="50" y1="1007.4" y2="1047.4" gradientTransform="translate(6.577 159.55)scale(.84274)" gradientUnits="userSpaceOnUse"/><linearGradient xlink:href="#b" id="i" x1="24" x2="21" y1="1025.8" y2="1035.4" gradientTransform="translate(6.797 160.76)scale(.84274)" gradientUnits="userSpaceOnUse"/><linearGradient xlink:href="#b" id="j" x1="24.464" x2="21" y1="1025.8" y2="1035.4" gradientTransform="matrix(-.84274 0 0 .84274 42.045 160.79)" gradientUnits="userSpaceOnUse"/><linearGradient xlink:href="#a" id="k" x1="20.467" x2="23" y1="1035.7" y2="1035.7" gradientTransform="translate(6.797 160.76)scale(.84274)" gradientUnits="userSpaceOnUse" spreadMethod="reflect"/><linearGradient id="e" x1="7" x2="35" y1="1006.4" y2="1049.4" gradientTransform="translate(5.054 232)scale(.76882)" gradientUnits="userSpaceOnUse"><stop offset="0" style="stop-color:#729fcf"/><stop offset="1" style="stop-color:#3465a4"/></linearGradient><linearGradient id="d" x1="20.601" x2="25.655" y1="1045.1" y2="1045.1" gradientTransform="translate(7.835 213.04)scale(.79273)" gradientUnits="userSpaceOnUse" spreadMethod="reflect"><stop offset="0" style="stop-color:#ffeca9"/><stop offset="1" style="stop-color:#ffd543"/></linearGradient><radialGradient id="g" cx="25" cy="1029.4" r="15.5" gradientTransform="matrix(.76882 0 0 1.0168 5.054 -23.29)" gradientUnits="userSpaceOnUse"><stop offset="0" style="stop-color:#fff;stop-opacity:.28829"/><stop offset="1" style="stop-color:#729fcf;stop-opacity:.79279"/></radialGradient><radialGradient id="c" cx="20.696" cy="44.562" r="12.696" gradientTransform="matrix(1 0 0 .22152 0 34.691)" gradientUnits="userSpaceOnUse"><stop offset="0" style="stop-color:#000"/><stop offset="1" style="stop-color:#000;stop-opacity:0"/></radialGradient></defs><path d="M33.393 44.562a12.696 2.813 0 1 1-25.393 0 12.696 2.813 0 1 1 25.393 0" style="opacity:.30973;fill:url(#c)" transform="translate(3.803 -1)"/><path d="m21.434 1046.3 5.872-.032c-2.297 2.762-4.163 2.157-5.872.032" style="stroke-linejoin:round;stroke:#000;stroke-linecap:round;stroke-width:.7;fill:#8c8c8c" transform="translate(0 -1004.4)"/><path d="M19.295 1038c3.543-2.607 6.821-2.21 9.94 0 .691 1.064 1.17 1.733-.213 2.159 2.34 1.718.213 2.82.213 2.82 1.49.904 0 2.414 0 2.414-3.455 2.111-4.74 2.268-7.996 1.224-.638-.426-3.687-1.675-1.944-2.84-.904-.426-1.33-2.326.479-2.698-1.893-1.716-1.437-1.749-.479-3.079z" style="stroke-linejoin:round;stroke:#d59600;stroke-width:.84274;fill:none" transform="translate(0 -1004.4)"/><path d="M19.591 1038.2c3.333-2.452 6.417-2.08 9.35 0 .65 1.001 1.1 1.63-.2 2.03 2.202 1.617.2 2.653.2 2.653 1.401.851 0 2.271 0 2.271-3.25 1.986-4.459 2.134-7.521 1.151-.601-.4-3.468-1.575-1.829-2.67-.85-.401-1.251-2.189.45-2.539-1.78-1.613-1.35-1.645-.45-2.896" style="fill:url(#d)" transform="translate(0 -1004.4)"/><path d="M24.275 1038.8c-1.895-.035-3.68-.067-4.613-.769-.932-.702.073-2.002-.769-3.844-.841-1.841-1.803-5.018-3.368-7.757s-2.782-3.837-2.782-8.388 5.163-9.995 11.532-9.995 11.532 5.438 11.532 9.995-1.23 5.447-3.17 8.784c-1.942 3.337-2.249 5.77-2.98 7.361-.733 1.591-.024 3.175-.77 3.844-.745.67-3.132.721-4.612.769z" style="opacity:.26;stroke:url(#e);stroke-width:.76882px;fill:#ffc803" transform="translate(0 -1004.4)"/><path d="M24.328 1039.2c-1.895-.035-3.733-.466-4.666-1.168s.073-2.002-.769-3.844c-.842-1.841-1.803-5.018-3.369-7.757s-2.781-3.837-2.781-8.388 5.163-9.995 11.532-9.995 11.532 5.438 11.532 9.995-1.23 5.447-3.17 8.784c-1.942 3.337-2.249 5.77-2.98 7.361-.733 1.591-.025 3.175-.77 3.844-.745.67-3.079 1.12-4.56 1.168z" style="stroke:url(#f);stroke-width:.76882px;fill:url(#g)" transform="translate(0 -1004.4)"/><path d="M24.275 1037.7c-1.769-.032-3.435-.062-4.305-.718s.068-1.869-.718-3.587c-.785-1.719-1.683-4.684-3.144-7.24s-2.596-3.581-2.596-7.829 4.818-9.328 10.763-9.328c5.944 0 10.763 5.074 10.763 9.328s-1.148 5.083-2.96 8.198c-1.811 3.115-2.098 5.386-2.781 6.87-.683 1.486-.022 2.964-.718 3.588-.695.625-2.923.673-4.305.718z" style="opacity:.75;stroke:url(#h);stroke-width:.71756px;fill:none" transform="translate(0 -1004.4)"/><path d="m27.44 1023.6-1.685 5.9" style="stroke-linejoin:round;stroke:url(#i);stroke-linecap:round;stroke-width:.84274px;fill:none" transform="translate(0 -1004.4)"/><path d="m21.402 1023.7 1.686 5.9" style="stroke-linejoin:round;stroke:url(#j);stroke-linecap:round;stroke-width:.84274px;fill:none" transform="translate(0 -1004.4)"/><path d="M27.358 1023.6c-.814.99-1.555 1.467-2.02.019-.562 1.054-1.124 1.696-1.686-.075-1.56 2.436-1.55.247-2.22.056" style="stroke-linejoin:round;stroke-opacity:.94118;stroke:#fff;stroke-linecap:round;stroke-width:.67419;fill:none" transform="translate(0 -1004.4)"/><path d="M27.023 1038v-7.715c-1.996-1.513-3.627-1.248-5.056 0v7.662" style="stroke-linejoin:round;stroke:#d7d3ce;stroke-linecap:round;stroke-width:.84274px;fill:url(#k)" transform="translate(0 -1004.4)"/><path d="M27.706 1042.6c-2.5-.718-5.4-.459-6.862-1.47M27.52 1045.1c-2.5-.718-5.4-.459-6.862-1.47" style="stroke-linejoin:bevel;stroke:#d59600;stroke-linecap:round;stroke-width:.58992;fill:none" transform="translate(0 -1004.4)"/><path d="M44.643 13.759a4.107 7.009 0 1 1-8.214 0 4.107 7.009 0 1 1 8.214 0" style="opacity:.30973;fill-opacity:.58511;fill:#fff" transform="rotate(52.051 37.076 -11.333)scale(1.11751)"/></svg>