<svg xmlns="http://www.w3.org/2000/svg" viewBox="0 0 400 400"><defs><linearGradient id="a" x1="241.41" x2="315.47" y1="287.49" y2="367.88" gradientUnits="userSpaceOnUse"><stop offset="0" style="stop-color:#fff"/><stop offset="1" style="stop-color:#fff;stop-opacity:0"/></linearGradient><linearGradient id="c" x1="275.61" x2="342" y1="300.86" y2="391.45" gradientUnits="userSpaceOnUse"><stop offset="0" style="stop-color:#ff7921"/><stop offset="1" style="stop-color:#ffa569"/></linearGradient><linearGradient id="e" x1="255.32" x2="300.27" y1="286.67" y2="338.82" gradientTransform="translate(-613.15 -49.414)scale(2.7754)" gradientUnits="userSpaceOnUse"><stop offset="0" style="stop-color:#fff"/><stop offset="1" style="stop-color:#fff;stop-opacity:0"/></linearGradient><radialGradient id="d" cx="312.78" cy="386.57" r="53.036" gradientTransform="rotate(-135 297.475 374.132)scale(.83901 1.01123)" gradientUnits="userSpaceOnUse"><stop offset="0" style="stop-color:#fff;stop-opacity:.40816"/><stop offset="1" style="stop-color:#fff;stop-opacity:0"/></radialGradient><filter id="b" color-interpolation-filters="sRGB"><feGaussianBlur stdDeviation=".53"/></filter></defs><path d="M356.79 346.11a53.036 53.036 0 1 1-106.07 0 53.036 53.036 0 1 1 106.07 0" style="fill:#999" transform="translate(-659.71 -779.29)scale(2.8283)"/><path d="M356.79 346.11a53.036 53.036 0 1 1-106.07 0 53.036 53.036 0 1 1 106.07 0" style="fill:url(#a)" transform="translate(-647.4 -765.27)scale(2.7878)"/><path d="M356.79 346.11a53.036 53.036 0 1 1-106.07 0 53.036 53.036 0 1 1 106.07 0" style="filter:url(#b);fill:#ececec" transform="translate(-571.47 -678.748)scale(2.5378)"/><path d="M356.79 346.11a53.036 53.036 0 1 1-106.07 0 53.036 53.036 0 1 1 106.07 0" style="filter:url(#b);fill:#999" transform="translate(-540.44 -643.39)scale(2.4356)"/><path d="M356.79 346.11a53.036 53.036 0 1 1-106.07 0 53.036 53.036 0 1 1 106.07 0" style="fill:url(#c)" transform="translate(-511.75 -610.697)scale(2.3412)"/><path d="M356.79 346.11a53.036 53.036 0 1 1-106.07 0 53.036 53.036 0 1 1 106.07 0" style="fill:url(#d)" transform="translate(-466.06 -556.949)scale(2.2028)"/><path d="M196.47 735.24c-38.727.874-76.074 21.376-96.845 57.353-22.341 38.696-19.505 85.022 3.354 120.07 2.478-77.078 61.39-135.13 134.58-130.89 23.993 1.392 46.64 9.297 66.408 22.052-9.464-21.643-25.615-40.536-47.626-53.244-18.845-10.88-39.582-15.802-59.868-15.344z" style="opacity:.31771;fill:url(#e)" transform="translate(0 -652.36)"/></svg>