<svg xmlns:xlink="http://www.w3.org/1999/xlink" xmlns="http://www.w3.org/2000/svg" viewBox="136.383 67.238 363.617 313.239" width="363.617"  height="313.239" >
  <path d="M 327.764 112.705 L 420.889 151.278 L 459.462 244.403 L 420.889 337.528 L 327.764 376.101 L 234.639 337.528 L 196.066 244.403 L 234.639 151.278 Z" style="fill: rgb(183, 210, 244);" transform="matrix(0.922871, 0.385109, -0.385109, 0.922871, 113.326813, -129.649902)"/>
  <line style="stroke-linecap: round; stroke-linejoin: round; stroke-dasharray: 8px; stroke-width: 2px; stroke: rgb(113, 165, 228);" x1="271.5674546196558" y1="99.99999999999999" x2="371.20293152744193" y2="344.0664520835012"/>
  <line style="stroke-linecap: round; stroke-linejoin: round; stroke-dasharray: 8px; stroke-width: 2px; stroke: rgb(113, 165, 228);" x1="372.0129637450933" y1="99.99999999999999" x2="271.9724707284814" y2="343.6614359746755"/>
  <line style="stroke-linecap: round; stroke-linejoin: round; stroke-dasharray: 8px; stroke-width: 2px; stroke: rgb(113, 165, 228);" x1="271.567" y1="100" x2="371.203" y2="344.066" transform="matrix(0, 1, -1, 0, 543.417969, -99.35199)"/>
  <line style="stroke-linecap: round; stroke-linejoin: round; stroke-dasharray: 8px; stroke-width: 2px; stroke: rgb(113, 165, 228);" x1="371.608" y1="100.81" x2="271.567" y2="344.471" transform="matrix(0, 1, -1, 0, 544.228027, -98.946991)"/>
  <circle style="fill: rgb(56, 59, 101);" cx="321.564" cy="222.185" r="4.895"/>
  <path d="M 310.269 201.299 C 325.924 192.26 345.495 203.559 345.495 221.637 C 345.495 230.027 341.019 237.78 333.752 241.975 C 329.633 244.353 325.243 245.324 321.009 245.133 L 323.031 245.133 L 323.031 241.235 C 332.85 240.698 341.608 232.685 341.608 221.637 C 341.608 214.636 337.873 208.166 331.809 204.665 C 319.038 197.291 303.146 206.135 302.437 220.629 L 298.548 220.629 C 298.891 212.63 303.295 205.326 310.269 201.299 Z" style="fill: rgb(255, 255, 255);" transform="matrix(-0.364857, 0.931064, -0.931064, -0.364857, 645.871521, 2.680435)"/>
  <path d="M 301.72 203.126 L 309.557 216.701 L 293.882 216.701 L 301.72 203.126 Z" style="fill: rgb(255, 255, 255);" transform="matrix(0.984914, 0.173045, -0.173045, 0.984914, 40.87635, -49.044384)"/>
  <path d="M 193.013 131.322 H 300.951 L 300.951 124.766 L 316.272 133.164 L 300.951 141.563 L 300.951 135.007 H 193.013 V 131.322 Z" style="fill: rgb(56, 59, 101);" transform="matrix(0.373797, -0.92751, 0.92751, 0.373797, 126.318375, 351.880402)"/>
  <path d="M 255.749 78.491 L 258.439 78.491 L 253.489 92.061 L 250.479 92.061 L 245.529 78.491 L 248.319 78.491 L 252.039 89.331 L 255.749 78.491 ZM 276.606 78.491 L 279.296 78.491 L 275.026 92.061 L 272.026 92.061 L 269.146 82.311 L 266.256 92.061 L 263.256 92.061 L 258.986 78.491 L 261.766 78.491 L 264.796 88.921 L 267.776 78.491 L 270.606 78.491 L 273.586 88.921 L 276.606 78.491 ZM 292.521 92.061 L 289.691 92.061 L 286.241 87.091 L 282.841 92.061 L 280.071 92.061 L 284.891 85.141 L 280.311 78.491 L 283.141 78.491 L 286.351 83.131 L 289.511 78.491 L 292.281 78.491 L 287.701 85.081 L 292.521 92.061 Z" transform="matrix(1, 0, 0, 1, 0, 0)" style="fill: rgb(56, 59, 101); white-space: pre;"/>
  <path d="M 359.199 92.061 L 358.069 88.981 L 352.279 88.981 L 351.149 92.061 L 348.579 92.061 L 353.719 78.491 L 356.729 78.491 L 361.869 92.061 L 359.199 92.061 Z M 353.079 86.801 L 357.269 86.801 L 355.189 81.021 L 353.079 86.801 ZM 372.556 85.001 C 373.256 85.301 373.789 85.724 374.156 86.271 C 374.522 86.818 374.706 87.481 374.706 88.261 C 374.706 89.494 374.256 90.438 373.356 91.091 C 372.456 91.738 371.156 92.061 369.456 92.061 L 364.446 92.061 L 364.446 78.491 L 369.686 78.491 C 371.159 78.491 372.292 78.798 373.086 79.411 C 373.879 80.031 374.276 80.914 374.276 82.061 C 374.276 83.421 373.702 84.401 372.556 85.001 Z M 369.476 80.751 L 367.016 80.751 L 367.016 83.991 L 369.456 83.991 C 370.156 83.991 370.682 83.848 371.036 83.561 C 371.389 83.274 371.566 82.858 371.566 82.311 C 371.566 81.711 371.412 81.301 371.106 81.081 C 370.799 80.861 370.256 80.751 369.476 80.751 Z M 369.456 89.781 C 370.376 89.781 371.029 89.648 371.416 89.381 C 371.796 89.114 371.986 88.654 371.986 88.001 C 371.986 87.394 371.782 86.948 371.376 86.661 C 370.969 86.374 370.336 86.231 369.476 86.231 L 367.016 86.231 L 367.016 89.781 L 369.456 89.781 ZM 384.782 92.291 C 383.282 92.291 381.999 92.008 380.932 91.441 C 379.859 90.868 379.039 90.051 378.472 88.991 C 377.906 87.931 377.622 86.691 377.622 85.271 C 377.622 83.858 377.909 82.621 378.482 81.561 C 379.056 80.501 379.886 79.684 380.972 79.111 C 382.066 78.538 383.372 78.251 384.892 78.251 C 385.532 78.251 386.162 78.314 386.782 78.441 C 387.396 78.561 387.949 78.748 388.442 79.001 L 388.442 81.371 L 388.372 81.371 C 387.872 81.084 387.336 80.871 386.762 80.731 C 386.182 80.591 385.632 80.521 385.112 80.521 C 383.632 80.521 382.466 80.928 381.612 81.741 C 380.759 82.561 380.332 83.738 380.332 85.271 C 380.332 86.798 380.749 87.968 381.582 88.781 C 382.416 89.601 383.552 90.011 384.992 90.011 C 385.552 90.011 386.122 89.924 386.702 89.751 C 387.282 89.578 387.839 89.328 388.372 89.001 L 388.442 89.001 L 388.442 91.401 C 387.402 91.994 386.182 92.291 384.782 92.291 Z" transform="matrix(1, 0, 0, 1, 0, 0)" style="fill: rgb(56, 59, 101); white-space: pre;"/>
  <path d="M 453.606 155.705 C 454.999 155.705 456.196 155.982 457.196 156.535 C 458.196 157.088 458.956 157.875 459.476 158.895 C 459.996 159.915 460.256 161.112 460.256 162.485 C 460.256 163.865 459.996 165.065 459.476 166.085 C 458.956 167.105 458.196 167.892 457.196 168.445 C 456.196 168.998 454.999 169.275 453.606 169.275 L 448.596 169.275 L 448.596 155.705 L 453.606 155.705 Z M 453.606 166.995 C 454.839 166.995 455.806 166.612 456.506 165.845 C 457.199 165.078 457.546 163.958 457.546 162.485 C 457.546 161.018 457.199 159.902 456.506 159.135 C 455.806 158.368 454.839 157.985 453.606 157.985 L 451.166 157.985 L 451.166 166.995 L 453.606 166.995 ZM 472.652 157.965 L 466.372 157.965 L 466.372 161.355 L 472.222 161.355 L 472.222 163.485 L 466.372 163.485 L 466.372 167.015 L 472.652 167.015 L 472.652 169.275 L 463.802 169.275 L 463.802 155.705 L 472.652 155.705 L 472.652 157.965 ZM 485.189 157.965 L 478.849 157.965 L 478.849 161.575 L 483.899 161.575 L 483.899 163.715 L 478.849 163.715 L 478.849 169.275 L 476.279 169.275 L 476.279 155.705 L 485.189 155.705 L 485.189 157.965 Z" transform="matrix(1, 0, 0, 1, 0, 0)" style="fill: rgb(56, 59, 101); white-space: pre;"/>
  <path d="M 448.126 273.33 C 448.126 271.89 448.403 270.637 448.956 269.57 C 449.509 268.503 450.309 267.683 451.356 267.11 C 452.403 266.537 453.639 266.25 455.066 266.25 C 455.886 266.25 456.623 266.337 457.276 266.51 C 457.923 266.677 458.559 266.91 459.186 267.21 L 459.186 269.61 L 459.106 269.61 C 458.653 269.337 458.089 269.107 457.416 268.92 C 456.749 268.727 456.033 268.63 455.266 268.63 C 452.313 268.63 450.836 270.183 450.836 273.29 C 450.836 274.81 451.186 275.963 451.886 276.75 C 452.593 277.523 453.619 277.91 454.966 277.91 C 456.059 277.91 456.873 277.683 457.406 277.23 L 457.406 275.18 L 454.836 275.18 L 454.836 273.04 L 459.986 273.04 L 459.986 278.6 C 458.946 279.233 458.049 279.673 457.296 279.92 C 456.536 280.167 455.736 280.29 454.896 280.29 C 453.463 280.29 452.239 280.007 451.226 279.44 C 450.213 278.867 449.443 278.057 448.916 277.01 C 448.389 275.963 448.126 274.737 448.126 273.33 ZM 472.812 266.49 L 475.382 266.49 L 475.382 280.06 L 472.812 280.06 L 472.812 274.09 L 466.372 274.09 L 466.372 280.06 L 463.802 280.06 L 463.802 266.49 L 466.372 266.49 L 466.372 271.81 L 472.812 271.81 L 472.812 266.49 ZM 479.219 280.06 L 479.219 266.49 L 481.799 266.49 L 481.799 280.06 L 479.219 280.06 Z" transform="matrix(1, 0, 0, 1, 0, 0)" style="fill: rgb(56, 59, 101); white-space: pre;"/>
  <path d="M 152.496 169.505 C 151.769 169.505 150.996 169.408 150.176 169.215 C 149.356 169.022 148.583 168.755 147.856 168.415 L 147.856 165.925 C 149.543 166.832 151.049 167.285 152.376 167.285 C 153.043 167.285 153.579 167.142 153.986 166.855 C 154.399 166.568 154.606 166.165 154.606 165.645 C 154.606 165.285 154.493 164.978 154.266 164.725 C 154.033 164.472 153.749 164.262 153.416 164.095 C 153.076 163.935 152.593 163.738 151.966 163.505 C 151.126 163.192 150.439 162.892 149.906 162.605 C 149.373 162.318 148.916 161.912 148.536 161.385 C 148.163 160.858 147.976 160.178 147.976 159.345 C 147.976 158.125 148.396 157.175 149.236 156.495 C 150.083 155.808 151.239 155.465 152.706 155.465 C 153.399 155.465 154.076 155.542 154.736 155.695 C 155.403 155.842 156.016 156.058 156.576 156.345 L 156.576 158.785 C 155.263 158.058 153.993 157.695 152.766 157.695 C 152.093 157.695 151.563 157.815 151.176 158.055 C 150.796 158.295 150.606 158.635 150.606 159.075 C 150.606 159.515 150.803 159.862 151.196 160.115 C 151.596 160.368 152.213 160.645 153.046 160.945 C 153.913 161.272 154.626 161.585 155.186 161.885 C 155.746 162.185 156.229 162.618 156.636 163.185 C 157.049 163.745 157.269 164.475 157.296 165.375 C 157.296 166.662 156.859 167.672 155.986 168.405 C 155.113 169.138 153.949 169.505 152.496 169.505 ZM 163.703 169.275 L 163.703 158.065 L 159.843 158.065 L 159.843 155.705 L 170.143 155.705 L 170.143 158.065 L 166.283 158.065 L 166.283 169.275 L 163.703 169.275 ZM 178.84 169.505 C 177.027 169.505 175.607 168.985 174.58 167.945 C 173.553 166.905 173.04 165.475 173.04 163.655 L 173.04 155.705 L 175.62 155.705 L 175.62 163.605 C 175.62 164.852 175.9 165.768 176.46 166.355 C 177.013 166.948 177.807 167.245 178.84 167.245 C 179.873 167.245 180.667 166.945 181.22 166.345 C 181.773 165.738 182.05 164.825 182.05 163.605 L 182.05 155.705 L 184.63 155.705 L 184.63 163.655 C 184.63 165.475 184.117 166.905 183.09 167.945 C 182.063 168.985 180.647 169.505 178.84 169.505 Z" transform="matrix(1, 0, 0, 1, 0, 0)" style="fill: rgb(56, 59, 101); white-space: pre;"/>
  <path d="M 148.286 280.06 L 148.286 266.49 L 152.766 266.49 C 154.639 266.49 156.039 266.87 156.966 267.63 C 157.886 268.39 158.346 269.49 158.346 270.93 C 158.346 272.39 157.893 273.523 156.986 274.33 C 156.073 275.137 154.746 275.54 153.006 275.54 L 150.856 275.54 L 150.856 280.06 L 148.286 280.06 Z M 150.856 273.29 L 152.786 273.29 C 153.766 273.29 154.486 273.117 154.946 272.77 C 155.406 272.417 155.636 271.823 155.636 270.99 C 155.636 270.183 155.409 269.613 154.956 269.28 C 154.503 268.94 153.773 268.77 152.766 268.77 L 150.856 268.77 L 150.856 273.29 ZM 173.983 273.27 C 173.983 274.797 173.686 276.103 173.093 277.19 C 172.5 278.283 171.646 279.097 170.533 279.63 L 172.563 283.37 L 169.923 283.37 L 168.233 280.26 C 167.84 280.28 167.54 280.29 167.333 280.29 C 165.94 280.29 164.743 280.007 163.743 279.44 C 162.743 278.867 161.983 278.053 161.463 277 C 160.943 275.947 160.683 274.703 160.683 273.27 C 160.683 271.843 160.943 270.603 161.463 269.55 C 161.983 268.497 162.743 267.683 163.743 267.11 C 164.743 266.537 165.94 266.25 167.333 266.25 C 168.726 266.25 169.923 266.537 170.923 267.11 C 171.923 267.683 172.683 268.497 173.203 269.55 C 173.723 270.603 173.983 271.843 173.983 273.27 Z M 163.393 273.27 C 163.393 274.83 163.74 276.023 164.433 276.85 C 165.133 277.677 166.1 278.09 167.333 278.09 C 168.566 278.09 169.533 277.677 170.233 276.85 C 170.926 276.023 171.273 274.83 171.273 273.27 C 171.273 271.71 170.926 270.52 170.233 269.7 C 169.533 268.873 168.566 268.46 167.333 268.46 C 166.1 268.46 165.133 268.873 164.433 269.7 C 163.74 270.52 163.393 271.71 163.393 273.27 ZM 188.119 280.06 L 185.289 280.06 L 182.519 274.89 L 180.099 274.89 L 180.099 280.06 L 177.529 280.06 L 177.529 266.49 L 182.419 266.49 C 184.179 266.49 185.492 266.84 186.359 267.54 C 187.232 268.24 187.669 269.26 187.669 270.6 C 187.669 271.553 187.456 272.36 187.029 273.02 C 186.596 273.687 185.956 274.18 185.109 274.5 L 188.119 280.06 Z M 180.099 268.77 L 180.099 272.63 L 182.439 272.63 C 183.299 272.63 183.932 272.48 184.339 272.18 C 184.752 271.88 184.959 271.373 184.959 270.66 C 184.959 269.973 184.756 269.487 184.349 269.2 C 183.949 268.913 183.306 268.77 182.419 268.77 L 180.099 268.77 Z" transform="matrix(1, 0, 0, 1, 0, 0)" style="fill: rgb(56, 59, 101); white-space: pre;"/>
  <path d="M 262.259 355.911 L 262.259 369.481 L 259.689 369.481 L 259.689 359.161 L 256.099 369.481 L 253.409 369.481 L 249.739 359.181 L 249.739 369.481 L 247.169 369.481 L 247.169 355.911 L 251.199 355.911 L 254.789 365.971 L 258.279 355.911 L 262.259 355.911 ZM 275.284 355.911 L 277.854 355.911 L 277.854 369.481 L 275.284 369.481 L 268.844 360.511 L 268.844 369.481 L 266.274 369.481 L 266.274 355.911 L 268.844 355.911 L 275.284 364.861 L 275.284 355.911 ZM 288.051 369.711 C 286.657 369.711 285.461 369.428 284.461 368.861 C 283.461 368.288 282.701 367.474 282.181 366.421 C 281.661 365.368 281.401 364.124 281.401 362.691 C 281.401 361.264 281.661 360.024 282.181 358.971 C 282.701 357.918 283.461 357.104 284.461 356.531 C 285.461 355.958 286.657 355.671 288.051 355.671 C 289.444 355.671 290.641 355.958 291.641 356.531 C 292.641 357.104 293.401 357.918 293.921 358.971 C 294.441 360.024 294.701 361.264 294.701 362.691 C 294.701 364.124 294.441 365.368 293.921 366.421 C 293.401 367.474 292.641 368.288 291.641 368.861 C 290.641 369.428 289.444 369.711 288.051 369.711 Z M 288.051 367.331 C 289.271 367.331 290.234 366.934 290.941 366.141 C 291.641 365.341 291.991 364.191 291.991 362.691 C 291.991 361.198 291.641 360.051 290.941 359.251 C 290.234 358.451 289.271 358.051 288.051 358.051 C 286.831 358.051 285.867 358.451 285.161 359.251 C 284.461 360.051 284.111 361.198 284.111 362.691 C 284.111 364.191 284.461 365.341 285.161 366.141 C 285.867 366.934 286.831 367.331 288.051 367.331 ZM 300.547 367.351 L 308.077 367.351 L 308.077 369.481 L 297.267 369.481 L 297.267 367.571 L 304.407 358.031 L 297.697 358.031 L 297.697 355.911 L 307.647 355.911 L 307.647 357.821 L 300.547 367.351 Z" transform="matrix(1, 0, 0, 1, 0, 0)" style="fill: rgb(56, 59, 101); white-space: pre;"/>
  <path d="M 351.269 369.711 C 350.356 369.711 349.509 369.471 348.729 368.991 L 348.729 366.691 C 349.456 367.158 350.179 367.391 350.899 367.391 C 351.339 367.391 351.652 367.294 351.839 367.101 C 352.026 366.908 352.136 366.641 352.169 366.301 C 352.202 365.961 352.219 365.391 352.219 364.591 L 352.219 355.911 L 354.799 355.911 L 354.799 365.311 C 354.799 366.871 354.489 367.994 353.869 368.681 C 353.249 369.368 352.382 369.711 351.269 369.711 ZM 366.667 369.481 L 362.647 363.861 L 361.167 365.581 L 361.167 369.481 L 358.597 369.481 L 358.597 355.911 L 361.167 355.911 L 361.167 362.071 L 366.377 355.911 L 369.537 355.911 L 364.407 361.841 L 369.847 369.481 L 366.667 369.481 ZM 372.244 369.481 L 372.244 355.911 L 374.814 355.911 L 374.814 367.221 L 380.534 367.221 L 380.534 369.481 L 372.244 369.481 ZM 390.371 355.911 L 393.031 355.911 L 388.091 364.801 L 388.091 369.481 L 385.521 369.481 L 385.521 364.801 L 380.581 355.911 L 383.331 355.911 L 386.821 362.501 L 390.371 355.911 Z" transform="matrix(1, 0, 0, 1, 0, 0)" style="fill: rgb(56, 59, 101); white-space: pre;"/>
</svg>