<svg xmlns="http://www.w3.org/2000/svg" viewBox="0 0 135 137.01"><path d="m232.46 582.55 1.056 2.354c-.675.46-1.431.837-1.84 1.54.177.845 1.6 1.17 1.81 2.052-.559.509-1.403.709-1.931 1.419.442.583 1.102 1.494 1.78 1.84-.714.367-.897.668-1.328 1.57.38.304 1.06 1.069 1.75 1.6.885.862 3.05 3.018 3.05 3.018.011.097.455.213 1.056.302l2.324 2.535c2.076.744 4.067.798 6.61.12l2.595-2.746c.36-.074.708-.143.966-.241 1.42-1.014 1.866-1.761 3.17-3.14.46-.362 1.106-1.696 1.388-2.112-.52-.785-.524-.762-1.087-1.207.359-.528 1.486-.782 1.66-1.72l-1.69-1.359c.207-.79 1.415-1.231 1.63-2.022-.21-.685-1.186-1.06-1.66-1.57l.603-2.233z" style="stroke-linejoin:round;stroke-dashoffset:3.003;stroke:#000;stroke-linecap:round;stroke-width:2;fill:#fff" transform="translate(-177.975 -465.36)"/><path d="M243.06 502.22c-16.532 0-30.851 13.853-29.935 30.887-.492 4.436 5.118 15.111 10.09 21.099 6.744 12.129 7.39 13.576 7.835 26.81.343 1.582 1.145 2.07 1.969 2.252 8.678 1.69 15.387.734 20.556.096 1.243-.415 1.993-1.203 1.905-2.283.496-17.977 3.244-16.885 11.491-30.716 4.567-6.242 6.254-15.436 6.295-19.708.487-23.806-21.321-28.18-30.207-28.438zM240.97 466.36l-1 26M195.97 481.36l18 22M178.97 520.36l26 5M269.97 504.36l15-28M284.97 528.36l27-1M278.97 555.36l17 14M210.97 552.36l-21 13" style="stroke-linejoin:round;stroke-dashoffset:3.003;stroke:#000;stroke-linecap:round;stroke-width:2;fill:#fff" transform="translate(-177.975 -465.36)"/></svg>