<svg xmlns="http://www.w3.org/2000/svg" viewBox="0 0 177.91 187.84"><path d="M-.519 92.754c-.246-.067-.325-.69-.317-1.812.008-1.124.099-2.752.096-4.841-.002-2.09-.102-4.646-.535-7.57s-1.203-6.225-2.576-9.673c-1.23-3.152-2.993-6.422-5.246-9.84s-5.003-6.984-7.954-10.84c-2.413-3.086-4.988-6.416-7.439-10.14s-4.778-7.844-6.56-12.558c-2.235-6.087-3.233-12.898-2.683-19.86.55-6.963 2.648-14.076 6.53-20.519 3.452-5.678 8.23-10.668 13.968-14.48C-7.5-33.19-.806-35.824 6.329-36.754q.472-.062.946-.113c7.346-.766 14.66.35 21.236 2.926s12.414 6.608 16.983 11.673c5.056 5.658 8.358 12.396 9.974 19.241s1.547 13.792.004 20.147c-.935 3.681-2.24 7.008-3.63 10.09s-2.863 5.92-4.214 8.601c-7.395 14.84-12.131 27.666-15.322 36.634-1.596 4.484-2.807 8.012-3.732 10.393s-1.57 3.615-1.95 3.533-.476-1.476-.253-4.044.768-6.31 1.754-11.051c.985-4.742 2.414-10.484 4.443-17.015a218 218 0 0 1 8.052-21.702c1.215-2.847 2.516-5.697 3.678-8.576s2.183-5.789 2.763-8.775c1.048-5.041.887-10.582-.558-15.997-1.446-5.416-4.176-10.705-8.157-14.968-3.563-3.862-8.208-6.95-13.413-8.93-5.204-1.98-10.965-2.848-16.603-2.237q-.365.038-.729.083c-5.506.691-10.795 2.767-15.367 5.754s-8.425 6.882-11.179 11.275C-22.093-4.844-23.892.837-24.486 6.46s.015 11.185 1.64 16.155c1.24 3.933 3.135 7.588 5.236 11.085 2.101 3.496 4.408 6.834 6.602 10.08 2.77 4.007 5.396 7.966 7.532 11.868C-1.341 59.55.306 63.394 1.385 67.09a41.6 41.6 0 0 1 1.61 11.122c.026 3.264-.342 6.023-.817 8.209s-1.056 3.804-1.55 4.856-.9 1.542-1.146 1.475z" style="fill-rule:evenodd;fill:#000" transform="translate(76.364 79.336)"/><path d="M2.468 72.974c.325-2.74 5.99-4.325 12.644-3.537 6.655.789 11.792 3.653 11.468 6.394s-5.989 4.325-12.644 3.537c-6.654-.79-11.792-3.653-11.468-6.394zM-.876 87.403c.226-2.751 7.21-4.423 15.589-3.733s14.995 3.482 14.768 6.233-7.21 4.423-15.59 3.733-14.994-3.482-14.767-6.233M-.376 100.97c.404-2.726 7.213-3.982 15.197-2.799s14.136 4.359 13.732 7.089c-.405 2.73-7.213 3.986-15.197 2.803S-.78 103.704-.376 100.974zM-54.471-52.626c1.738-2.144 9.71 1.433 17.795 7.985 8.085 6.551 13.237 13.61 11.499 15.754s-9.71-1.433-17.795-7.985-13.237-13.61-11.499-15.754M4.623-79.331c2.75-.226 5.548 6.463 6.245 14.93.697 8.468-.97 15.525-3.72 15.751S1.599-55.112.902-63.58s.97-15.524 3.72-15.751M75.721-62.816c2.212 1.65-.918 9.592-6.987 17.725-6.07 8.134-12.79 13.396-15.002 11.745-2.212-1.65.918-9.592 6.987-17.725 6.07-8.134 12.79-13.396 15.002-11.745M65.92-.899c-1.197-2.486 5.782-8.332 15.578-13.048s18.718-6.525 19.916-4.038c1.197 2.487-5.782 8.333-15.578 13.049S67.118 1.589 65.92-.898zM-76.202-10.247c1.296-2.437 10.047-.32 19.533 4.724S-40.536 5.593-41.831 8.03c-1.296 2.437-10.047.32-19.533-4.724S-77.497-7.81-76.202-10.247" style="fill-rule:evenodd;fill:#000" transform="translate(76.364 79.336)"/><path d="M25.561 73.158c-3.066-3.714-17.188-5.372-21.53-2.527-1.198.785-1.199.785-1.199-1.418 0-6.9-4.569-17.075-13.422-29.892-9.652-13.975-11.496-17.386-13.346-24.703C-26.347 5.08-24.1-7.553-18.612-15.3c13.64-19.258 39.76-21.756 56.13-5.37 7.887 7.896 11.75 20.542 9.568 31.315-.943 4.655-1.999 7.566-6.37 17.563-6.836 15.636-12.049 32.084-14.233 44.904-.158.928-.191.93-.921.045z" style="fill:#ff0" transform="translate(76.364 79.336)"/></svg>