<svg xmlns:xlink="http://www.w3.org/1999/xlink" xmlns="http://www.w3.org/2000/svg" viewBox="2200 -1467.839 3935.279 467.839" width="3935.279" height="467.839">
  <g transform="matrix(1, 0, 0, 1, 0, -500.000007)">
    <g transform="matrix(1, 0, 0, 1, 2067.554932, -800.697998)">
      <path d="M 390.409 113.428 C 390.409 139.914 350.461 161.385 301.182 161.385 C 251.904 161.385 211.955 139.914 211.955 113.428 C 211.955 86.942 251.904 65.471 301.182 65.471 C 350.461 65.471 390.409 86.942 390.409 113.428 Z M 375.064 140.325 C 359.016 127.616 331.914 119.266 301.182 119.266 C 270.451 119.266 243.348 127.616 227.3 140.325 C 243.348 153.035 270.451 161.385 301.182 161.385 C 331.914 161.385 359.016 153.035 375.064 140.325 Z" style="fill: rgb(105, 105, 105);"/>
      <rect x="200" y="200" width="200" height="100" style="fill: rgb(105, 105, 105);"/>
      <polygon style="fill: rgb(132, 132, 132);" points="132.711 99.753 200.181 200.167 200.181 300.698 132.923 201.866"/>
      <polygon style="fill: rgb(132, 132, 132);" points="400 300.698 467.47 200.284 467.47 99.753 400.212 198.585" transform="matrix(-1, 0, 0, -1, 867.470001, 400.451004)"/>
      <path d="M 198.748 30.859 L 399.751 30.859 L 467.724 99.666 L 400.592 200.167 L 200.001 200.167 L 132.445 100.083 Z M 301.182 65.471 C 251.904 65.471 211.955 86.942 211.955 113.428 C 211.955 139.914 251.904 161.385 301.182 161.385 C 350.461 161.385 390.409 139.914 390.409 113.428 C 390.409 86.942 350.461 65.471 301.182 65.471 Z" style="fill: rgb(174, 174, 174);"/>
    </g>
    <g transform="matrix(1, 0, 0, 1, 2200, -869.838989)">
      <g transform="matrix(1, 0, 0, 1, 667.554993, 69.140999)">
        <path d="M 390.409 113.428 C 390.409 139.914 350.461 161.385 301.182 161.385 C 251.904 161.385 211.955 139.914 211.955 113.428 C 211.955 86.942 251.904 65.471 301.182 65.471 C 350.461 65.471 390.409 86.942 390.409 113.428 Z M 375.064 140.325 C 359.016 127.616 331.914 119.266 301.182 119.266 C 270.451 119.266 243.348 127.616 227.3 140.325 C 243.348 153.035 270.451 161.385 301.182 161.385 C 331.914 161.385 359.016 153.035 375.064 140.325 Z" style="fill: rgb(105, 105, 105);"/>
        <rect x="200" y="200" width="200" height="100" style="fill: rgb(105, 105, 105);"/>
        <polygon style="fill: rgb(132, 132, 132);" points="132.711 99.753 200.181 200.167 200.181 300.698 132.923 201.866"/>
        <polygon style="fill: rgb(132, 132, 132);" points="400 300.698 467.47 200.284 467.47 99.753 400.212 198.585" transform="matrix(-1, 0, 0, -1, 867.470001, 400.451004)"/>
        <path d="M 198.748 30.859 L 399.751 30.859 L 467.724 99.666 L 400.592 200.167 L 200.001 200.167 L 132.445 100.083 Z M 301.182 65.471 C 251.904 65.471 211.955 86.942 211.955 113.428 C 211.955 139.914 251.904 161.385 301.182 161.385 C 350.461 161.385 390.409 139.914 390.409 113.428 C 390.409 86.942 350.461 65.471 301.182 65.471 Z" style="fill: rgb(174, 174, 174);"/>
      </g>
      <g transform="matrix(1, 0, 0, 1, 280.043335, -165.470993)">
        <path d="M 600 117.305 L 778.454 117.305 L 778.454 350.213 L 778.384 350.213 C 776.51 376.922 737.31 398.252 689.227 398.252 C 641.144 398.252 601.944 376.922 600.07 350.213 L 600 350.213 L 600 117.305 Z" style="fill: rgb(132, 132, 132);"/>
        <circle style="fill: rgb(206, 206, 206);" cx="322.469" cy="125.208" r="110.514" transform="matrix(0.807382, 0, 0, 0.452804, 428.871338, 60.817501)"/>
        <path d="M 778.454 209.86 C 778.454 237.497 738.506 259.901 689.227 259.901 C 639.948 259.901 600 237.497 600 209.86 C 600 207.742 600.235 205.654 600.69 203.605 C 606.179 228.289 643.725 247.391 689.227 247.391 C 734.729 247.391 772.275 228.289 777.764 203.605 C 778.219 205.654 778.454 207.742 778.454 209.86 Z" style="fill: rgb(105, 105, 105);"/>
        <path d="M 778.454 153.564 C 778.454 181.201 738.506 203.605 689.227 203.605 C 639.948 203.605 600 181.201 600 153.564 C 600 151.446 600.235 149.358 600.69 147.309 C 606.179 171.993 643.725 191.095 689.227 191.095 C 734.729 191.095 772.275 171.993 777.764 147.309 C 778.219 149.358 778.454 151.446 778.454 153.564 Z" style="fill: rgb(105, 105, 105);"/>
        <path d="M 778.454 322.452 C 778.454 350.089 738.506 372.493 689.227 372.493 C 639.948 372.493 600 350.089 600 322.452 C 600 320.334 600.235 318.246 600.69 316.197 C 606.179 340.881 643.725 359.983 689.227 359.983 C 734.729 359.983 772.275 340.881 777.764 316.197 C 778.219 318.246 778.454 320.334 778.454 322.452 Z" style="fill: rgb(105, 105, 105);"/>
        <path d="M 778.454 266.156 C 778.454 293.793 738.506 316.197 689.227 316.197 C 639.948 316.197 600 293.793 600 266.156 C 600 264.038 600.235 261.95 600.69 259.901 C 606.179 284.585 643.725 303.687 689.227 303.687 C 734.729 303.687 772.275 284.585 777.764 259.901 C 778.219 261.95 778.454 264.038 778.454 266.156 Z" style="fill: rgb(105, 105, 105);"/>
        <circle style="fill: rgb(174, 174, 174);" cx="322.469" cy="125.208" r="110.514" transform="matrix(0.576275, 0, 0, 0.323192, 503.812317, 75.535011)"/>
      </g>
      <circle style="fill: rgb(206, 206, 206);" cx="322.469" cy="125.208" r="110.514" transform="matrix(0.486718, 0, 0, 0.272966, 812.748901, -88.216217)"/>
    </g>
    <g transform="matrix(1, 0, 0, 1, 3267.554932, -800.697998)">
      <path d="M 390.409 113.428 C 390.409 139.914 350.461 161.385 301.182 161.385 C 251.904 161.385 211.955 139.914 211.955 113.428 C 211.955 86.942 251.904 65.471 301.182 65.471 C 350.461 65.471 390.409 86.942 390.409 113.428 Z M 375.064 140.325 C 359.016 127.616 331.914 119.266 301.182 119.266 C 270.451 119.266 243.348 127.616 227.3 140.325 C 243.348 153.035 270.451 161.385 301.182 161.385 C 331.914 161.385 359.016 153.035 375.064 140.325 Z" style="fill: rgb(105, 105, 105);"/>
      <rect x="200" y="200" width="200" height="100" style="fill: rgb(105, 105, 105);"/>
      <polygon style="fill: rgb(132, 132, 132);" points="132.711 99.753 200.181 200.167 200.181 300.698 132.923 201.866"/>
      <polygon style="fill: rgb(132, 132, 132);" points="400 300.698 467.47 200.284 467.47 99.753 400.212 198.585" transform="matrix(-1, 0, 0, -1, 867.470001, 400.451004)"/>
      <path d="M 198.748 30.859 L 399.751 30.859 L 467.724 99.666 L 400.592 200.167 L 200.001 200.167 L 132.445 100.083 Z M 301.182 65.471 C 251.904 65.471 211.955 86.942 211.955 113.428 C 211.955 139.914 251.904 161.385 301.182 161.385 C 350.461 161.385 390.409 139.914 390.409 113.428 C 390.409 86.942 350.461 65.471 301.182 65.471 Z" style="fill: rgb(174, 174, 174);"/>
    </g>
    <g transform="matrix(1, 0, 0, 1, 3667.554932, -800.697998)">
      <path d="M 390.409 113.428 C 390.409 139.914 350.461 161.385 301.182 161.385 C 251.904 161.385 211.955 139.914 211.955 113.428 C 211.955 86.942 251.904 65.471 301.182 65.471 C 350.461 65.471 390.409 86.942 390.409 113.428 Z M 375.064 140.325 C 359.016 127.616 331.914 119.266 301.182 119.266 C 270.451 119.266 243.348 127.616 227.3 140.325 C 243.348 153.035 270.451 161.385 301.182 161.385 C 331.914 161.385 359.016 153.035 375.064 140.325 Z" style="fill: rgb(105, 105, 105);"/>
      <rect x="200" y="200" width="200" height="100" style="fill: rgb(105, 105, 105);"/>
      <polygon style="fill: rgb(132, 132, 132);" points="132.711 99.753 200.181 200.167 200.181 300.698 132.923 201.866"/>
      <polygon style="fill: rgb(132, 132, 132);" points="400 300.698 467.47 200.284 467.47 99.753 400.212 198.585" transform="matrix(-1, 0, 0, -1, 867.470001, 400.451004)"/>
      <path d="M 198.748 30.859 L 399.751 30.859 L 467.724 99.666 L 400.592 200.167 L 200.001 200.167 L 132.445 100.083 Z M 301.182 65.471 C 251.904 65.471 211.955 86.942 211.955 113.428 C 211.955 139.914 251.904 161.385 301.182 161.385 C 350.461 161.385 390.409 139.914 390.409 113.428 C 390.409 86.942 350.461 65.471 301.182 65.471 Z" style="fill: rgb(174, 174, 174);"/>
    </g>
    <g transform="matrix(1, 0, 0, 1, 4200, -869.838989)">
      <g transform="matrix(1, 0, 0, 1, 667.554993, 69.140999)">
        <path d="M 390.409 113.428 C 390.409 139.914 350.461 161.385 301.182 161.385 C 251.904 161.385 211.955 139.914 211.955 113.428 C 211.955 86.942 251.904 65.471 301.182 65.471 C 350.461 65.471 390.409 86.942 390.409 113.428 Z M 375.064 140.325 C 359.016 127.616 331.914 119.266 301.182 119.266 C 270.451 119.266 243.348 127.616 227.3 140.325 C 243.348 153.035 270.451 161.385 301.182 161.385 C 331.914 161.385 359.016 153.035 375.064 140.325 Z" style="fill: rgb(105, 105, 105);"/>
        <rect x="200" y="200" width="200" height="100" style="fill: rgb(105, 105, 105);"/>
        <polygon style="fill: rgb(132, 132, 132);" points="132.711 99.753 200.181 200.167 200.181 300.698 132.923 201.866"/>
        <polygon style="fill: rgb(132, 132, 132);" points="400 300.698 467.47 200.284 467.47 99.753 400.212 198.585" transform="matrix(-1, 0, 0, -1, 867.470001, 400.451004)"/>
        <path d="M 198.748 30.859 L 399.751 30.859 L 467.724 99.666 L 400.592 200.167 L 200.001 200.167 L 132.445 100.083 Z M 301.182 65.471 C 251.904 65.471 211.955 86.942 211.955 113.428 C 211.955 139.914 251.904 161.385 301.182 161.385 C 350.461 161.385 390.409 139.914 390.409 113.428 C 390.409 86.942 350.461 65.471 301.182 65.471 Z" style="fill: rgb(174, 174, 174);"/>
      </g>
      <g transform="matrix(1, 0, 0, 1, 280.043335, -165.470993)">
        <path d="M 600 117.305 L 778.454 117.305 L 778.454 350.213 L 778.384 350.213 C 776.51 376.922 737.31 398.252 689.227 398.252 C 641.144 398.252 601.944 376.922 600.07 350.213 L 600 350.213 L 600 117.305 Z" style="fill: rgb(132, 132, 132);"/>
        <circle style="fill: rgb(206, 206, 206);" cx="322.469" cy="125.208" r="110.514" transform="matrix(0.807382, 0, 0, 0.452804, 428.871338, 60.817501)"/>
        <path d="M 778.454 209.86 C 778.454 237.497 738.506 259.901 689.227 259.901 C 639.948 259.901 600 237.497 600 209.86 C 600 207.742 600.235 205.654 600.69 203.605 C 606.179 228.289 643.725 247.391 689.227 247.391 C 734.729 247.391 772.275 228.289 777.764 203.605 C 778.219 205.654 778.454 207.742 778.454 209.86 Z" style="fill: rgb(105, 105, 105);"/>
        <path d="M 778.454 153.564 C 778.454 181.201 738.506 203.605 689.227 203.605 C 639.948 203.605 600 181.201 600 153.564 C 600 151.446 600.235 149.358 600.69 147.309 C 606.179 171.993 643.725 191.095 689.227 191.095 C 734.729 191.095 772.275 171.993 777.764 147.309 C 778.219 149.358 778.454 151.446 778.454 153.564 Z" style="fill: rgb(105, 105, 105);"/>
        <path d="M 778.454 322.452 C 778.454 350.089 738.506 372.493 689.227 372.493 C 639.948 372.493 600 350.089 600 322.452 C 600 320.334 600.235 318.246 600.69 316.197 C 606.179 340.881 643.725 359.983 689.227 359.983 C 734.729 359.983 772.275 340.881 777.764 316.197 C 778.219 318.246 778.454 320.334 778.454 322.452 Z" style="fill: rgb(105, 105, 105);"/>
        <path d="M 778.454 266.156 C 778.454 293.793 738.506 316.197 689.227 316.197 C 639.948 316.197 600 293.793 600 266.156 C 600 264.038 600.235 261.95 600.69 259.901 C 606.179 284.585 643.725 303.687 689.227 303.687 C 734.729 303.687 772.275 284.585 777.764 259.901 C 778.219 261.95 778.454 264.038 778.454 266.156 Z" style="fill: rgb(105, 105, 105);"/>
        <circle style="fill: rgb(174, 174, 174);" cx="322.469" cy="125.208" r="110.514" transform="matrix(0.576275, 0, 0, 0.323192, 503.812317, 75.535011)"/>
      </g>
      <circle style="fill: rgb(206, 206, 206);" cx="322.469" cy="125.208" r="110.514" transform="matrix(0.486718, 0, 0, 0.272966, 812.748901, -88.216217)"/>
    </g>
    <g transform="matrix(1, 0, 0, 1, 4600, -869.838989)">
      <g transform="matrix(1, 0, 0, 1, 667.554993, 69.140999)">
        <path d="M 390.409 113.428 C 390.409 139.914 350.461 161.385 301.182 161.385 C 251.904 161.385 211.955 139.914 211.955 113.428 C 211.955 86.942 251.904 65.471 301.182 65.471 C 350.461 65.471 390.409 86.942 390.409 113.428 Z M 375.064 140.325 C 359.016 127.616 331.914 119.266 301.182 119.266 C 270.451 119.266 243.348 127.616 227.3 140.325 C 243.348 153.035 270.451 161.385 301.182 161.385 C 331.914 161.385 359.016 153.035 375.064 140.325 Z" style="fill: rgb(105, 105, 105);"/>
        <rect x="200" y="200" width="200" height="100" style="fill: rgb(105, 105, 105);"/>
        <polygon style="fill: rgb(132, 132, 132);" points="132.711 99.753 200.181 200.167 200.181 300.698 132.923 201.866"/>
        <polygon style="fill: rgb(132, 132, 132);" points="400 300.698 467.47 200.284 467.47 99.753 400.212 198.585" transform="matrix(-1, 0, 0, -1, 867.470001, 400.451004)"/>
        <path d="M 198.748 30.859 L 399.751 30.859 L 467.724 99.666 L 400.592 200.167 L 200.001 200.167 L 132.445 100.083 Z M 301.182 65.471 C 251.904 65.471 211.955 86.942 211.955 113.428 C 211.955 139.914 251.904 161.385 301.182 161.385 C 350.461 161.385 390.409 139.914 390.409 113.428 C 390.409 86.942 350.461 65.471 301.182 65.471 Z" style="fill: rgb(174, 174, 174);"/>
      </g>
      <g transform="matrix(1, 0, 0, 1, 280.043335, -165.470993)">
        <path d="M 600 117.305 L 778.454 117.305 L 778.454 350.213 L 778.384 350.213 C 776.51 376.922 737.31 398.252 689.227 398.252 C 641.144 398.252 601.944 376.922 600.07 350.213 L 600 350.213 L 600 117.305 Z" style="fill: rgb(132, 132, 132);"/>
        <circle style="fill: rgb(206, 206, 206);" cx="322.469" cy="125.208" r="110.514" transform="matrix(0.807382, 0, 0, 0.452804, 428.871338, 60.817501)"/>
        <path d="M 778.454 209.86 C 778.454 237.497 738.506 259.901 689.227 259.901 C 639.948 259.901 600 237.497 600 209.86 C 600 207.742 600.235 205.654 600.69 203.605 C 606.179 228.289 643.725 247.391 689.227 247.391 C 734.729 247.391 772.275 228.289 777.764 203.605 C 778.219 205.654 778.454 207.742 778.454 209.86 Z" style="fill: rgb(105, 105, 105);"/>
        <path d="M 778.454 153.564 C 778.454 181.201 738.506 203.605 689.227 203.605 C 639.948 203.605 600 181.201 600 153.564 C 600 151.446 600.235 149.358 600.69 147.309 C 606.179 171.993 643.725 191.095 689.227 191.095 C 734.729 191.095 772.275 171.993 777.764 147.309 C 778.219 149.358 778.454 151.446 778.454 153.564 Z" style="fill: rgb(105, 105, 105);"/>
        <path d="M 778.454 322.452 C 778.454 350.089 738.506 372.493 689.227 372.493 C 639.948 372.493 600 350.089 600 322.452 C 600 320.334 600.235 318.246 600.69 316.197 C 606.179 340.881 643.725 359.983 689.227 359.983 C 734.729 359.983 772.275 340.881 777.764 316.197 C 778.219 318.246 778.454 320.334 778.454 322.452 Z" style="fill: rgb(105, 105, 105);"/>
        <path d="M 778.454 266.156 C 778.454 293.793 738.506 316.197 689.227 316.197 C 639.948 316.197 600 293.793 600 266.156 C 600 264.038 600.235 261.95 600.69 259.901 C 606.179 284.585 643.725 303.687 689.227 303.687 C 734.729 303.687 772.275 284.585 777.764 259.901 C 778.219 261.95 778.454 264.038 778.454 266.156 Z" style="fill: rgb(105, 105, 105);"/>
        <circle style="fill: rgb(174, 174, 174);" cx="322.469" cy="125.208" r="110.514" transform="matrix(0.576275, 0, 0, 0.323192, 503.812317, 75.535011)"/>
      </g>
      <circle style="fill: rgb(206, 206, 206);" cx="322.469" cy="125.208" r="110.514" transform="matrix(0.486718, 0, 0, 0.272966, 812.748901, -88.216217)"/>
    </g>
    <g transform="matrix(1, 0, 0, 1, 5000, -869.838989)">
      <g transform="matrix(1, 0, 0, 1, 667.554993, 69.140999)">
        <path d="M 390.409 113.428 C 390.409 139.914 350.461 161.385 301.182 161.385 C 251.904 161.385 211.955 139.914 211.955 113.428 C 211.955 86.942 251.904 65.471 301.182 65.471 C 350.461 65.471 390.409 86.942 390.409 113.428 Z M 375.064 140.325 C 359.016 127.616 331.914 119.266 301.182 119.266 C 270.451 119.266 243.348 127.616 227.3 140.325 C 243.348 153.035 270.451 161.385 301.182 161.385 C 331.914 161.385 359.016 153.035 375.064 140.325 Z" style="fill: rgb(105, 105, 105);"/>
        <rect x="200" y="200" width="200" height="100" style="fill: rgb(105, 105, 105);"/>
        <polygon style="fill: rgb(132, 132, 132);" points="132.711 99.753 200.181 200.167 200.181 300.698 132.923 201.866"/>
        <polygon style="fill: rgb(132, 132, 132);" points="400 300.698 467.47 200.284 467.47 99.753 400.212 198.585" transform="matrix(-1, 0, 0, -1, 867.470001, 400.451004)"/>
        <path d="M 198.748 30.859 L 399.751 30.859 L 467.724 99.666 L 400.592 200.167 L 200.001 200.167 L 132.445 100.083 Z M 301.182 65.471 C 251.904 65.471 211.955 86.942 211.955 113.428 C 211.955 139.914 251.904 161.385 301.182 161.385 C 350.461 161.385 390.409 139.914 390.409 113.428 C 390.409 86.942 350.461 65.471 301.182 65.471 Z" style="fill: rgb(174, 174, 174);"/>
      </g>
    </g>
    <g transform="matrix(1, 0, 0, 1, 2467.554932, -800.697998)">
      <path d="M 390.409 113.428 C 390.409 139.914 350.461 161.385 301.182 161.385 C 251.904 161.385 211.955 139.914 211.955 113.428 C 211.955 86.942 251.904 65.471 301.182 65.471 C 350.461 65.471 390.409 86.942 390.409 113.428 Z M 375.064 140.325 C 359.016 127.616 331.914 119.266 301.182 119.266 C 270.451 119.266 243.348 127.616 227.3 140.325 C 243.348 153.035 270.451 161.385 301.182 161.385 C 331.914 161.385 359.016 153.035 375.064 140.325 Z" style="fill: rgb(105, 105, 105);"/>
      <rect x="200" y="200" width="200" height="100" style="fill: rgb(105, 105, 105);"/>
      <polygon style="fill: rgb(132, 132, 132);" points="132.711 99.753 200.181 200.167 200.181 300.698 132.923 201.866"/>
      <polygon style="fill: rgb(132, 132, 132);" points="400 300.698 467.47 200.284 467.47 99.753 400.212 198.585" transform="matrix(-1, 0, 0, -1, 867.470001, 400.451004)"/>
      <path d="M 198.748 30.859 L 399.751 30.859 L 467.724 99.666 L 400.592 200.167 L 200.001 200.167 L 132.445 100.083 Z M 301.182 65.471 C 251.904 65.471 211.955 86.942 211.955 113.428 C 211.955 139.914 251.904 161.385 301.182 161.385 C 350.461 161.385 390.409 139.914 390.409 113.428 C 390.409 86.942 350.461 65.471 301.182 65.471 Z" style="fill: rgb(174, 174, 174);"/>
    </g>
    <g transform="matrix(1, 0, 0, 1, 3400, -869.838989)">
      <g transform="matrix(1, 0, 0, 1, 667.554993, 69.140999)">
        <path d="M 390.409 113.428 C 390.409 139.914 350.461 161.385 301.182 161.385 C 251.904 161.385 211.955 139.914 211.955 113.428 C 211.955 86.942 251.904 65.471 301.182 65.471 C 350.461 65.471 390.409 86.942 390.409 113.428 Z M 375.064 140.325 C 359.016 127.616 331.914 119.266 301.182 119.266 C 270.451 119.266 243.348 127.616 227.3 140.325 C 243.348 153.035 270.451 161.385 301.182 161.385 C 331.914 161.385 359.016 153.035 375.064 140.325 Z" style="fill: rgb(105, 105, 105);"/>
        <rect x="200" y="200" width="200" height="100" style="fill: rgb(105, 105, 105);"/>
        <polygon style="fill: rgb(132, 132, 132);" points="132.711 99.753 200.181 200.167 200.181 300.698 132.923 201.866"/>
        <polygon style="fill: rgb(132, 132, 132);" points="400 300.698 467.47 200.284 467.47 99.753 400.212 198.585" transform="matrix(-1, 0, 0, -1, 867.470001, 400.451004)"/>
        <path d="M 198.748 30.859 L 399.751 30.859 L 467.724 99.666 L 400.592 200.167 L 200.001 200.167 L 132.445 100.083 Z M 301.182 65.471 C 251.904 65.471 211.955 86.942 211.955 113.428 C 211.955 139.914 251.904 161.385 301.182 161.385 C 350.461 161.385 390.409 139.914 390.409 113.428 C 390.409 86.942 350.461 65.471 301.182 65.471 Z" style="fill: rgb(174, 174, 174);"/>
      </g>
      <g transform="matrix(1, 0, 0, 1, 280.043335, -165.470993)">
        <path d="M 600 117.305 L 778.454 117.305 L 778.454 350.213 L 778.384 350.213 C 776.51 376.922 737.31 398.252 689.227 398.252 C 641.144 398.252 601.944 376.922 600.07 350.213 L 600 350.213 L 600 117.305 Z" style="fill: rgb(132, 132, 132);"/>
        <circle style="fill: rgb(206, 206, 206);" cx="322.469" cy="125.208" r="110.514" transform="matrix(0.807382, 0, 0, 0.452804, 428.871338, 60.817501)"/>
        <path d="M 778.454 209.86 C 778.454 237.497 738.506 259.901 689.227 259.901 C 639.948 259.901 600 237.497 600 209.86 C 600 207.742 600.235 205.654 600.69 203.605 C 606.179 228.289 643.725 247.391 689.227 247.391 C 734.729 247.391 772.275 228.289 777.764 203.605 C 778.219 205.654 778.454 207.742 778.454 209.86 Z" style="fill: rgb(105, 105, 105);"/>
        <path d="M 778.454 153.564 C 778.454 181.201 738.506 203.605 689.227 203.605 C 639.948 203.605 600 181.201 600 153.564 C 600 151.446 600.235 149.358 600.69 147.309 C 606.179 171.993 643.725 191.095 689.227 191.095 C 734.729 191.095 772.275 171.993 777.764 147.309 C 778.219 149.358 778.454 151.446 778.454 153.564 Z" style="fill: rgb(105, 105, 105);"/>
        <path d="M 778.454 322.452 C 778.454 350.089 738.506 372.493 689.227 372.493 C 639.948 372.493 600 350.089 600 322.452 C 600 320.334 600.235 318.246 600.69 316.197 C 606.179 340.881 643.725 359.983 689.227 359.983 C 734.729 359.983 772.275 340.881 777.764 316.197 C 778.219 318.246 778.454 320.334 778.454 322.452 Z" style="fill: rgb(105, 105, 105);"/>
        <path d="M 778.454 266.156 C 778.454 293.793 738.506 316.197 689.227 316.197 C 639.948 316.197 600 293.793 600 266.156 C 600 264.038 600.235 261.95 600.69 259.901 C 606.179 284.585 643.725 303.687 689.227 303.687 C 734.729 303.687 772.275 284.585 777.764 259.901 C 778.219 261.95 778.454 264.038 778.454 266.156 Z" style="fill: rgb(105, 105, 105);"/>
        <circle style="fill: rgb(174, 174, 174);" cx="322.469" cy="125.208" r="110.514" transform="matrix(0.576275, 0, 0, 0.323192, 503.812317, 75.535011)"/>
      </g>
      <circle style="fill: rgb(206, 206, 206);" cx="322.469" cy="125.208" r="110.514" transform="matrix(0.486718, 0, 0, 0.272966, 812.748901, -88.216217)"/>
    </g>
    <g transform="matrix(1, 0, 0, 1, 3800, -869.838989)">
      <g transform="matrix(1, 0, 0, 1, 667.554993, 69.140999)">
        <path d="M 390.409 113.428 C 390.409 139.914 350.461 161.385 301.182 161.385 C 251.904 161.385 211.955 139.914 211.955 113.428 C 211.955 86.942 251.904 65.471 301.182 65.471 C 350.461 65.471 390.409 86.942 390.409 113.428 Z M 375.064 140.325 C 359.016 127.616 331.914 119.266 301.182 119.266 C 270.451 119.266 243.348 127.616 227.3 140.325 C 243.348 153.035 270.451 161.385 301.182 161.385 C 331.914 161.385 359.016 153.035 375.064 140.325 Z" style="fill: rgb(105, 105, 105);"/>
        <rect x="200" y="200" width="200" height="100" style="fill: rgb(105, 105, 105);"/>
        <polygon style="fill: rgb(132, 132, 132);" points="132.711 99.753 200.181 200.167 200.181 300.698 132.923 201.866"/>
        <polygon style="fill: rgb(132, 132, 132);" points="400 300.698 467.47 200.284 467.47 99.753 400.212 198.585" transform="matrix(-1, 0, 0, -1, 867.470001, 400.451004)"/>
        <path d="M 198.748 30.859 L 399.751 30.859 L 467.724 99.666 L 400.592 200.167 L 200.001 200.167 L 132.445 100.083 Z M 301.182 65.471 C 251.904 65.471 211.955 86.942 211.955 113.428 C 211.955 139.914 251.904 161.385 301.182 161.385 C 350.461 161.385 390.409 139.914 390.409 113.428 C 390.409 86.942 350.461 65.471 301.182 65.471 Z" style="fill: rgb(174, 174, 174);"/>
      </g>
      <g transform="matrix(1, 0, 0, 1, 280.043335, -165.470993)">
        <path d="M 600 117.305 L 778.454 117.305 L 778.454 350.213 L 778.384 350.213 C 776.51 376.922 737.31 398.252 689.227 398.252 C 641.144 398.252 601.944 376.922 600.07 350.213 L 600 350.213 L 600 117.305 Z" style="fill: rgb(132, 132, 132);"/>
        <circle style="fill: rgb(206, 206, 206);" cx="322.469" cy="125.208" r="110.514" transform="matrix(0.807382, 0, 0, 0.452804, 428.871338, 60.817501)"/>
        <path d="M 778.454 209.86 C 778.454 237.497 738.506 259.901 689.227 259.901 C 639.948 259.901 600 237.497 600 209.86 C 600 207.742 600.235 205.654 600.69 203.605 C 606.179 228.289 643.725 247.391 689.227 247.391 C 734.729 247.391 772.275 228.289 777.764 203.605 C 778.219 205.654 778.454 207.742 778.454 209.86 Z" style="fill: rgb(105, 105, 105);"/>
        <path d="M 778.454 153.564 C 778.454 181.201 738.506 203.605 689.227 203.605 C 639.948 203.605 600 181.201 600 153.564 C 600 151.446 600.235 149.358 600.69 147.309 C 606.179 171.993 643.725 191.095 689.227 191.095 C 734.729 191.095 772.275 171.993 777.764 147.309 C 778.219 149.358 778.454 151.446 778.454 153.564 Z" style="fill: rgb(105, 105, 105);"/>
        <path d="M 778.454 322.452 C 778.454 350.089 738.506 372.493 689.227 372.493 C 639.948 372.493 600 350.089 600 322.452 C 600 320.334 600.235 318.246 600.69 316.197 C 606.179 340.881 643.725 359.983 689.227 359.983 C 734.729 359.983 772.275 340.881 777.764 316.197 C 778.219 318.246 778.454 320.334 778.454 322.452 Z" style="fill: rgb(105, 105, 105);"/>
        <path d="M 778.454 266.156 C 778.454 293.793 738.506 316.197 689.227 316.197 C 639.948 316.197 600 293.793 600 266.156 C 600 264.038 600.235 261.95 600.69 259.901 C 606.179 284.585 643.725 303.687 689.227 303.687 C 734.729 303.687 772.275 284.585 777.764 259.901 C 778.219 261.95 778.454 264.038 778.454 266.156 Z" style="fill: rgb(105, 105, 105);"/>
        <circle style="fill: rgb(174, 174, 174);" cx="322.469" cy="125.208" r="110.514" transform="matrix(0.576275, 0, 0, 0.323192, 503.812317, 75.535011)"/>
      </g>
      <circle style="fill: rgb(206, 206, 206);" cx="322.469" cy="125.208" r="110.514" transform="matrix(0.486718, 0, 0, 0.272966, 812.748901, -88.216217)"/>
    </g>
  </g>
</svg>