<svg xmlns:xlink="http://www.w3.org/1999/xlink" xmlns="http://www.w3.org/2000/svg" viewBox="-1200 300 4400 1600" width="4400" height="1600">
  <rect x="400" y="1600" width="2800" height="300" style="fill: rgb(218, 183, 183);"/>
  <g style="" transform="matrix(6.656103, 0, 0, 6.656103, -5972.540616, 1190.79262)">
    <g transform="matrix(1.205319, 0, 0, 1.205319, 685.241638, -154.960617)" style="">
      <rect x="-9.867" y="-24.351" width="25.061" height="52.032" style="fill: rgb(123, 86, 57);" rx="12.531" ry="12.531" transform="matrix(-0.794539, -0.607213, -0.607213, 0.794539, 357.966709, 102.396372)"/>
      <g transform="matrix(1, 0, 0, 1, 108.351974, -93.933243)"/>
      <rect x="9.867" y="24.351" width="25.061" height="52.032" style="fill: rgb(123, 86, 57);" rx="12.531" ry="12.531" transform="matrix(0.511631, -0.859205, -0.859205, -0.511631, 364.127751, 150.247709)"/>
      <g id="ignore0" style="" transform="matrix(-1, 0, 0, 1, 1180.592285, 200.000244)">
        <g>
          <g transform="matrix(0.274864, 0, 0, 0.274864, 110.581375, 170.434875)" style=""/>
          <g transform="matrix(0.233878, 0, 0, 0.233878, 374.135071, 202.003754)" style="">
            <g/>
          </g>
        </g>
        <g>
          <g transform="matrix(0.251509, 0, 0, 0.251509, 604.773376, 188.423294)" style="">
            <rect x="155.631" y="707.181" width="343.055" height="262.336" style="fill: rgb(49, 48, 49);" transform="matrix(0.104732, -0.9945, 0.9945, 0.104732, 514.976135, -917.107605)" rx="89.288" ry="89.288"/>
            <rect x="165.61" y="651.935" width="365.037" height="241.843" style="fill: rgb(49, 48, 49);" rx="120.922" ry="120.922" transform="matrix(0.774873, -0.632118, 0.632118, 0.774873, 564.211243, -1375.544556)"/>
            <circle style="fill: rgb(123, 86, 57);" cx="342.482" cy="605.482" r="105.482" transform="matrix(0.997365, 0.00512, -0.005888, 1.146951, 707.972351, -1605.945557)"/>
            <rect x="865.651" y="-834.34" width="234.536" height="85.169" style="fill: rgb(123, 86, 57);" rx="37.128" ry="37.128" transform="matrix(0.999987, 0.005134, -0.005134, 0.999987, 10.90369, -5.659342)"/>
            <rect x="1003.498" y="-1241.473" width="261.869" height="428.845" style="fill: rgb(107, 65, 34);" rx="86.004" ry="86.004" transform="matrix(0.988079, -0.153947, 0.153947, 0.988079, 182.654251, 158.369629)"/>
            <circle style="fill: rgb(123, 86, 57);" cx="342.482" cy="605.482" r="105.482" transform="matrix(-0.996549, -0.040603, -0.046694, 1.146013, 1632.222046, -1586.074463)"/>
            <rect x="-1.763" y="150.443" width="73.073" height="98.034" style="fill: rgb(107, 65, 34);" rx="86.004" ry="86.004" transform="matrix(-0.153947, -0.988079, 0.988079, -0.153947, 893.766724, -1168.233521)"/>
            <rect x="-1331.192" y="-834.341" width="234.536" height="85.169" style="fill: rgb(123, 86, 57);" rx="37.128" ry="37.128" transform="matrix(-0.978382, 0.206806, 0.206806, 0.978382, 214.957908, 253.451477)"/>
            <g transform="matrix(0.988079, -0.153947, 0.153947, 0.988079, 946.526062, -1498.372559)">
              <path d="M -4.061 136.221 L 0.958 136.221 C 1.971 120.887 14.728 108.762 30.318 108.762 L 41.476 108.762 C 39.5 89.215 38.352 66.9 55.16 51.049 C 73.163 34.139 91.762 43.843 88.578 69.046 C 85.99 89.586 72.968 100.788 59.854 108.762 L 175.406 108.762 C 179.302 108.762 183.018 109.519 186.422 110.893 C 190.88 92.264 197.103 71.569 217.823 63.299 C 240.189 54.418 254.515 70.3 243.367 92.354 C 233.108 112.673 214.188 117.015 197.79 119.091 C 202.178 124.232 204.826 130.896 204.826 138.182 L 204.826 257.824 C 204.826 274.072 191.652 287.245 175.406 287.245 L -4.061 287.245 C -20.309 287.245 -33.482 274.072 -33.482 257.824 L -33.482 165.642 C -33.482 149.394 -20.309 136.221 -4.061 136.221 Z" style="fill: rgb(123, 86, 57);"/>
              <polygon style="fill: rgb(232, 230, 196);" points="14.573 220.561 -32.078 257.8 0.843 310.588 35.223 310.588 66.549 257.353"/>
              <line style="fill: none; stroke-width: 3.04621px; stroke: rgb(151, 149, 126); stroke-linecap: round; stroke-linejoin: round;" x1="14.573" y1="221.539" x2="14.573" y2="311.431"/>
              <path d="M 158.737 160.737 C 158.737 171.569 149.951 180.355 139.12 180.355 C 128.288 180.355 119.508 171.569 119.508 160.737 C 119.508 149.906 128.288 141.125 139.12 141.125 C 149.951 141.125 158.737 149.906 158.737 160.737 Z" style=""/>
              <path d="M 29.546 214.027 C 19.563 226.303 9.578 226.303 -0.401 214.027 L -34.716 171.83 C -44.7 159.559 -39.71 153.421 -19.747 153.421 L 48.888 153.421 C 68.85 153.421 73.845 159.559 63.861 171.83 L 29.546 214.027 Z" style=""/>
              <circle style="fill: rgb(255, 255, 255);" cx="148.929" cy="150.929" r="9.808"/>
              <circle style="stroke-linejoin: round; stroke-linecap: round; fill: rgb(123, 86, 57);" cx="143.127" cy="222.203" r="51.593"/>
              <path style="fill: none; stroke-linejoin: round; stroke-linecap: round; stroke: rgb(0, 0, 0); stroke-width: 11.928px;" d="M 114.664 100.629 C 136.909 100.629 154.485 119.504 152.91 141.689" transform="matrix(0.707107, -0.707107, 0.707107, 0.707107, -46.472665, 130.123055)"/>
            </g>
            <rect x="242.922" y="-685.057" width="169.382" height="85.169" style="fill: rgb(123, 86, 57);" transform="matrix(0.040712, -0.999171, -0.999171, -0.040712, 671.819982, -534.520615)" rx="42.584" ry="42.584"/>
          </g>
          <g transform="matrix(0.251509, 0, 0, 0.251509, 825.751099, 189.564194)" style=""/>
        </g>
        <g/>
      </g>
    </g>
    <rect x="11.893" y="29.351" width="30.207" height="62.715" style="fill: rgb(123, 86, 57);" rx="15.104" ry="15.104" transform="matrix(-0.829404, 0.55865, 0.55865, 0.829404, 1009.03754, -94.998469)"/>
    <rect x="-11.893" y="-29.351" width="30.206" height="62.715" style="fill: rgb(123, 86, 57);" rx="15.103" ry="15.103" transform="matrix(0.301348, 0.953514, 0.953514, -0.301348, 1046.63354, -15.958078)"/>
  </g>
  <g style="" transform="matrix(1, 0, 0, 1, -400.000006, -300.000004)">
    <circle style="fill: rgb(206, 57, 57);" cx="1004.377" cy="1596.314" r="394.871" transform="matrix(0.759742, 0, 0, 0.317912, 536.932678, 1149.207764)"/>
    <circle style="fill: rgb(98, 21, 21);" cx="1004.377" cy="1596.314" r="394.871" transform="matrix(0.725721, 0, 0, 0.303676, 571.102234, 1171.932617)"/>
    <g transform="matrix(1, 0, 0, 1, 906.12146, 1548.211304)">
      <path d="M 390.409 113.428 C 390.409 139.914 350.461 161.385 301.182 161.385 C 251.904 161.385 211.955 139.914 211.955 113.428 C 211.955 86.942 251.904 65.471 301.182 65.471 C 350.461 65.471 390.409 86.942 390.409 113.428 Z M 375.064 140.325 C 359.016 127.616 331.914 119.266 301.182 119.266 C 270.451 119.266 243.348 127.616 227.3 140.325 C 243.348 153.035 270.451 161.385 301.182 161.385 C 331.914 161.385 359.016 153.035 375.064 140.325 Z" style="fill: rgb(105, 105, 105);"/>
      <rect x="200" y="200" width="200" height="100" style="fill: rgb(105, 105, 105);"/>
      <polygon style="fill: rgb(132, 132, 132);" points="132.711 99.753 200.181 200.167 200.181 300.698 132.923 201.866"/>
      <polygon style="fill: rgb(132, 132, 132);" points="400 300.698 467.47 200.284 467.47 99.753 400.212 198.585" transform="matrix(-1, 0, 0, -1, 867.470001, 400.451004)"/>
      <path d="M 198.748 30.859 L 399.751 30.859 L 467.724 99.666 L 400.592 200.167 L 200.001 200.167 L 132.445 100.083 Z M 301.182 65.471 C 251.904 65.471 211.955 86.942 211.955 113.428 C 211.955 139.914 251.904 161.385 301.182 161.385 C 350.461 161.385 390.409 139.914 390.409 113.428 C 390.409 86.942 350.461 65.471 301.182 65.471 Z" style="fill: rgb(174, 174, 174);"/>
    </g>
    <g transform="matrix(0.912359, 0.409392, -0.409392, 0.912359, 1202.265869, 1360.002808)">
      <rect x="200" y="200" width="200" height="100" style="fill: rgb(105, 105, 105);"/>
      <polygon style="fill: rgb(132, 132, 132);" points="400 300.698 467.47 200.284 467.47 99.753 400.212 198.585" transform="matrix(-1, 0, 0, -1, 867.470001, 400.451004)"/>
    </g>
    <path d="M 1000 1666.417 L 1001.079 1666.417 C 1014.079 1730.729 1142.946 1781.229 1300 1781.229 C 1457.055 1781.229 1585.921 1730.729 1598.921 1666.417 L 1600 1666.417 L 1600 2162.031 L 1598.547 2162.031 C 1599.508 2166.122 1600 2170.27 1600 2174.466 C 1600 2243.796 1465.686 2300 1300 2300 C 1134.315 2300 1000 2243.796 1000 2174.466 C 1000 2170.27 1000.492 2166.122 1001.453 2162.031 L 1000 2162.031 Z" style="fill: rgb(208, 98, 98);"/>
    <path d="M 1000 2040.587 L 1001.079 2040.587 C 1014.079 2104.899 1142.946 2155.399 1300 2155.399 C 1457.055 2155.399 1585.921 2104.899 1598.921 2040.587 L 1600 2040.587 L 1600 2062.031 L 1598.547 2062.031 C 1599.508 2066.122 1600 2070.27 1600 2074.466 C 1600 2143.796 1465.686 2200 1300 2200 C 1134.315 2200 1000 2143.796 1000 2074.466 C 1000 2070.27 1000.492 2066.122 1001.453 2062.031 L 1000 2062.031 L 1000 2040.587 Z" style="fill: rgb(191, 64, 64);"/>
    <path d="M 1000 1740.587 L 1001.079 1740.587 C 1014.079 1804.899 1142.946 1855.399 1300 1855.399 C 1457.055 1855.399 1585.921 1804.899 1598.921 1740.587 L 1600 1740.587 L 1600 1762.031 L 1598.547 1762.031 C 1599.508 1766.122 1600 1770.27 1600 1774.466 C 1600 1843.796 1465.686 1900 1300 1900 C 1134.315 1900 1000 1843.796 1000 1774.466 C 1000 1770.27 1000.492 1766.122 1001.453 1762.031 L 1000 1762.031 L 1000 1740.587 Z" style="fill: rgb(191, 64, 64);"/>
    <path d="M 1600 1656.695 C 1600 1726.026 1465.686 1782.229 1300 1782.229 C 1134.315 1782.229 1000 1726.026 1000 1656.695 C 1000 1587.365 1134.315 1531.161 1300 1531.161 C 1465.686 1531.161 1600 1587.365 1600 1656.695 Z M 1300 1536.782 C 1141.734 1536.782 1013.434 1590.469 1013.434 1656.695 C 1013.434 1722.921 1141.734 1776.608 1300 1776.608 C 1458.266 1776.608 1586.566 1722.921 1586.566 1656.695 C 1586.566 1590.469 1458.266 1536.782 1300 1536.782 Z" style="fill: rgb(206, 57, 57);"/>
    <polygon style="fill: rgb(132, 132, 132);" points="1238.419 1510.35 1305.889 1610.765 1305.889 1711.296 1238.631 1612.464" transform="matrix(0.912359, 0.409392, -0.409392, 0.912359, 770.951085, -379.634777)"/>
    <path d="M 1519.842 1586.792 C 1519.842 1613.278 1479.894 1634.749 1430.615 1634.749 C 1381.337 1634.749 1341.388 1613.278 1341.388 1586.792 C 1341.388 1560.306 1381.337 1538.835 1430.615 1538.835 C 1479.894 1538.835 1519.842 1560.306 1519.842 1586.792 Z M 1504.497 1613.689 C 1488.449 1600.98 1461.347 1592.63 1430.615 1592.63 C 1399.884 1592.63 1372.781 1600.98 1356.733 1613.689 C 1372.781 1626.399 1399.884 1634.749 1430.615 1634.749 C 1461.347 1634.749 1488.449 1626.399 1504.497 1613.689 Z" style="fill: rgb(105, 105, 105);" transform="matrix(0.912359, 0.409392, -0.409392, 0.912359, 775.000722, -446.613528)"/>
    <path d="M 1327.424 1503.591 L 1528.427 1503.591 L 1596.4 1572.398 L 1529.268 1672.899 L 1328.677 1672.899 L 1261.121 1572.815 Z M 1429.858 1538.203 C 1380.58 1538.203 1340.631 1559.674 1340.631 1586.16 C 1340.631 1612.646 1380.58 1634.117 1429.858 1634.117 C 1479.137 1634.117 1519.085 1612.646 1519.085 1586.16 C 1519.085 1559.674 1479.137 1538.203 1429.858 1538.203 Z" style="fill: rgb(174, 174, 174);" transform="matrix(0.912359, 0.409392, -0.409392, 0.912359, 775.43304, -445.726971)"/>
  </g>
  <polygon style="fill: rgb(78, 78, 78);" points="1479.934 1166.97 1336.97 1453.21 3200 1448.211 3200 1165.381"/>
  <rect x="1446.944" y="1400" width="1753.056" height="300" style="fill: rgb(47, 47, 47);"/>
  <circle style="fill: rgb(47, 47, 47);" cx="1450" cy="1550" r="150"/>
  <rect x="1446.944" y="1500" width="1753.056" height="100" style=""/>
  <circle style="fill: rgb(88, 88, 88);" cx="1450" cy="1550" r="50"/>
  <circle style="fill: rgb(88, 88, 88);" cx="2150" cy="1550" r="50"/>
  <circle style="fill: rgb(88, 88, 88);" cx="2850" cy="1550" r="50"/>
  <g transform="matrix(1, 0, 0, 1, 1327.554951, 1059.141007)">
    <path d="M 390.409 113.428 C 390.409 139.914 350.461 161.385 301.182 161.385 C 251.904 161.385 211.955 139.914 211.955 113.428 C 211.955 86.942 251.904 65.471 301.182 65.471 C 350.461 65.471 390.409 86.942 390.409 113.428 Z M 375.064 140.325 C 359.016 127.616 331.914 119.266 301.182 119.266 C 270.451 119.266 243.348 127.616 227.3 140.325 C 243.348 153.035 270.451 161.385 301.182 161.385 C 331.914 161.385 359.016 153.035 375.064 140.325 Z" style="fill: rgb(105, 105, 105);"/>
    <rect x="200" y="200" width="200" height="100" style="fill: rgb(105, 105, 105);"/>
    <polygon style="fill: rgb(132, 132, 132);" points="132.711 99.753 200.181 200.167 200.181 300.698 132.923 201.866"/>
    <polygon style="fill: rgb(132, 132, 132);" points="400 300.698 467.47 200.284 467.47 99.753 400.212 198.585" transform="matrix(-1, 0, 0, -1, 867.470001, 400.451004)"/>
    <path d="M 198.748 30.859 L 399.751 30.859 L 467.724 99.666 L 400.592 200.167 L 200.001 200.167 L 132.445 100.083 Z M 301.182 65.471 C 251.904 65.471 211.955 86.942 211.955 113.428 C 211.955 139.914 251.904 161.385 301.182 161.385 C 350.461 161.385 390.409 139.914 390.409 113.428 C 390.409 86.942 350.461 65.471 301.182 65.471 Z" style="fill: rgb(174, 174, 174);"/>
  </g>
  <g transform="matrix(1, 0, 0, 1, 1100.000016, 988.000015)">
    <g transform="matrix(1, 0, 0, 1, 667.554993, 69.140999)">
      <path d="M 390.409 113.428 C 390.409 139.914 350.461 161.385 301.182 161.385 C 251.904 161.385 211.955 139.914 211.955 113.428 C 211.955 86.942 251.904 65.471 301.182 65.471 C 350.461 65.471 390.409 86.942 390.409 113.428 Z M 375.064 140.325 C 359.016 127.616 331.914 119.266 301.182 119.266 C 270.451 119.266 243.348 127.616 227.3 140.325 C 243.348 153.035 270.451 161.385 301.182 161.385 C 331.914 161.385 359.016 153.035 375.064 140.325 Z" style="fill: rgb(105, 105, 105);"/>
      <rect x="200" y="200" width="200" height="100" style="fill: rgb(105, 105, 105);"/>
      <polygon style="fill: rgb(132, 132, 132);" points="132.711 99.753 200.181 200.167 200.181 300.698 132.923 201.866"/>
      <polygon style="fill: rgb(132, 132, 132);" points="400 300.698 467.47 200.284 467.47 99.753 400.212 198.585" transform="matrix(-1, 0, 0, -1, 867.470001, 400.451004)"/>
      <path d="M 198.748 30.859 L 399.751 30.859 L 467.724 99.666 L 400.592 200.167 L 200.001 200.167 L 132.445 100.083 Z M 301.182 65.471 C 251.904 65.471 211.955 86.942 211.955 113.428 C 211.955 139.914 251.904 161.385 301.182 161.385 C 350.461 161.385 390.409 139.914 390.409 113.428 C 390.409 86.942 350.461 65.471 301.182 65.471 Z" style="fill: rgb(174, 174, 174);"/>
    </g>
    <g transform="matrix(1, 0, 0, 1, 280.043335, -165.470993)">
      <path d="M 600 117.305 L 778.454 117.305 L 778.454 350.213 L 778.384 350.213 C 776.51 376.922 737.31 398.252 689.227 398.252 C 641.144 398.252 601.944 376.922 600.07 350.213 L 600 350.213 L 600 117.305 Z" style="fill: rgb(132, 132, 132);"/>
      <circle style="fill: rgb(206, 206, 206);" cx="322.469" cy="125.208" r="110.514" transform="matrix(0.807382, 0, 0, 0.452804, 428.871338, 60.817501)"/>
      <path d="M 778.454 209.86 C 778.454 237.497 738.506 259.901 689.227 259.901 C 639.948 259.901 600 237.497 600 209.86 C 600 207.742 600.235 205.654 600.69 203.605 C 606.179 228.289 643.725 247.391 689.227 247.391 C 734.729 247.391 772.275 228.289 777.764 203.605 C 778.219 205.654 778.454 207.742 778.454 209.86 Z" style="fill: rgb(105, 105, 105);"/>
      <path d="M 778.454 153.564 C 778.454 181.201 738.506 203.605 689.227 203.605 C 639.948 203.605 600 181.201 600 153.564 C 600 151.446 600.235 149.358 600.69 147.309 C 606.179 171.993 643.725 191.095 689.227 191.095 C 734.729 191.095 772.275 171.993 777.764 147.309 C 778.219 149.358 778.454 151.446 778.454 153.564 Z" style="fill: rgb(105, 105, 105);"/>
      <path d="M 778.454 322.452 C 778.454 350.089 738.506 372.493 689.227 372.493 C 639.948 372.493 600 350.089 600 322.452 C 600 320.334 600.235 318.246 600.69 316.197 C 606.179 340.881 643.725 359.983 689.227 359.983 C 734.729 359.983 772.275 340.881 777.764 316.197 C 778.219 318.246 778.454 320.334 778.454 322.452 Z" style="fill: rgb(105, 105, 105);"/>
      <path d="M 778.454 266.156 C 778.454 293.793 738.506 316.197 689.227 316.197 C 639.948 316.197 600 293.793 600 266.156 C 600 264.038 600.235 261.95 600.69 259.901 C 606.179 284.585 643.725 303.687 689.227 303.687 C 734.729 303.687 772.275 284.585 777.764 259.901 C 778.219 261.95 778.454 264.038 778.454 266.156 Z" style="fill: rgb(105, 105, 105);"/>
      <circle style="fill: rgb(174, 174, 174);" cx="322.469" cy="125.208" r="110.514" transform="matrix(0.576275, 0, 0, 0.323192, 503.812317, 75.535011)"/>
    </g>
    <circle style="fill: rgb(206, 206, 206);" cx="322.469" cy="125.208" r="110.514" transform="matrix(0.486718, 0, 0, 0.272966, 812.748901, -88.216217)"/>
  </g>
  <g transform="matrix(1, 0, 0, 1, 1544.72097, 988.000015)">
    <g transform="matrix(1, 0, 0, 1, 667.554993, 69.140999)">
      <path d="M 390.409 113.428 C 390.409 139.914 350.461 161.385 301.182 161.385 C 251.904 161.385 211.955 139.914 211.955 113.428 C 211.955 86.942 251.904 65.471 301.182 65.471 C 350.461 65.471 390.409 86.942 390.409 113.428 Z M 375.064 140.325 C 359.016 127.616 331.914 119.266 301.182 119.266 C 270.451 119.266 243.348 127.616 227.3 140.325 C 243.348 153.035 270.451 161.385 301.182 161.385 C 331.914 161.385 359.016 153.035 375.064 140.325 Z" style="fill: rgb(105, 105, 105);"/>
      <rect x="200" y="200" width="200" height="100" style="fill: rgb(105, 105, 105);"/>
      <polygon style="fill: rgb(132, 132, 132);" points="132.711 99.753 200.181 200.167 200.181 300.698 132.923 201.866"/>
      <polygon style="fill: rgb(132, 132, 132);" points="400 300.698 467.47 200.284 467.47 99.753 400.212 198.585" transform="matrix(-1, 0, 0, -1, 867.470001, 400.451004)"/>
      <path d="M 198.748 30.859 L 399.751 30.859 L 467.724 99.666 L 400.592 200.167 L 200.001 200.167 L 132.445 100.083 Z M 301.182 65.471 C 251.904 65.471 211.955 86.942 211.955 113.428 C 211.955 139.914 251.904 161.385 301.182 161.385 C 350.461 161.385 390.409 139.914 390.409 113.428 C 390.409 86.942 350.461 65.471 301.182 65.471 Z" style="fill: rgb(174, 174, 174);"/>
    </g>
    <g transform="matrix(1, 0, 0, 1, 280.043335, -165.470993)">
      <path d="M 600 117.305 L 778.454 117.305 L 778.454 350.213 L 778.384 350.213 C 776.51 376.922 737.31 398.252 689.227 398.252 C 641.144 398.252 601.944 376.922 600.07 350.213 L 600 350.213 L 600 117.305 Z" style="fill: rgb(132, 132, 132);"/>
      <circle style="fill: rgb(206, 206, 206);" cx="322.469" cy="125.208" r="110.514" transform="matrix(0.807382, 0, 0, 0.452804, 428.871338, 60.817501)"/>
      <path d="M 778.454 209.86 C 778.454 237.497 738.506 259.901 689.227 259.901 C 639.948 259.901 600 237.497 600 209.86 C 600 207.742 600.235 205.654 600.69 203.605 C 606.179 228.289 643.725 247.391 689.227 247.391 C 734.729 247.391 772.275 228.289 777.764 203.605 C 778.219 205.654 778.454 207.742 778.454 209.86 Z" style="fill: rgb(105, 105, 105);"/>
      <path d="M 778.454 153.564 C 778.454 181.201 738.506 203.605 689.227 203.605 C 639.948 203.605 600 181.201 600 153.564 C 600 151.446 600.235 149.358 600.69 147.309 C 606.179 171.993 643.725 191.095 689.227 191.095 C 734.729 191.095 772.275 171.993 777.764 147.309 C 778.219 149.358 778.454 151.446 778.454 153.564 Z" style="fill: rgb(105, 105, 105);"/>
      <path d="M 778.454 322.452 C 778.454 350.089 738.506 372.493 689.227 372.493 C 639.948 372.493 600 350.089 600 322.452 C 600 320.334 600.235 318.246 600.69 316.197 C 606.179 340.881 643.725 359.983 689.227 359.983 C 734.729 359.983 772.275 340.881 777.764 316.197 C 778.219 318.246 778.454 320.334 778.454 322.452 Z" style="fill: rgb(105, 105, 105);"/>
      <path d="M 778.454 266.156 C 778.454 293.793 738.506 316.197 689.227 316.197 C 639.948 316.197 600 293.793 600 266.156 C 600 264.038 600.235 261.95 600.69 259.901 C 606.179 284.585 643.725 303.687 689.227 303.687 C 734.729 303.687 772.275 284.585 777.764 259.901 C 778.219 261.95 778.454 264.038 778.454 266.156 Z" style="fill: rgb(105, 105, 105);"/>
      <circle style="fill: rgb(174, 174, 174);" cx="322.469" cy="125.208" r="110.514" transform="matrix(0.576275, 0, 0, 0.323192, 503.812317, 75.535011)"/>
    </g>
    <circle style="fill: rgb(206, 206, 206);" cx="322.469" cy="125.208" r="110.514" transform="matrix(0.486718, 0, 0, 0.272966, 812.748901, -88.216217)"/>
  </g>
  <g transform="matrix(1, 0, 0, 1, 2647.554971, 1059.141007)">
    <path d="M 390.409 113.428 C 390.409 139.914 350.461 161.385 301.182 161.385 C 251.904 161.385 211.955 139.914 211.955 113.428 C 211.955 86.942 251.904 65.471 301.182 65.471 C 350.461 65.471 390.409 86.942 390.409 113.428 Z M 375.064 140.325 C 359.016 127.616 331.914 119.266 301.182 119.266 C 270.451 119.266 243.348 127.616 227.3 140.325 C 243.348 153.035 270.451 161.385 301.182 161.385 C 331.914 161.385 359.016 153.035 375.064 140.325 Z" style="fill: rgb(105, 105, 105);"/>
    <rect x="200" y="200" width="200" height="100" style="fill: rgb(105, 105, 105);"/>
    <polygon style="fill: rgb(132, 132, 132);" points="132.711 99.753 200.181 200.167 200.181 300.698 132.923 201.866"/>
    <polygon style="fill: rgb(132, 132, 132);" points="400 300.698 467.47 200.284 467.47 99.753 400.212 198.585" transform="matrix(-1, 0, 0, -1, 867.470001, 400.451004)"/>
    <path d="M 198.748 30.859 L 399.751 30.859 L 467.724 99.666 L 400.592 200.167 L 200.001 200.167 L 132.445 100.083 Z M 301.182 65.471 C 251.904 65.471 211.955 86.942 211.955 113.428 C 211.955 139.914 251.904 161.385 301.182 161.385 C 350.461 161.385 390.409 139.914 390.409 113.428 C 390.409 86.942 350.461 65.471 301.182 65.471 Z" style="fill: rgb(174, 174, 174);"/>
  </g>
  <rect x="-1200" y="1453.21" width="1600" height="446.79" style="fill: rgb(143, 122, 100);"/>
  <polygon style="fill: rgb(179, 161, 142);" points="-1320.0660400390625 1451.6209716796875 -1463.030029296875 1165.3809814453125 137.6020050048828 1165.3809814453125 136.7830047607422 1451.093017578125" transform="matrix(-1, 0, 0, -1, -1063.030045, 2618.590859)"/>
  <rect x="-1200" y="1540.689" width="1623.148" height="59.311" style="fill: rgb(179, 161, 142);"/>
  <rect x="-1200" y="-1620.318" width="1623.148" height="20.318" style="fill: rgb(125, 103, 80);" transform="matrix(1, 0, 0, -1, 0, 0)"/>
  <rect x="-1200" y="1820.371" width="1623.148" height="59.311" style="fill: rgb(179, 161, 142);"/>
  <rect x="-1200" y="-1900" width="1623.148" height="20.318" style="fill: rgb(125, 103, 80);" transform="matrix(1, 0, 0, -1, 0, 0)"/>
  <g transform="matrix(0.707107, 0.707107, -0.707107, 0.707107, -1204.169818, 235.720478)">
    <path d="M 1057.964 182.569 C 1057.964 209.055 1018.016 230.526 968.737 230.526 C 919.459 230.526 879.51 209.055 879.51 182.569 C 879.51 156.083 919.459 134.612 968.737 134.612 C 1018.016 134.612 1057.964 156.083 1057.964 182.569 Z M 1042.619 209.466 C 1026.571 196.757 999.469 188.407 968.737 188.407 C 938.006 188.407 910.903 196.757 894.855 209.466 C 910.903 222.176 938.006 230.526 968.737 230.526 C 999.469 230.526 1026.571 222.176 1042.619 209.466 Z" style="fill: rgb(105, 105, 105);"/>
    <rect x="867.555" y="269.141" width="200" height="100" style="fill: rgb(105, 105, 105);"/>
    <polygon style="fill: rgb(132, 132, 132);" points="800.266 168.894 867.736 269.308 867.736 369.839 800.478 271.007"/>
    <polygon style="fill: rgb(132, 132, 132);" points="1067.555 369.839 1135.025 269.425 1135.025 168.894 1067.767 267.726" transform="matrix(-1, 0, 0, -1, 2202.580078, 538.732986)"/>
    <path d="M 866.303 100 L 1067.306 100 L 1135.279 168.807 L 1068.147 269.308 L 867.556 269.308 L 800 169.224 Z M 968.737 134.612 C 919.459 134.612 879.51 156.083 879.51 182.569 C 879.51 209.055 919.459 230.526 968.737 230.526 C 1018.016 230.526 1057.964 209.055 1057.964 182.569 C 1057.964 156.083 1018.016 134.612 968.737 134.612 Z" style="fill: rgb(174, 174, 174);"/>
    <path d="M 880.043 -48.166 L 1058.497 -48.166 L 1058.497 184.742 L 1058.427 184.742 C 1056.553 211.451 1017.353 232.781 969.27 232.781 C 921.187 232.781 881.987 211.451 880.113 184.742 L 880.043 184.742 L 880.043 -48.166 Z" style="fill: rgb(132, 132, 132);"/>
    <path d="M 1058.497 44.389 C 1058.497 72.026 1018.549 94.43 969.27 94.43 C 919.991 94.43 880.043 72.026 880.043 44.389 C 880.043 42.271 880.278 40.183 880.733 38.134 C 886.222 62.818 923.768 81.92 969.27 81.92 C 1014.772 81.92 1052.318 62.818 1057.807 38.134 C 1058.262 40.183 1058.497 42.271 1058.497 44.389 Z" style="fill: rgb(105, 105, 105);"/>
    <path d="M 1058.497 -11.907 C 1058.497 15.73 1018.549 38.134 969.27 38.134 C 919.991 38.134 880.043 15.73 880.043 -11.907 C 880.043 -14.025 880.278 -16.113 880.733 -18.162 C 886.222 6.522 923.768 25.624 969.27 25.624 C 1014.772 25.624 1052.318 6.522 1057.807 -18.162 C 1058.262 -16.113 1058.497 -14.025 1058.497 -11.907 Z" style="fill: rgb(105, 105, 105);"/>
    <path d="M 1058.497 156.981 C 1058.497 184.618 1018.549 207.022 969.27 207.022 C 919.991 207.022 880.043 184.618 880.043 156.981 C 880.043 154.863 880.278 152.775 880.733 150.726 C 886.222 175.41 923.768 194.512 969.27 194.512 C 1014.772 194.512 1052.318 175.41 1057.807 150.726 C 1058.262 152.775 1058.497 154.863 1058.497 156.981 Z" style="fill: rgb(105, 105, 105);"/>
    <path d="M 1058.497 100.685 C 1058.497 128.322 1018.549 150.726 969.27 150.726 C 919.991 150.726 880.043 128.322 880.043 100.685 C 880.043 98.567 880.278 96.479 880.733 94.43 C 886.222 119.114 923.768 138.216 969.27 138.216 C 1014.772 138.216 1052.318 119.114 1057.807 94.43 C 1058.262 96.479 1058.497 98.567 1058.497 100.685 Z" style="fill: rgb(105, 105, 105);"/>
    <rect x="867.555" y="71.141" width="200" height="100" style="fill: rgb(105, 105, 105);"/>
    <polygon style="fill: rgb(132, 132, 132);" points="800.266 -29.106 867.736 71.308 867.736 171.839 800.478 73.007"/>
    <polygon style="fill: rgb(132, 132, 132);" points="1067.555 171.839 1135.025 71.425 1135.025 -29.106 1067.767 69.726" transform="matrix(-1, 0, 0, -1, 2202.580078, 142.733006)"/>
    <path d="M 866.303 -98 L 1067.306 -98 L 1135.279 -29.193 L 1068.147 71.308 L 867.556 71.308 L 800 -28.776 Z M 968.737 -63.388 C 919.459 -63.388 879.51 -41.917 879.51 -15.431 C 879.51 11.055 919.459 32.526 968.737 32.526 C 1018.016 32.526 1057.964 11.055 1057.964 -15.431 C 1057.964 -41.917 1018.016 -63.388 968.737 -63.388 Z" style="fill: rgb(174, 174, 174);"/>
    <rect x="880.043" y="-50.071" width="177.765" height="31.909" style="fill: rgb(132, 132, 132);"/>
    <circle style="fill: rgb(206, 206, 206);" cx="322.469" cy="125.208" r="110.514" transform="matrix(0.804263, 0, 0, 0.452804, 709.575623, -104.653496)"/>
    <circle style="fill: rgb(174, 174, 174);" cx="322.469" cy="125.208" r="110.514" transform="matrix(0.576275, 0, 0, 0.323192, 782.855713, -89.935982)"/>
    <circle style="fill: rgb(206, 206, 206);" cx="322.469" cy="125.208" r="110.514" transform="matrix(0.486718, 0, 0, 0.272966, 812.74585, -88.216217)"/>
  </g>
  <g transform="matrix(1, 0, 0, 1, -935.279067, 988.000015)">
    <path d="M 1057.964 182.569 C 1057.964 209.055 1018.016 230.526 968.737 230.526 C 919.459 230.526 879.51 209.055 879.51 182.569 C 879.51 156.083 919.459 134.612 968.737 134.612 C 1018.016 134.612 1057.964 156.083 1057.964 182.569 Z M 1042.619 209.466 C 1026.571 196.757 999.469 188.407 968.737 188.407 C 938.006 188.407 910.903 196.757 894.855 209.466 C 910.903 222.176 938.006 230.526 968.737 230.526 C 999.469 230.526 1026.571 222.176 1042.619 209.466 Z" style="fill: rgb(105, 105, 105);"/>
    <rect x="867.555" y="269.141" width="200" height="100" style="fill: rgb(105, 105, 105);"/>
    <polygon style="fill: rgb(132, 132, 132);" points="800.266 168.894 867.736 269.308 867.736 369.839 800.478 271.007"/>
    <polygon style="fill: rgb(132, 132, 132);" points="1067.555 369.839 1135.025 269.425 1135.025 168.894 1067.767 267.726" transform="matrix(-1, 0, 0, -1, 2202.580078, 538.732986)"/>
    <path d="M 866.303 100 L 1067.306 100 L 1135.279 168.807 L 1068.147 269.308 L 867.556 269.308 L 800 169.224 Z M 968.737 134.612 C 919.459 134.612 879.51 156.083 879.51 182.569 C 879.51 209.055 919.459 230.526 968.737 230.526 C 1018.016 230.526 1057.964 209.055 1057.964 182.569 C 1057.964 156.083 1018.016 134.612 968.737 134.612 Z" style="fill: rgb(174, 174, 174);"/>
    <path d="M 880.043 -48.166 L 1058.497 -48.166 L 1058.497 184.742 L 1058.427 184.742 C 1056.553 211.451 1017.353 232.781 969.27 232.781 C 921.187 232.781 881.987 211.451 880.113 184.742 L 880.043 184.742 L 880.043 -48.166 Z" style="fill: rgb(132, 132, 132);"/>
    <path d="M 1058.497 44.389 C 1058.497 72.026 1018.549 94.43 969.27 94.43 C 919.991 94.43 880.043 72.026 880.043 44.389 C 880.043 42.271 880.278 40.183 880.733 38.134 C 886.222 62.818 923.768 81.92 969.27 81.92 C 1014.772 81.92 1052.318 62.818 1057.807 38.134 C 1058.262 40.183 1058.497 42.271 1058.497 44.389 Z" style="fill: rgb(105, 105, 105);"/>
    <path d="M 1058.497 -11.907 C 1058.497 15.73 1018.549 38.134 969.27 38.134 C 919.991 38.134 880.043 15.73 880.043 -11.907 C 880.043 -14.025 880.278 -16.113 880.733 -18.162 C 886.222 6.522 923.768 25.624 969.27 25.624 C 1014.772 25.624 1052.318 6.522 1057.807 -18.162 C 1058.262 -16.113 1058.497 -14.025 1058.497 -11.907 Z" style="fill: rgb(105, 105, 105);"/>
    <path d="M 1058.497 156.981 C 1058.497 184.618 1018.549 207.022 969.27 207.022 C 919.991 207.022 880.043 184.618 880.043 156.981 C 880.043 154.863 880.278 152.775 880.733 150.726 C 886.222 175.41 923.768 194.512 969.27 194.512 C 1014.772 194.512 1052.318 175.41 1057.807 150.726 C 1058.262 152.775 1058.497 154.863 1058.497 156.981 Z" style="fill: rgb(105, 105, 105);"/>
    <path d="M 1058.497 100.685 C 1058.497 128.322 1018.549 150.726 969.27 150.726 C 919.991 150.726 880.043 128.322 880.043 100.685 C 880.043 98.567 880.278 96.479 880.733 94.43 C 886.222 119.114 923.768 138.216 969.27 138.216 C 1014.772 138.216 1052.318 119.114 1057.807 94.43 C 1058.262 96.479 1058.497 98.567 1058.497 100.685 Z" style="fill: rgb(105, 105, 105);"/>
    <rect x="867.555" y="71.141" width="200" height="100" style="fill: rgb(105, 105, 105);"/>
    <polygon style="fill: rgb(132, 132, 132);" points="800.266 -29.106 867.736 71.308 867.736 171.839 800.478 73.007"/>
    <polygon style="fill: rgb(132, 132, 132);" points="1067.555 171.839 1135.025 71.425 1135.025 -29.106 1067.767 69.726" transform="matrix(-1, 0, 0, -1, 2202.580078, 142.733006)"/>
    <path d="M 866.303 -98 L 1067.306 -98 L 1135.279 -29.193 L 1068.147 71.308 L 867.556 71.308 L 800 -28.776 Z M 968.737 -63.388 C 919.459 -63.388 879.51 -41.917 879.51 -15.431 C 879.51 11.055 919.459 32.526 968.737 32.526 C 1018.016 32.526 1057.964 11.055 1057.964 -15.431 C 1057.964 -41.917 1018.016 -63.388 968.737 -63.388 Z" style="fill: rgb(174, 174, 174);"/>
    <rect x="880.043" y="-50.071" width="177.765" height="31.909" style="fill: rgb(132, 132, 132);"/>
    <circle style="fill: rgb(206, 206, 206);" cx="322.469" cy="125.208" r="110.514" transform="matrix(0.804263, 0, 0, 0.452804, 709.575623, -104.653496)"/>
    <circle style="fill: rgb(174, 174, 174);" cx="322.469" cy="125.208" r="110.514" transform="matrix(0.576275, 0, 0, 0.323192, 782.855713, -89.935982)"/>
    <circle style="fill: rgb(206, 206, 206);" cx="322.469" cy="125.208" r="110.514" transform="matrix(0.486718, 0, 0, 0.272966, 812.74585, -88.216217)"/>
  </g>
  <g transform="matrix(0, 1, -1, 0, -263.279057, 280.000004)">
    <path d="M 1057.964 182.569 C 1057.964 209.055 1018.016 230.526 968.737 230.526 C 919.459 230.526 879.51 209.055 879.51 182.569 C 879.51 156.083 919.459 134.612 968.737 134.612 C 1018.016 134.612 1057.964 156.083 1057.964 182.569 Z M 1042.619 209.466 C 1026.571 196.757 999.469 188.407 968.737 188.407 C 938.006 188.407 910.903 196.757 894.855 209.466 C 910.903 222.176 938.006 230.526 968.737 230.526 C 999.469 230.526 1026.571 222.176 1042.619 209.466 Z" style="fill: rgb(105, 105, 105);"/>
    <rect x="867.555" y="269.141" width="200" height="100" style="fill: rgb(105, 105, 105);"/>
    <polygon style="fill: rgb(132, 132, 132);" points="800.266 168.894 867.736 269.308 867.736 369.839 800.478 271.007"/>
    <polygon style="fill: rgb(132, 132, 132);" points="1067.555 369.839 1135.025 269.425 1135.025 168.894 1067.767 267.726" transform="matrix(-1, 0, 0, -1, 2202.580078, 538.732986)"/>
    <path d="M 866.303 100 L 1067.306 100 L 1135.279 168.807 L 1068.147 269.308 L 867.556 269.308 L 800 169.224 Z M 968.737 134.612 C 919.459 134.612 879.51 156.083 879.51 182.569 C 879.51 209.055 919.459 230.526 968.737 230.526 C 1018.016 230.526 1057.964 209.055 1057.964 182.569 C 1057.964 156.083 1018.016 134.612 968.737 134.612 Z" style="fill: rgb(174, 174, 174);"/>
    <path d="M 880.043 -48.166 L 1058.497 -48.166 L 1058.497 184.742 L 1058.427 184.742 C 1056.553 211.451 1017.353 232.781 969.27 232.781 C 921.187 232.781 881.987 211.451 880.113 184.742 L 880.043 184.742 L 880.043 -48.166 Z" style="fill: rgb(132, 132, 132);"/>
    <path d="M 1058.497 44.389 C 1058.497 72.026 1018.549 94.43 969.27 94.43 C 919.991 94.43 880.043 72.026 880.043 44.389 C 880.043 42.271 880.278 40.183 880.733 38.134 C 886.222 62.818 923.768 81.92 969.27 81.92 C 1014.772 81.92 1052.318 62.818 1057.807 38.134 C 1058.262 40.183 1058.497 42.271 1058.497 44.389 Z" style="fill: rgb(105, 105, 105);"/>
    <path d="M 1058.497 -11.907 C 1058.497 15.73 1018.549 38.134 969.27 38.134 C 919.991 38.134 880.043 15.73 880.043 -11.907 C 880.043 -14.025 880.278 -16.113 880.733 -18.162 C 886.222 6.522 923.768 25.624 969.27 25.624 C 1014.772 25.624 1052.318 6.522 1057.807 -18.162 C 1058.262 -16.113 1058.497 -14.025 1058.497 -11.907 Z" style="fill: rgb(105, 105, 105);"/>
    <path d="M 1058.497 156.981 C 1058.497 184.618 1018.549 207.022 969.27 207.022 C 919.991 207.022 880.043 184.618 880.043 156.981 C 880.043 154.863 880.278 152.775 880.733 150.726 C 886.222 175.41 923.768 194.512 969.27 194.512 C 1014.772 194.512 1052.318 175.41 1057.807 150.726 C 1058.262 152.775 1058.497 154.863 1058.497 156.981 Z" style="fill: rgb(105, 105, 105);"/>
    <path d="M 1058.497 100.685 C 1058.497 128.322 1018.549 150.726 969.27 150.726 C 919.991 150.726 880.043 128.322 880.043 100.685 C 880.043 98.567 880.278 96.479 880.733 94.43 C 886.222 119.114 923.768 138.216 969.27 138.216 C 1014.772 138.216 1052.318 119.114 1057.807 94.43 C 1058.262 96.479 1058.497 98.567 1058.497 100.685 Z" style="fill: rgb(105, 105, 105);"/>
    <rect x="867.555" y="71.141" width="200" height="100" style="fill: rgb(105, 105, 105);"/>
    <polygon style="fill: rgb(132, 132, 132);" points="800.266 -29.106 867.736 71.308 867.736 171.839 800.478 73.007"/>
    <polygon style="fill: rgb(132, 132, 132);" points="1067.555 171.839 1135.025 71.425 1135.025 -29.106 1067.767 69.726" transform="matrix(-1, 0, 0, -1, 2202.580078, 142.733006)"/>
    <path d="M 866.303 -98 L 1067.306 -98 L 1135.279 -29.193 L 1068.147 71.308 L 867.556 71.308 L 800 -28.776 Z M 968.737 -63.388 C 919.459 -63.388 879.51 -41.917 879.51 -15.431 C 879.51 11.055 919.459 32.526 968.737 32.526 C 1018.016 32.526 1057.964 11.055 1057.964 -15.431 C 1057.964 -41.917 1018.016 -63.388 968.737 -63.388 Z" style="fill: rgb(174, 174, 174);"/>
    <rect x="880.043" y="-50.071" width="177.765" height="31.909" style="fill: rgb(132, 132, 132);"/>
    <circle style="fill: rgb(206, 206, 206);" cx="322.469" cy="125.208" r="110.514" transform="matrix(0.804263, 0, 0, 0.452804, 709.575623, -104.653496)"/>
    <circle style="fill: rgb(174, 174, 174);" cx="322.469" cy="125.208" r="110.514" transform="matrix(0.576275, 0, 0, 0.323192, 782.855713, -89.935982)"/>
    <circle style="fill: rgb(206, 206, 206);" cx="322.469" cy="125.208" r="110.514" transform="matrix(0.486718, 0, 0, 0.272966, 812.74585, -88.216217)"/>
  </g>
  <g transform="matrix(1, 0, 0, 1, -1955.279082, 1063.370865)">
    <path d="M 1057.964 182.569 C 1057.964 209.055 1018.016 230.526 968.737 230.526 C 919.459 230.526 879.51 209.055 879.51 182.569 C 879.51 156.083 919.459 134.612 968.737 134.612 C 1018.016 134.612 1057.964 156.083 1057.964 182.569 Z M 1042.619 209.466 C 1026.571 196.757 999.469 188.407 968.737 188.407 C 938.006 188.407 910.903 196.757 894.855 209.466 C 910.903 222.176 938.006 230.526 968.737 230.526 C 999.469 230.526 1026.571 222.176 1042.619 209.466 Z" style="fill: rgb(105, 105, 105);"/>
    <rect x="867.555" y="269.141" width="200" height="100" style="fill: rgb(105, 105, 105);"/>
    <polygon style="fill: rgb(132, 132, 132);" points="800.266 168.894 867.736 269.308 867.736 369.839 800.478 271.007"/>
    <polygon style="fill: rgb(132, 132, 132);" points="1067.555 369.839 1135.025 269.425 1135.025 168.894 1067.767 267.726" transform="matrix(-1, 0, 0, -1, 2202.580078, 538.732986)"/>
    <path d="M 866.303 100 L 1067.306 100 L 1135.279 168.807 L 1068.147 269.308 L 867.556 269.308 L 800 169.224 Z M 968.737 134.612 C 919.459 134.612 879.51 156.083 879.51 182.569 C 879.51 209.055 919.459 230.526 968.737 230.526 C 1018.016 230.526 1057.964 209.055 1057.964 182.569 C 1057.964 156.083 1018.016 134.612 968.737 134.612 Z" style="fill: rgb(174, 174, 174);"/>
    <path d="M 880.043 -48.166 L 1058.497 -48.166 L 1058.497 184.742 L 1058.427 184.742 C 1056.553 211.451 1017.353 232.781 969.27 232.781 C 921.187 232.781 881.987 211.451 880.113 184.742 L 880.043 184.742 L 880.043 -48.166 Z" style="fill: rgb(132, 132, 132);"/>
    <path d="M 1058.497 44.389 C 1058.497 72.026 1018.549 94.43 969.27 94.43 C 919.991 94.43 880.043 72.026 880.043 44.389 C 880.043 42.271 880.278 40.183 880.733 38.134 C 886.222 62.818 923.768 81.92 969.27 81.92 C 1014.772 81.92 1052.318 62.818 1057.807 38.134 C 1058.262 40.183 1058.497 42.271 1058.497 44.389 Z" style="fill: rgb(105, 105, 105);"/>
    <path d="M 1058.497 -11.907 C 1058.497 15.73 1018.549 38.134 969.27 38.134 C 919.991 38.134 880.043 15.73 880.043 -11.907 C 880.043 -14.025 880.278 -16.113 880.733 -18.162 C 886.222 6.522 923.768 25.624 969.27 25.624 C 1014.772 25.624 1052.318 6.522 1057.807 -18.162 C 1058.262 -16.113 1058.497 -14.025 1058.497 -11.907 Z" style="fill: rgb(105, 105, 105);"/>
    <path d="M 1058.497 156.981 C 1058.497 184.618 1018.549 207.022 969.27 207.022 C 919.991 207.022 880.043 184.618 880.043 156.981 C 880.043 154.863 880.278 152.775 880.733 150.726 C 886.222 175.41 923.768 194.512 969.27 194.512 C 1014.772 194.512 1052.318 175.41 1057.807 150.726 C 1058.262 152.775 1058.497 154.863 1058.497 156.981 Z" style="fill: rgb(105, 105, 105);"/>
    <path d="M 1058.497 100.685 C 1058.497 128.322 1018.549 150.726 969.27 150.726 C 919.991 150.726 880.043 128.322 880.043 100.685 C 880.043 98.567 880.278 96.479 880.733 94.43 C 886.222 119.114 923.768 138.216 969.27 138.216 C 1014.772 138.216 1052.318 119.114 1057.807 94.43 C 1058.262 96.479 1058.497 98.567 1058.497 100.685 Z" style="fill: rgb(105, 105, 105);"/>
    <rect x="867.555" y="71.141" width="200" height="100" style="fill: rgb(105, 105, 105);"/>
    <polygon style="fill: rgb(132, 132, 132);" points="800.266 -29.106 867.736 71.308 867.736 171.839 800.478 73.007"/>
    <polygon style="fill: rgb(132, 132, 132);" points="1067.555 171.839 1135.025 71.425 1135.025 -29.106 1067.767 69.726" transform="matrix(-1, 0, 0, -1, 2202.580078, 142.733006)"/>
    <path d="M 866.303 -98 L 1067.306 -98 L 1135.279 -29.193 L 1068.147 71.308 L 867.556 71.308 L 800 -28.776 Z M 968.737 -63.388 C 919.459 -63.388 879.51 -41.917 879.51 -15.431 C 879.51 11.055 919.459 32.526 968.737 32.526 C 1018.016 32.526 1057.964 11.055 1057.964 -15.431 C 1057.964 -41.917 1018.016 -63.388 968.737 -63.388 Z" style="fill: rgb(174, 174, 174);"/>
    <rect x="880.043" y="-50.071" width="177.765" height="31.909" style="fill: rgb(132, 132, 132);"/>
    <circle style="fill: rgb(206, 206, 206);" cx="322.469" cy="125.208" r="110.514" transform="matrix(0.804263, 0, 0, 0.452804, 709.575623, -104.653496)"/>
    <circle style="fill: rgb(174, 174, 174);" cx="322.469" cy="125.208" r="110.514" transform="matrix(0.576275, 0, 0, 0.323192, 782.855713, -89.935982)"/>
    <circle style="fill: rgb(206, 206, 206);" cx="322.469" cy="125.208" r="110.514" transform="matrix(0.486718, 0, 0, 0.272966, 812.74585, -88.216217)"/>
  </g>
  <g transform="matrix(0.314645, 0.94921, -0.94921, 0.314645, 1208.000628, 706.332286)">
    <path d="M 390.409 113.428 C 390.409 139.914 350.461 161.385 301.182 161.385 C 251.904 161.385 211.955 139.914 211.955 113.428 C 211.955 86.942 251.904 65.471 301.182 65.471 C 350.461 65.471 390.409 86.942 390.409 113.428 Z M 375.064 140.325 C 359.016 127.616 331.914 119.266 301.182 119.266 C 270.451 119.266 243.348 127.616 227.3 140.325 C 243.348 153.035 270.451 161.385 301.182 161.385 C 331.914 161.385 359.016 153.035 375.064 140.325 Z" style="fill: rgb(105, 105, 105);"/>
    <rect x="200" y="200" width="200" height="100" style="fill: rgb(105, 105, 105);"/>
    <polygon style="fill: rgb(132, 132, 132);" points="132.711 99.753 200.181 200.167 200.181 300.698 132.923 201.866"/>
    <polygon style="fill: rgb(132, 132, 132);" points="400 300.698 467.47 200.284 467.47 99.753 400.212 198.585" transform="matrix(-1, 0, 0, -1, 867.470001, 400.451004)"/>
    <path d="M 198.748 30.859 L 399.751 30.859 L 467.724 99.666 L 400.592 200.167 L 200.001 200.167 L 132.445 100.083 Z M 301.182 65.471 C 251.904 65.471 211.955 86.942 211.955 113.428 C 211.955 139.914 251.904 161.385 301.182 161.385 C 350.461 161.385 390.409 139.914 390.409 113.428 C 390.409 86.942 350.461 65.471 301.182 65.471 Z" style="fill: rgb(174, 174, 174);"/>
  </g>
  <g transform="matrix(-0.590099, -0.807332, 0.807332, -0.590099, 1952.402373, 1689.796046)">
    <g transform="matrix(1, 0, 0, 1, 667.554993, 69.140999)">
      <path d="M 390.409 113.428 C 390.409 139.914 350.461 161.385 301.182 161.385 C 251.904 161.385 211.955 139.914 211.955 113.428 C 211.955 86.942 251.904 65.471 301.182 65.471 C 350.461 65.471 390.409 86.942 390.409 113.428 Z M 375.064 140.325 C 359.016 127.616 331.914 119.266 301.182 119.266 C 270.451 119.266 243.348 127.616 227.3 140.325 C 243.348 153.035 270.451 161.385 301.182 161.385 C 331.914 161.385 359.016 153.035 375.064 140.325 Z" style="fill: rgb(105, 105, 105);"/>
      <rect x="200" y="200" width="200" height="100" style="fill: rgb(105, 105, 105);"/>
      <polygon style="fill: rgb(132, 132, 132);" points="132.711 99.753 200.181 200.167 200.181 300.698 132.923 201.866"/>
      <polygon style="fill: rgb(132, 132, 132);" points="400 300.698 467.47 200.284 467.47 99.753 400.212 198.585" transform="matrix(-1, 0, 0, -1, 867.470001, 400.451004)"/>
      <path d="M 198.748 30.859 L 399.751 30.859 L 467.724 99.666 L 400.592 200.167 L 200.001 200.167 L 132.445 100.083 Z M 301.182 65.471 C 251.904 65.471 211.955 86.942 211.955 113.428 C 211.955 139.914 251.904 161.385 301.182 161.385 C 350.461 161.385 390.409 139.914 390.409 113.428 C 390.409 86.942 350.461 65.471 301.182 65.471 Z" style="fill: rgb(174, 174, 174);"/>
    </g>
    <g transform="matrix(1, 0, 0, 1, 280.043335, -165.470993)">
      <path d="M 600 117.305 L 778.454 117.305 L 778.454 350.213 L 778.384 350.213 C 776.51 376.922 737.31 398.252 689.227 398.252 C 641.144 398.252 601.944 376.922 600.07 350.213 L 600 350.213 L 600 117.305 Z" style="fill: rgb(132, 132, 132);"/>
      <circle style="fill: rgb(206, 206, 206);" cx="322.469" cy="125.208" r="110.514" transform="matrix(0.807382, 0, 0, 0.452804, 428.871338, 60.817501)"/>
      <path d="M 778.454 209.86 C 778.454 237.497 738.506 259.901 689.227 259.901 C 639.948 259.901 600 237.497 600 209.86 C 600 207.742 600.235 205.654 600.69 203.605 C 606.179 228.289 643.725 247.391 689.227 247.391 C 734.729 247.391 772.275 228.289 777.764 203.605 C 778.219 205.654 778.454 207.742 778.454 209.86 Z" style="fill: rgb(105, 105, 105);"/>
      <path d="M 778.454 153.564 C 778.454 181.201 738.506 203.605 689.227 203.605 C 639.948 203.605 600 181.201 600 153.564 C 600 151.446 600.235 149.358 600.69 147.309 C 606.179 171.993 643.725 191.095 689.227 191.095 C 734.729 191.095 772.275 171.993 777.764 147.309 C 778.219 149.358 778.454 151.446 778.454 153.564 Z" style="fill: rgb(105, 105, 105);"/>
      <path d="M 778.454 322.452 C 778.454 350.089 738.506 372.493 689.227 372.493 C 639.948 372.493 600 350.089 600 322.452 C 600 320.334 600.235 318.246 600.69 316.197 C 606.179 340.881 643.725 359.983 689.227 359.983 C 734.729 359.983 772.275 340.881 777.764 316.197 C 778.219 318.246 778.454 320.334 778.454 322.452 Z" style="fill: rgb(105, 105, 105);"/>
      <path d="M 778.454 266.156 C 778.454 293.793 738.506 316.197 689.227 316.197 C 639.948 316.197 600 293.793 600 266.156 C 600 264.038 600.235 261.95 600.69 259.901 C 606.179 284.585 643.725 303.687 689.227 303.687 C 734.729 303.687 772.275 284.585 777.764 259.901 C 778.219 261.95 778.454 264.038 778.454 266.156 Z" style="fill: rgb(105, 105, 105);"/>
      <circle style="fill: rgb(174, 174, 174);" cx="322.469" cy="125.208" r="110.514" transform="matrix(0.576275, 0, 0, 0.323192, 503.812317, 75.535011)"/>
    </g>
    <circle style="fill: rgb(206, 206, 206);" cx="322.469" cy="125.208" r="110.514" transform="matrix(0.486718, 0, 0, 0.272966, 812.748901, -88.216217)"/>
  </g>
</svg>