<svg xmlns="http://www.w3.org/2000/svg" id="Layer_1" data-name="Layer 1" viewBox="0 0 85.9 111.5"><defs><style>.cls-1,.cls-8{stroke-miterlimit:10}.cls-1{fill:#e87722;stroke:#061e32;stroke-width:3.4px}.cls-8{fill:#716558}.cls-6{fill:#3b2314}.cls-8{stroke:#3b2314;stroke-width:2.07px}</style></defs><ellipse cx="42.9" cy="98.1" class="cls-1" rx="41.2" ry="11.7"/><path d="M75.1 84.7v8.4c0 5-14.4 9-32.2 9s-32.1-4-32.1-9v-8.4" class="cls-1"/><ellipse cx="42.9" cy="84.7" class="cls-1" rx="32.2" ry="9.1"/><path d="M16.1 21.6h52.2v59.67H16.1z" style="fill:#716558"/><path d="M65.4 24.7c0 12-10.9 20.3-24.3 20.3s-24.3-8.3-24.3-20.3S27.7 2.9 41.1 2.9s24.3 9.7 24.3 21.8" style="fill:#716558;fill-rule:evenodd"/><path d="M48 32.3c0 3.3-4.5 4.2-6 4.2s-5.8-1.3-5.8-4.7c0-1.3-.8-4.3-.4-5.3s11.7-.3 12.7-.3-.5 2.7-.5 6.1" style="fill:#fff"/><path d="M59.4 58.8a17.2 17.2 0 0 1-17 17 17.2 17.2 0 0 1-16.9-17c0-9 7.6-16.3 16.9-16.3s17 7.3 17 16.3m-7.3-40c0 1.8 1.7 6.1.3 7.4s-7-.6-10-.6-9 2.7-10.7.6 0-5.8 0-7.4c0-4.3 5.4-7.8 10.7-7.8s9.7 3.5 9.7 7.8" style="fill:#c1b49a"/><path d="M23.2 42.5a.5.5 0 0 0 .5-.4V37a.5.5 0 0 0-1 0v5.1a.5.5 0 0 0 .5.4m.7-13.7a.5.5 0 0 0 .5-.4v-5.2a.5.5 0 0 0-1 0v5.2a.5.5 0 0 0 .5.4m3.4 24.5a.5.5 0 0 0 .5-.5v-5.1a.5.5 0 0 0-1 0v5.1a.5.5 0 0 0 .5.5m6.3-13.8a.5.5 0 0 0-.5.5v5.1a.5.5 0 0 0 1 0V40a.5.5 0 0 0-.5-.5m8.9 6.8a.5.5 0 0 0-.5.5v5.1a.5.5 0 0 0 .5.5.5.5 0 0 0 .5-.5v-5.1a.5.5 0 0 0-.5-.5m-6.3 9.6a.5.5 0 0 0-.5.5v5.1a.5.5 0 0 0 1 0v-5.1a.5.5 0 0 0-.5-.5m9.4 6.1a.5.5 0 0 0-.5.4v5.2a.5.5 0 0 0 .5.4c.2 0 .5-.2.5-.4v-5.2c0-.2-.3-.4-.5-.4m-18.3 0a.5.5 0 0 0-.5.4v5.2a.5.5 0 0 0 1 0v-5.2a.5.5 0 0 0-.5-.4m30 0a.5.5 0 0 0-.5.4v5.2a.5.5 0 0 0 .5.4c.2 0 .5-.2.5-.4v-5.2c0-.2-.3-.4-.5-.4m-20.6 7.1a.5.5 0 0 0-.5.5v5.8a.5.5 0 0 0 1 0v-5.8a.5.5 0 0 0-.5-.5m14.6-21a.5.5 0 0 0-.5.5v5.1a.5.5 0 0 0 1 0v-5.1a.5.5 0 0 0-.5-.5m8.6-1.8a.5.5 0 0 0-.5.5v5.1a.5.5 0 0 0 1 0v-5.1a.5.5 0 0 0-.5-.5M53.3 37v5.1c0 .2.3.4.5.4a.5.5 0 0 0 .5-.4V37a.5.5 0 0 0-.5-.5.5.5 0 0 0-.5.5m6.1-2a.5.5 0 0 0 .5-.4v-5.2a.5.5 0 0 0-1 0v5.2a.5.5 0 0 0 .5.4" class="cls-6"/><ellipse cx="56" cy="12" class="cls-6" rx="1.3" ry="1.1"/><ellipse cx="28.2" cy="12" class="cls-6" rx="1.3" ry="1.1"/><path d="M31.1 27.8h.1a11.9 11.9 0 0 0 3.9 4.7c1.1 2.5 3.9 4 7 4s5.2-1 7.1-4.1A12.1 12.1 0 1 0 30 22.6a12.6 12.6 0 0 0 1.1 5.1Zm2.4.1.7-.3c.1.6.1 1.1.2 1.6a3.8 3.8 0 0 1-.9-1.3m2.7-.8a39 39 0 0 1 4.9-.6v8c-1.6-.3-4.5-1.5-4.9-7.4m6.9 7.4v-8a39 39 0 0 1 4.9.6c-.3 5.9-3.7 6.9-4.9 7.4m6.7-5.5a6 6 0 0 0 .2-1.3l.6.2a4.4 4.4 0 0 1-.8 1.1M42 12.2a10.3 10.3 0 0 1 10.1 10.4 11 11 0 0 1-.7 3.6 28.4 28.4 0 0 0-8.3-1.5v-4.8c2.3-.3 4.1-1.5 4.1-3s-2.3-3.1-5.1-3.1-5 1.4-5 3.1 1.7 2.7 4 3v4.8a29.7 29.7 0 0 0-8.4 1.5 8.9 8.9 0 0 1-.7-3.6 10.2 10.2 0 0 1 10-10.4" class="cls-6"/><path d="M21.5 7.7a.9.9 0 0 1 .4-.7 1.2 1.2 0 0 1 1.3-.2l-1.5 1.4a.8.8 0 0 1-.2-.5m20.1 73.6c-14.3 0-20.1-1.5-22.8-4.4V24.4C18.8 13 29.2 3.6 42 3.6S65.3 13 65.3 24.4c0 0 .3 50.3 0 52.5s-9.3 4.4-23.7 4.4M62.4 8.2c-.4-.5-1-.9-1.5-1.4a1.4 1.4 0 0 1 1.4.2.9.9 0 0 1 .1 1.2m12 16.2c-2.7 2.8-2.6 2.8-5.1 7.1v-7.1A22.9 22.9 0 0 0 65 11.2V11a4.2 4.2 0 0 0 0-6.6 5.7 5.7 0 0 0-7.4 0 29.7 29.7 0 0 0-31.3-.1 5.7 5.7 0 0 0-7.4 0 4.4 4.4 0 0 0-1.5 3.3A4.1 4.1 0 0 0 19 11v.2a22.9 22.9 0 0 0-4.3 13.2l.3 57.1s-.3 3.3 26.9 3.3 27.4-2.4 27.4-2.4l-.4-7c8.2-10.9 14.5-38.6 14.5-51 .1 0-.6-8.7-9 0" class="cls-6"/><path d="M75.4 26.6h5.8m-7.8 4.5h6.9m-8.9 4.4h8.9m-11 3h9.3m-9.3 4.4h7.9m-7.9 4.5h7m-7 4.4h5.9m-5.9 4.5h4m-4 4.5h3.1" style="stroke-miterlimit:10;fill:none;stroke:#fff;stroke-linecap:round;stroke-width:.35px"/><path d="M34.9 81.2c-2.5-2.7-7.5-5.3-11.5-5.4h-.2c-5.3 0-11.3 4.6-12.6 7.6-.3.6-.5 1.5 0 1.9S17.1 87 23.4 87s10.9-.7 12.4-1.7a1.5 1.5 0 0 0 .5-2 8.5 8.5 0 0 0-1.4-2.1" class="cls-6"/><path d="M17.6 40.1s-.1 15.5-.1 16c-.1 2.9 2.5 5.2 5.6 5.2s5.8-2.3 5.8-5.1c0-.6-.4-10.3-.4-10.3" class="cls-8"/><path d="M42.4 75.8v7.4" style="stroke-miterlimit:10;fill:none;stroke:#3b2314;stroke-width:2.07px"/><path d="M73.6 83.3c-1.2-3.2-7.9-7.5-13.1-7.5a12.6 12.6 0 0 0-2.8.4 19.3 19.3 0 0 0-6.8 3.6 13.2 13.2 0 0 0-3.1 3.6c-.2.6-.4 1.5.1 1.9S54.4 87 60.6 87s11-.7 12.5-1.7a1.6 1.6 0 0 0 .5-2" class="cls-6"/><path d="M66.5 40.1s.1 15.5.1 16c.1 2.9-2.5 5.2-5.7 5.2s-5.7-2.3-5.7-5.1c0-.6.4-10.3.4-10.3" class="cls-8"/></svg>