<svg xmlns:xlink="http://www.w3.org/1999/xlink" xmlns="http://www.w3.org/2000/svg" viewBox="-500.256 1248.657 1100.256 151.479" width="1100.256" height="151.479">
  <path style="fill: none; stroke: rgb(42, 42, 42); stroke-width: 3px;" d="M -500.256 1323.114 C -410.693 1316.765 -283.768 1329.546 -184.143 1342.371 C -17.96 1363.973 150.488 1361.162 315.857 1334.027 C 415.101 1317.742 500.37 1303.745 600 1317.477"/>
  <path style="fill: none; stroke: rgb(42, 42, 42); stroke-linejoin: round; stroke-linecap: round; stroke-width: 8px; stroke-dasharray: 18;" d="M -500.256 1323.114 C -410.693 1316.765 -283.768 1329.546 -184.143 1342.371 C -17.96 1363.973 150.488 1361.162 315.857 1334.027 C 415.101 1317.742 500.37 1303.745 600 1317.477"/>
  <g transform="matrix(1.626227, 0, 0, 1.626227, -956.020644, 1111.142106)" style="">
    <circle style="fill: rgb(175, 0, 44);" cx="344.611" cy="134.692" r="30.746"/>
    <circle style="fill: rgb(228, 38, 89);" cx="346.202" cy="131.055" r="27.109"/>
    <circle style="fill: rgb(255, 110, 154);" cx="355.596" cy="115.768" r="4.99"/>
  </g>
  <g transform="matrix(1.626227, 0, 0, 1.626227, -710.415538, 1131.095476)" style="">
    <circle style="fill: rgb(175, 0, 44);" cx="344.611" cy="134.692" r="30.746"/>
    <circle style="fill: rgb(228, 38, 89);" cx="346.202" cy="131.055" r="27.109"/>
    <circle style="fill: rgb(255, 110, 154);" cx="355.596" cy="115.768" r="4.99"/>
  </g>
  <g transform="matrix(1.626227, 0, 0, 1.626227, -332.927312, 1122.960222)" style="">
    <circle style="fill: rgb(175, 0, 44);" cx="344.611" cy="134.692" r="30.746"/>
    <circle style="fill: rgb(228, 38, 89);" cx="346.202" cy="131.055" r="27.109"/>
    <circle style="fill: rgb(255, 110, 154);" cx="355.596" cy="115.768" r="4.99"/>
  </g>
  <g transform="matrix(1.626228, 0, 0, 1.626228, -831.532605, 1111.141984)" style="">
    <circle style="fill: rgb(126, 147, 230);" cx="344.611" cy="134.692" r="30.746"/>
    <circle style="fill: rgb(161, 176, 235);" cx="346.202" cy="131.055" r="27.109"/>
    <circle style="fill: rgb(255, 255, 255);" cx="355.596" cy="115.768" r="4.99"/>
    <path d="M 350.591 146.14 C 339.134 150.908 327.144 152.288 317.973 150.056 C 315.393 145.592 313.903 140.42 313.866 134.903 C 316.816 143.786 331.77 147.053 348.137 140.242 C 357.892 136.183 365.636 129.382 368.453 122.4 C 369.261 120.397 369.63 118.52 369.614 116.794 C 372.04 120.178 373.797 124.074 374.69 128.29 C 369.746 135.096 361.488 141.606 350.591 146.14 Z" style="fill: rgb(7, 37, 158);"/>
    <path d="M 350.591 146.14 C 342.947 149.321 335.066 150.994 327.943 151.093 C 325.229 148.619 323.02 145.601 321.488 142.212 C 328.03 144.825 337.802 144.543 348.137 140.242 C 357.892 136.183 365.636 129.382 368.453 122.4 C 369.173 120.616 369.544 118.932 369.605 117.365 C 371.809 121.124 373.133 125.462 373.294 130.096 C 368.258 136.237 360.52 142.009 350.591 146.14 Z" style="fill: rgb(74, 98, 194);"/>
  </g>
  <g transform="matrix(1.626228, 0, 0, 1.626228, -584.997262, 1131.096086)" style="">
    <circle style="fill: rgb(126, 147, 230);" cx="344.611" cy="134.692" r="30.746"/>
    <circle style="fill: rgb(161, 176, 235);" cx="346.202" cy="131.055" r="27.109"/>
    <circle style="fill: rgb(255, 255, 255);" cx="355.596" cy="115.768" r="4.99"/>
    <path d="M 350.591 146.14 C 339.134 150.908 327.144 152.288 317.973 150.056 C 315.393 145.592 313.903 140.42 313.866 134.903 C 316.816 143.786 331.77 147.053 348.137 140.242 C 357.892 136.183 365.636 129.382 368.453 122.4 C 369.261 120.397 369.63 118.52 369.614 116.794 C 372.04 120.178 373.797 124.074 374.69 128.29 C 369.746 135.096 361.488 141.606 350.591 146.14 Z" style="fill: rgb(7, 37, 158);"/>
    <path d="M 350.591 146.14 C 342.947 149.321 335.066 150.994 327.943 151.093 C 325.229 148.619 323.02 145.601 321.488 142.212 C 328.03 144.825 337.802 144.543 348.137 140.242 C 357.892 136.183 365.636 129.382 368.453 122.4 C 369.173 120.616 369.544 118.932 369.605 117.365 C 371.809 121.124 373.133 125.462 373.294 130.096 C 368.258 136.237 360.52 142.009 350.591 146.14 Z" style="fill: rgb(74, 98, 194);"/>
  </g>
  <g transform="matrix(1.626228, 0, 0, 1.626228, -456.904792, 1130.960222)" style="">
    <circle style="fill: rgb(126, 147, 230);" cx="344.611" cy="134.692" r="30.746"/>
    <circle style="fill: rgb(161, 176, 235);" cx="346.202" cy="131.055" r="27.109"/>
    <circle style="fill: rgb(255, 255, 255);" cx="355.596" cy="115.768" r="4.99"/>
    <path d="M 350.591 146.14 C 339.134 150.908 327.144 152.288 317.973 150.056 C 315.393 145.592 313.903 140.42 313.866 134.903 C 316.816 143.786 331.77 147.053 348.137 140.242 C 357.892 136.183 365.636 129.382 368.453 122.4 C 369.261 120.397 369.63 118.52 369.614 116.794 C 372.04 120.178 373.797 124.074 374.69 128.29 C 369.746 135.096 361.488 141.606 350.591 146.14 Z" style="fill: rgb(7, 37, 158);"/>
    <path d="M 350.591 146.14 C 342.947 149.321 335.066 150.994 327.943 151.093 C 325.229 148.619 323.02 145.601 321.488 142.212 C 328.03 144.825 337.802 144.543 348.137 140.242 C 357.892 136.183 365.636 129.382 368.453 122.4 C 369.173 120.616 369.544 118.932 369.605 117.365 C 371.809 121.124 373.133 125.462 373.294 130.096 C 368.258 136.237 360.52 142.009 350.591 146.14 Z" style="fill: rgb(74, 98, 194);"/>
  </g>
  <g transform="matrix(1.626228, 0, 0, 1.626228, -204.762027, 1111.141862)" style="">
    <circle style="fill: rgb(126, 147, 230);" cx="344.611" cy="134.692" r="30.746"/>
    <circle style="fill: rgb(161, 176, 235);" cx="346.202" cy="131.055" r="27.109"/>
    <circle style="fill: rgb(255, 255, 255);" cx="355.596" cy="115.768" r="4.99"/>
    <path d="M 350.591 146.14 C 339.134 150.908 327.144 152.288 317.973 150.056 C 315.393 145.592 313.903 140.42 313.866 134.903 C 316.816 143.786 331.77 147.053 348.137 140.242 C 357.892 136.183 365.636 129.382 368.453 122.4 C 369.261 120.397 369.63 118.52 369.614 116.794 C 372.04 120.178 373.797 124.074 374.69 128.29 C 369.746 135.096 361.488 141.606 350.591 146.14 Z" style="fill: rgb(7, 37, 158);"/>
    <path d="M 350.591 146.14 C 342.947 149.321 335.066 150.994 327.943 151.093 C 325.229 148.619 323.02 145.601 321.488 142.212 C 328.03 144.825 337.802 144.543 348.137 140.242 C 357.892 136.183 365.636 129.382 368.453 122.4 C 369.173 120.616 369.544 118.932 369.605 117.365 C 371.809 121.124 373.133 125.462 373.294 130.096 C 368.258 136.237 360.52 142.009 350.591 146.14 Z" style="fill: rgb(74, 98, 194);"/>
  </g>
  <g transform="matrix(1.626228, 0, 0, 1.626228, -77.808618, 1097.675676)" style="">
    <circle style="fill: rgb(126, 147, 230);" cx="344.611" cy="134.692" r="30.746"/>
    <circle style="fill: rgb(161, 176, 235);" cx="346.202" cy="131.055" r="27.109"/>
    <circle style="fill: rgb(255, 255, 255);" cx="355.596" cy="115.768" r="4.99"/>
    <path d="M 350.591 146.14 C 339.134 150.908 327.144 152.288 317.973 150.056 C 315.393 145.592 313.903 140.42 313.866 134.903 C 316.816 143.786 331.77 147.053 348.137 140.242 C 357.892 136.183 365.636 129.382 368.453 122.4 C 369.261 120.397 369.63 118.52 369.614 116.794 C 372.04 120.178 373.797 124.074 374.69 128.29 C 369.746 135.096 361.488 141.606 350.591 146.14 Z" style="fill: rgb(7, 37, 158);"/>
    <path d="M 350.591 146.14 C 342.947 149.321 335.066 150.994 327.943 151.093 C 325.229 148.619 323.02 145.601 321.488 142.212 C 328.03 144.825 337.802 144.543 348.137 140.242 C 357.892 136.183 365.636 129.382 368.453 122.4 C 369.173 120.616 369.544 118.932 369.605 117.365 C 371.809 121.124 373.133 125.462 373.294 130.096 C 368.258 136.237 360.52 142.009 350.591 146.14 Z" style="fill: rgb(74, 98, 194);"/>
  </g>
</svg>