<svg xmlns="http://www.w3.org/2000/svg" width="1338.538" height="545.763" viewBox="-500 154.237 1338.538 545.763">
  <path d="M-54.858 262.649h23.048v-7.302l19.473 9.736-19.473 9.737v-7.303h-23.048z" style="fill:#07259e" transform="rotate(178.55 -96.831 406.283)"/>
  <path d="M0 245.036c166.183 21.602 156.895 27.135 322.264 0" style="fill:none;stroke:#2a2a2a;stroke-miterlimit:12;stroke-linecap:round;stroke-linejoin:round;stroke-dashoffset:50px;stroke-width:4px"/>
  <path d="M-454.651 531.735c128.997 17.974 279.139 85.918 566.007.43m145.285-14.512c38.501 100 514.127 14.082 543.359 42.017" style="fill:none;stroke:#2a2a2a;stroke-linecap:round;stroke-linejoin:round;stroke-dashoffset:50px;stroke-width:4px"/>
  <path d="M0 245.036c166.183 21.602 156.895 27.135 322.264 0" style="fill:none;stroke:#2a2a2a;stroke-miterlimit:12;stroke-width:8px;stroke-linecap:round;stroke-linejoin:round;stroke-dasharray:20px;stroke-dashoffset:50px"/>
  <path d="M-454.651 531.735c128.997 17.974 279.139 85.918 566.007.43m145.285-14.512c38.501 100 514.127 14.082 543.359 42.017" style="fill:none;stroke:#2a2a2a;stroke-width:8px;stroke-linecap:round;stroke-linejoin:round;stroke-dasharray:20px;stroke-dashoffset:50px"/>
  <g transform="translate(-321.576 29.916)scale(1.62623)">
    <circle cx="344.611" cy="134.692" r="30.746" style="fill:#af002c"/>
    <circle cx="346.202" cy="131.055" r="27.109" style="fill:#e42659"/>
    <circle cx="355.596" cy="115.768" r="4.99" style="fill:#ff6e9a"/>
  </g>
  <g transform="translate(-449.987 29.916)scale(1.62623)">
    <circle cx="344.611" cy="134.692" r="30.746" style="fill:#7e93e6"/>
    <circle cx="346.202" cy="131.055" r="27.109" style="fill:#a1b0eb"/>
    <circle cx="355.596" cy="115.768" r="4.99" style="fill:#fff"/>
    <path d="M350.591 146.14c-11.457 4.768-23.447 6.148-32.618 3.916a30.6 30.6 0 0 1-4.107-15.153c2.95 8.883 17.904 12.15 34.271 5.339 9.755-4.059 17.499-10.86 20.316-17.842.808-2.003 1.177-3.88 1.161-5.606a30.6 30.6 0 0 1 5.076 11.496c-4.944 6.806-13.202 13.316-24.099 17.85" style="fill:#07259e"/>
    <path d="M350.591 146.14c-7.644 3.181-15.525 4.854-22.648 4.953a27.2 27.2 0 0 1-6.455-8.881c6.542 2.613 16.314 2.331 26.649-1.97 9.755-4.059 17.499-10.86 20.316-17.842.72-1.784 1.091-3.468 1.152-5.035a26.96 26.96 0 0 1 3.689 12.731c-5.036 6.141-12.774 11.913-22.703 16.044" style="fill:#4a62c2"/>
  </g>
  <path d="M72.92 209.049h163.578v-15l40 20-40 20v-15H72.92z" style="fill:#2a2a2a" transform="rotate(125.621 44.51 266.705)"/>
  <path d="M49.185 209.049h163.609v-15l40 20-40 20v-15H49.185z" style="fill:#2a2a2a" transform="scale(1 -1)rotate(-60.455 -282.928 -247.461)"/>
  <g transform="translate(-810.416 346.387)scale(1.62623)">
    <circle cx="344.611" cy="134.692" r="30.746" style="fill:#af002c"/>
    <circle cx="346.202" cy="131.055" r="27.109" style="fill:#e42659"/>
    <circle cx="355.596" cy="115.768" r="4.99" style="fill:#ff6e9a"/>
  </g>
  <g transform="translate(-634.16 350.994)scale(1.62623)">
    <circle cx="344.611" cy="134.692" r="30.746" style="fill:#7e93e6"/>
    <circle cx="346.202" cy="131.055" r="27.109" style="fill:#a1b0eb"/>
    <circle cx="355.596" cy="115.768" r="4.99" style="fill:#fff"/>
    <path d="M350.591 146.14c-11.457 4.768-23.447 6.148-32.618 3.916a30.6 30.6 0 0 1-4.107-15.153c2.95 8.883 17.904 12.15 34.271 5.339 9.755-4.059 17.499-10.86 20.316-17.842.808-2.003 1.177-3.88 1.161-5.606a30.6 30.6 0 0 1 5.076 11.496c-4.944 6.806-13.202 13.316-24.099 17.85" style="fill:#07259e"/>
    <path d="M350.591 146.14c-7.644 3.181-15.525 4.854-22.648 4.953a27.2 27.2 0 0 1-6.455-8.881c6.542 2.613 16.314 2.331 26.649-1.97 9.755-4.059 17.499-10.86 20.316-17.842.72-1.784 1.091-3.468 1.152-5.035a26.96 26.96 0 0 1 3.689 12.731c-5.036 6.141-12.774 11.913-22.703 16.044" style="fill:#4a62c2"/>
  </g>
  <g transform="translate(-519.385 330.96)scale(1.62623)">
    <circle cx="344.611" cy="134.692" r="30.746" style="fill:#7e93e6"/>
    <circle cx="346.202" cy="131.055" r="27.109" style="fill:#a1b0eb"/>
    <circle cx="355.596" cy="115.768" r="4.99" style="fill:#fff"/>
    <path d="M350.591 146.14c-11.457 4.768-23.447 6.148-32.618 3.916a30.6 30.6 0 0 1-4.107-15.153c2.95 8.883 17.904 12.15 34.271 5.339 9.755-4.059 17.499-10.86 20.316-17.842.808-2.003 1.177-3.88 1.161-5.606a30.6 30.6 0 0 1 5.076 11.496c-4.944 6.806-13.202 13.316-24.099 17.85" style="fill:#07259e"/>
    <path d="M350.591 146.14c-7.644 3.181-15.525 4.854-22.648 4.953a27.2 27.2 0 0 1-6.455-8.881c6.542 2.613 16.314 2.331 26.649-1.97 9.755-4.059 17.499-10.86 20.316-17.842.72-1.784 1.091-3.468 1.152-5.035a26.96 26.96 0 0 1 3.689 12.731c-5.036 6.141-12.774 11.913-22.703 16.044" style="fill:#4a62c2"/>
  </g>
  <g transform="translate(-941.58 330.96)scale(1.62623)">
    <circle cx="344.611" cy="134.692" r="30.746" style="fill:#7e93e6"/>
    <circle cx="346.202" cy="131.055" r="27.109" style="fill:#a1b0eb"/>
    <circle cx="355.596" cy="115.768" r="4.99" style="fill:#fff"/>
    <path d="M350.591 146.14c-11.457 4.768-23.447 6.148-32.618 3.916a30.6 30.6 0 0 1-4.107-15.153c2.95 8.883 17.904 12.15 34.271 5.339 9.755-4.059 17.499-10.86 20.316-17.842.808-2.003 1.177-3.88 1.161-5.606a30.6 30.6 0 0 1 5.076 11.496c-4.944 6.806-13.202 13.316-24.099 17.85" style="fill:#07259e"/>
    <path d="M350.591 146.14c-7.644 3.181-15.525 4.854-22.648 4.953a27.2 27.2 0 0 1-6.455-8.881c6.542 2.613 16.314 2.331 26.649-1.97 9.755-4.059 17.499-10.86 20.316-17.842.72-1.784 1.091-3.468 1.152-5.035a26.96 26.96 0 0 1 3.689 12.731c-5.036 6.141-12.774 11.913-22.703 16.044" style="fill:#4a62c2"/>
  </g>
  <g transform="translate(-246.804 330.96)scale(1.62623)">
    <circle cx="344.611" cy="134.692" r="30.746" style="fill:#af002c"/>
    <circle cx="346.202" cy="131.055" r="27.109" style="fill:#e42659"/>
    <circle cx="355.596" cy="115.768" r="4.99" style="fill:#ff6e9a"/>
  </g>
  <g transform="translate(-78.134 349.355)scale(1.62623)">
    <circle cx="344.611" cy="134.692" r="30.746" style="fill:#7e93e6"/>
    <circle cx="346.202" cy="131.055" r="27.109" style="fill:#a1b0eb"/>
    <circle cx="355.596" cy="115.768" r="4.99" style="fill:#fff"/>
    <path d="M350.591 146.14c-11.457 4.768-23.447 6.148-32.618 3.916a30.6 30.6 0 0 1-4.107-15.153c2.95 8.883 17.904 12.15 34.271 5.339 9.755-4.059 17.499-10.86 20.316-17.842.808-2.003 1.177-3.88 1.161-5.606a30.6 30.6 0 0 1 5.076 11.496c-4.944 6.806-13.202 13.316-24.099 17.85" style="fill:#07259e"/>
    <path d="M350.591 146.14c-7.644 3.181-15.525 4.854-22.648 4.953a27.2 27.2 0 0 1-6.455-8.881c6.542 2.613 16.314 2.331 26.649-1.97 9.755-4.059 17.499-10.86 20.316-17.842.72-1.784 1.091-3.468 1.152-5.035a26.96 26.96 0 0 1 3.689 12.731c-5.036 6.141-12.774 11.913-22.703 16.044" style="fill:#4a62c2"/>
  </g>
  <g transform="translate(32.453 341.617)scale(1.62623)">
    <circle cx="344.611" cy="134.692" r="30.746" style="fill:#af002c"/>
    <circle cx="346.202" cy="131.055" r="27.109" style="fill:#e42659"/>
    <circle cx="355.596" cy="115.768" r="4.99" style="fill:#ff6e9a"/>
  </g>
  <g transform="translate(189.584 330.96)scale(1.62623)">
    <circle cx="344.611" cy="134.692" r="30.746" style="fill:#af002c"/>
    <circle cx="346.202" cy="131.055" r="27.109" style="fill:#e42659"/>
    <circle cx="355.596" cy="115.768" r="4.99" style="fill:#ff6e9a"/>
  </g>
  <path d="M-54.995 263.309h23.106v-7.321l19.522 9.761-19.522 9.761v-7.321h-23.106z" style="fill:#af002c" transform="rotate(3.098 -4885.562 8360.565)"/>
  <path d="M-709.571-532.555h23.106v-7.321l19.522 9.761-19.522 9.761v-7.321h-23.106z" style="fill:#af002c" transform="rotate(175.181 -31.593 29.687)"/>
</svg>
