<svg xmlns:xlink="http://www.w3.org/1999/xlink" xmlns="http://www.w3.org/2000/svg" viewBox="200 300 4400 200" width="4400" height="200">
  <g transform="matrix(1, 0, 0, 1, 0.205994, 300.000004)">
    <rect x="200" width="199.794" height="200" style="fill: rgb(186, 218, 85); fill-opacity: 0;"/>
    <path d="M 393.964 100.061 C 393.964 105.989 389.159 110.794 383.231 110.794 L 310.61 110.794 L 310.61 183.415 C 310.61 189.343 305.805 194.148 299.877 194.148 C 293.949 194.148 289.144 189.343 289.144 183.415 L 289.144 110.794 L 216.523 110.794 C 210.595 110.794 205.79 105.989 205.79 100.061 C 205.79 94.133 210.595 89.328 216.523 89.328 L 289.144 89.328 L 289.144 16.707 C 289.144 10.779 293.949 5.974 299.877 5.974 C 305.805 5.974 310.61 10.779 310.61 16.707 L 310.61 89.328 L 383.231 89.328 C 389.159 89.328 393.964 94.133 393.964 100.061 Z" style="fill: rgb(166, 0, 0);"/>
  </g>
  <g transform="matrix(1, 0, 0, 1, -200.000003, 300.000004)">
    <rect x="600" width="200" height="200" style="fill: rgb(186, 218, 85); fill-opacity: 0;"/>
    <path d="M 766.172 166.59 C 761.98 170.782 755.185 170.782 750.993 166.59 L 710.376 125.973 L 710.376 183.415 C 710.376 189.343 705.571 194.148 699.643 194.148 C 693.715 194.148 688.91 189.343 688.91 183.415 L 688.91 125.973 L 648.292 166.591 C 644.1 170.782 637.305 170.782 633.113 166.591 C 628.922 162.399 628.922 155.603 633.113 151.412 L 673.731 110.794 L 616.289 110.794 C 610.361 110.794 605.556 105.989 605.556 100.061 C 605.556 94.133 610.361 89.328 616.289 89.328 L 673.731 89.328 L 633.113 48.71 C 628.921 44.518 628.921 37.723 633.113 33.531 C 637.304 29.34 644.1 29.34 648.291 33.531 L 688.91 74.15 L 688.91 16.707 C 688.91 10.779 693.715 5.974 699.643 5.974 C 705.571 5.974 710.376 10.779 710.376 16.707 L 710.376 74.15 L 750.994 33.532 C 755.185 29.34 761.981 29.34 766.172 33.532 C 770.364 37.723 770.364 44.519 766.172 48.71 L 725.554 89.328 L 782.997 89.328 C 788.924 89.328 793.73 94.133 793.73 100.061 C 793.73 105.989 788.924 110.794 782.997 110.794 L 725.554 110.794 L 766.172 151.412 C 770.363 155.603 770.363 162.399 766.172 166.59 Z" style="fill: rgb(166, 0, 0);"/>
  </g>
  <g transform="matrix(1, 0, 0, 1, 200.000003, 300.000004)">
    <rect x="400" width="200" height="200" style="fill: rgb(186, 218, 85); fill-opacity: 0;"/>
    <path d="M 566.29 33.532 C 570.481 37.723 570.481 44.519 566.29 48.71 L 514.939 100.061 L 566.289 151.412 C 570.481 155.603 570.481 162.399 566.289 166.59 C 562.098 170.782 555.302 170.782 551.11 166.59 L 499.76 115.24 L 448.409 166.591 C 444.218 170.782 437.422 170.782 433.231 166.591 C 429.039 162.399 429.039 155.603 433.231 151.412 L 484.582 100.062 L 433.23 48.71 C 429.039 44.518 429.039 37.723 433.23 33.531 C 437.422 29.34 444.217 29.34 448.409 33.531 L 499.76 84.883 L 551.111 33.532 C 555.302 29.34 562.098 29.34 566.29 33.532 Z" style="fill: rgb(166, 0, 0);"/>
  </g>
  <g transform="matrix(1, 0, 0, 1, 600.206003, 300.000004)">
    <rect x="200" width="199.794" height="200" style="fill: rgb(186, 218, 85); fill-opacity: 0;"/>
    <path d="M 393.964 100.061 C 393.964 105.989 389.159 110.794 383.231 110.794 L 310.61 110.794 L 310.61 183.415 C 310.61 189.343 305.805 194.148 299.877 194.148 C 293.949 194.148 289.144 189.343 289.144 183.415 L 289.144 110.794 L 216.523 110.794 C 210.595 110.794 205.79 105.989 205.79 100.061 C 205.79 94.133 210.595 89.328 216.523 89.328 L 289.144 89.328 L 289.144 16.707 C 289.144 10.779 293.949 5.974 299.877 5.974 C 305.805 5.974 310.61 10.779 310.61 16.707 L 310.61 89.328 L 383.231 89.328 C 389.159 89.328 393.964 94.133 393.964 100.061 Z" style="fill: rgb(166, 0, 0);"/>
  </g>
  <g transform="matrix(1, 0, 0, 1, 400.000006, 300.000004)">
    <rect x="600" width="200" height="200" style="fill: rgb(186, 218, 85); fill-opacity: 0;"/>
    <path d="M 766.172 166.59 C 761.98 170.782 755.185 170.782 750.993 166.59 L 710.376 125.973 L 710.376 183.415 C 710.376 189.343 705.571 194.148 699.643 194.148 C 693.715 194.148 688.91 189.343 688.91 183.415 L 688.91 125.973 L 648.292 166.591 C 644.1 170.782 637.305 170.782 633.113 166.591 C 628.922 162.399 628.922 155.603 633.113 151.412 L 673.731 110.794 L 616.289 110.794 C 610.361 110.794 605.556 105.989 605.556 100.061 C 605.556 94.133 610.361 89.328 616.289 89.328 L 673.731 89.328 L 633.113 48.71 C 628.921 44.518 628.921 37.723 633.113 33.531 C 637.304 29.34 644.1 29.34 648.291 33.531 L 688.91 74.15 L 688.91 16.707 C 688.91 10.779 693.715 5.974 699.643 5.974 C 705.571 5.974 710.376 10.779 710.376 16.707 L 710.376 74.15 L 750.994 33.532 C 755.185 29.34 761.981 29.34 766.172 33.532 C 770.364 37.723 770.364 44.519 766.172 48.71 L 725.554 89.328 L 782.997 89.328 C 788.924 89.328 793.73 94.133 793.73 100.061 C 793.73 105.989 788.924 110.794 782.997 110.794 L 725.554 110.794 L 766.172 151.412 C 770.363 155.603 770.363 162.399 766.172 166.59 Z" style="fill: rgb(166, 0, 0);"/>
  </g>
  <g transform="matrix(1, 0, 0, 1, 800.000012, 300.000004)">
    <rect x="400" width="200" height="200" style="fill: rgb(186, 218, 85); fill-opacity: 0;"/>
    <path d="M 566.29 33.532 C 570.481 37.723 570.481 44.519 566.29 48.71 L 514.939 100.061 L 566.289 151.412 C 570.481 155.603 570.481 162.399 566.289 166.59 C 562.098 170.782 555.302 170.782 551.11 166.59 L 499.76 115.24 L 448.409 166.591 C 444.218 170.782 437.422 170.782 433.231 166.591 C 429.039 162.399 429.039 155.603 433.231 151.412 L 484.582 100.062 L 433.23 48.71 C 429.039 44.518 429.039 37.723 433.23 33.531 C 437.422 29.34 444.217 29.34 448.409 33.531 L 499.76 84.883 L 551.111 33.532 C 555.302 29.34 562.098 29.34 566.29 33.532 Z" style="fill: rgb(166, 0, 0);"/>
  </g>
  <g transform="matrix(1, 0, 0, 1, 1199.999896, 300.000004)">
    <rect x="200" width="199.794" height="200" style="fill: rgb(186, 218, 85); fill-opacity: 0;"/>
    <path d="M 393.964 100.061 C 393.964 105.989 389.159 110.794 383.231 110.794 L 310.61 110.794 L 310.61 183.415 C 310.61 189.343 305.805 194.148 299.877 194.148 C 293.949 194.148 289.144 189.343 289.144 183.415 L 289.144 110.794 L 216.523 110.794 C 210.595 110.794 205.79 105.989 205.79 100.061 C 205.79 94.133 210.595 89.328 216.523 89.328 L 289.144 89.328 L 289.144 16.707 C 289.144 10.779 293.949 5.974 299.877 5.974 C 305.805 5.974 310.61 10.779 310.61 16.707 L 310.61 89.328 L 383.231 89.328 C 389.159 89.328 393.964 94.133 393.964 100.061 Z" style="fill: rgb(166, 0, 0);"/>
  </g>
  <g transform="matrix(1, 0, 0, 1, 999.79396, 300.000004)">
    <rect x="600" width="200" height="200" style="fill: rgb(186, 218, 85); fill-opacity: 0;"/>
    <path d="M 766.172 166.59 C 761.98 170.782 755.185 170.782 750.993 166.59 L 710.376 125.973 L 710.376 183.415 C 710.376 189.343 705.571 194.148 699.643 194.148 C 693.715 194.148 688.91 189.343 688.91 183.415 L 688.91 125.973 L 648.292 166.591 C 644.1 170.782 637.305 170.782 633.113 166.591 C 628.922 162.399 628.922 155.603 633.113 151.412 L 673.731 110.794 L 616.289 110.794 C 610.361 110.794 605.556 105.989 605.556 100.061 C 605.556 94.133 610.361 89.328 616.289 89.328 L 673.731 89.328 L 633.113 48.71 C 628.921 44.518 628.921 37.723 633.113 33.531 C 637.304 29.34 644.1 29.34 648.291 33.531 L 688.91 74.15 L 688.91 16.707 C 688.91 10.779 693.715 5.974 699.643 5.974 C 705.571 5.974 710.376 10.779 710.376 16.707 L 710.376 74.15 L 750.994 33.532 C 755.185 29.34 761.981 29.34 766.172 33.532 C 770.364 37.723 770.364 44.519 766.172 48.71 L 725.554 89.328 L 782.997 89.328 C 788.924 89.328 793.73 94.133 793.73 100.061 C 793.73 105.989 788.924 110.794 782.997 110.794 L 725.554 110.794 L 766.172 151.412 C 770.363 155.603 770.363 162.399 766.172 166.59 Z" style="fill: rgb(166, 0, 0);"/>
  </g>
  <g transform="matrix(1, 0, 0, 1, 1399.793966, 300.000004)">
    <rect x="400" width="200" height="200" style="fill: rgb(186, 218, 85); fill-opacity: 0;"/>
    <path d="M 566.29 33.532 C 570.481 37.723 570.481 44.519 566.29 48.71 L 514.939 100.061 L 566.289 151.412 C 570.481 155.603 570.481 162.399 566.289 166.59 C 562.098 170.782 555.302 170.782 551.11 166.59 L 499.76 115.24 L 448.409 166.591 C 444.218 170.782 437.422 170.782 433.231 166.591 C 429.039 162.399 429.039 155.603 433.231 151.412 L 484.582 100.062 L 433.23 48.71 C 429.039 44.518 429.039 37.723 433.23 33.531 C 437.422 29.34 444.217 29.34 448.409 33.531 L 499.76 84.883 L 551.111 33.532 C 555.302 29.34 562.098 29.34 566.29 33.532 Z" style="fill: rgb(166, 0, 0);"/>
  </g>
  <g transform="matrix(1, 0, 0, 1, 1799.793972, 300.000004)">
    <rect x="200" width="199.794" height="200" style="fill: rgb(186, 218, 85); fill-opacity: 0;"/>
    <path d="M 393.964 100.061 C 393.964 105.989 389.159 110.794 383.231 110.794 L 310.61 110.794 L 310.61 183.415 C 310.61 189.343 305.805 194.148 299.877 194.148 C 293.949 194.148 289.144 189.343 289.144 183.415 L 289.144 110.794 L 216.523 110.794 C 210.595 110.794 205.79 105.989 205.79 100.061 C 205.79 94.133 210.595 89.328 216.523 89.328 L 289.144 89.328 L 289.144 16.707 C 289.144 10.779 293.949 5.974 299.877 5.974 C 305.805 5.974 310.61 10.779 310.61 16.707 L 310.61 89.328 L 383.231 89.328 C 389.159 89.328 393.964 94.133 393.964 100.061 Z" style="fill: rgb(166, 0, 0);"/>
  </g>
  <g transform="matrix(1, 0, 0, 1, 1599.588037, 300.000004)">
    <rect x="600" width="200" height="200" style="fill: rgb(186, 218, 85); fill-opacity: 0;"/>
    <path d="M 766.172 166.59 C 761.98 170.782 755.185 170.782 750.993 166.59 L 710.376 125.973 L 710.376 183.415 C 710.376 189.343 705.571 194.148 699.643 194.148 C 693.715 194.148 688.91 189.343 688.91 183.415 L 688.91 125.973 L 648.292 166.591 C 644.1 170.782 637.305 170.782 633.113 166.591 C 628.922 162.399 628.922 155.603 633.113 151.412 L 673.731 110.794 L 616.289 110.794 C 610.361 110.794 605.556 105.989 605.556 100.061 C 605.556 94.133 610.361 89.328 616.289 89.328 L 673.731 89.328 L 633.113 48.71 C 628.921 44.518 628.921 37.723 633.113 33.531 C 637.304 29.34 644.1 29.34 648.291 33.531 L 688.91 74.15 L 688.91 16.707 C 688.91 10.779 693.715 5.974 699.643 5.974 C 705.571 5.974 710.376 10.779 710.376 16.707 L 710.376 74.15 L 750.994 33.532 C 755.185 29.34 761.981 29.34 766.172 33.532 C 770.364 37.723 770.364 44.519 766.172 48.71 L 725.554 89.328 L 782.997 89.328 C 788.924 89.328 793.73 94.133 793.73 100.061 C 793.73 105.989 788.924 110.794 782.997 110.794 L 725.554 110.794 L 766.172 151.412 C 770.363 155.603 770.363 162.399 766.172 166.59 Z" style="fill: rgb(166, 0, 0);"/>
  </g>
  <g transform="matrix(1, 0, 0, 1, 1999.588042, 300.000004)">
    <rect x="400" width="200" height="200" style="fill: rgb(186, 218, 85); fill-opacity: 0;"/>
    <path d="M 566.29 33.532 C 570.481 37.723 570.481 44.519 566.29 48.71 L 514.939 100.061 L 566.289 151.412 C 570.481 155.603 570.481 162.399 566.289 166.59 C 562.098 170.782 555.302 170.782 551.11 166.59 L 499.76 115.24 L 448.409 166.591 C 444.218 170.782 437.422 170.782 433.231 166.591 C 429.039 162.399 429.039 155.603 433.231 151.412 L 484.582 100.062 L 433.23 48.71 C 429.039 44.518 429.039 37.723 433.23 33.531 C 437.422 29.34 444.217 29.34 448.409 33.531 L 499.76 84.883 L 551.111 33.532 C 555.302 29.34 562.098 29.34 566.29 33.532 Z" style="fill: rgb(166, 0, 0);"/>
  </g>
  <g transform="matrix(1, 0, 0, 1, 2399.588171, 300.000004)">
    <rect x="200" width="199.794" height="200" style="fill: rgb(186, 218, 85); fill-opacity: 0;"/>
    <path d="M 393.964 100.061 C 393.964 105.989 389.159 110.794 383.231 110.794 L 310.61 110.794 L 310.61 183.415 C 310.61 189.343 305.805 194.148 299.877 194.148 C 293.949 194.148 289.144 189.343 289.144 183.415 L 289.144 110.794 L 216.523 110.794 C 210.595 110.794 205.79 105.989 205.79 100.061 C 205.79 94.133 210.595 89.328 216.523 89.328 L 289.144 89.328 L 289.144 16.707 C 289.144 10.779 293.949 5.974 299.877 5.974 C 305.805 5.974 310.61 10.779 310.61 16.707 L 310.61 89.328 L 383.231 89.328 C 389.159 89.328 393.964 94.133 393.964 100.061 Z" style="fill: rgb(166, 0, 0);"/>
  </g>
  <g transform="matrix(1, 0, 0, 1, 2199.382113, 300.000004)">
    <rect x="600" width="200" height="200" style="fill: rgb(186, 218, 85); fill-opacity: 0;"/>
    <path d="M 766.172 166.59 C 761.98 170.782 755.185 170.782 750.993 166.59 L 710.376 125.973 L 710.376 183.415 C 710.376 189.343 705.571 194.148 699.643 194.148 C 693.715 194.148 688.91 189.343 688.91 183.415 L 688.91 125.973 L 648.292 166.591 C 644.1 170.782 637.305 170.782 633.113 166.591 C 628.922 162.399 628.922 155.603 633.113 151.412 L 673.731 110.794 L 616.289 110.794 C 610.361 110.794 605.556 105.989 605.556 100.061 C 605.556 94.133 610.361 89.328 616.289 89.328 L 673.731 89.328 L 633.113 48.71 C 628.921 44.518 628.921 37.723 633.113 33.531 C 637.304 29.34 644.1 29.34 648.291 33.531 L 688.91 74.15 L 688.91 16.707 C 688.91 10.779 693.715 5.974 699.643 5.974 C 705.571 5.974 710.376 10.779 710.376 16.707 L 710.376 74.15 L 750.994 33.532 C 755.185 29.34 761.981 29.34 766.172 33.532 C 770.364 37.723 770.364 44.519 766.172 48.71 L 725.554 89.328 L 782.997 89.328 C 788.924 89.328 793.73 94.133 793.73 100.061 C 793.73 105.989 788.924 110.794 782.997 110.794 L 725.554 110.794 L 766.172 151.412 C 770.363 155.603 770.363 162.399 766.172 166.59 Z" style="fill: rgb(166, 0, 0);"/>
  </g>
  <g transform="matrix(1, 0, 0, 1, 2599.382119, 300.000004)">
    <rect x="400" width="200" height="200" style="fill: rgb(186, 218, 85); fill-opacity: 0;"/>
    <path d="M 566.29 33.532 C 570.481 37.723 570.481 44.519 566.29 48.71 L 514.939 100.061 L 566.289 151.412 C 570.481 155.603 570.481 162.399 566.289 166.59 C 562.098 170.782 555.302 170.782 551.11 166.59 L 499.76 115.24 L 448.409 166.591 C 444.218 170.782 437.422 170.782 433.231 166.591 C 429.039 162.399 429.039 155.603 433.231 151.412 L 484.582 100.062 L 433.23 48.71 C 429.039 44.518 429.039 37.723 433.23 33.531 C 437.422 29.34 444.217 29.34 448.409 33.531 L 499.76 84.883 L 551.111 33.532 C 555.302 29.34 562.098 29.34 566.29 33.532 Z" style="fill: rgb(166, 0, 0);"/>
  </g>
  <g transform="matrix(1, 0, 0, 1, 3000.206099, 300.000004)">
    <rect x="200" width="199.794" height="200" style="fill: rgb(186, 218, 85); fill-opacity: 0;"/>
    <path d="M 393.964 100.061 C 393.964 105.989 389.159 110.794 383.231 110.794 L 310.61 110.794 L 310.61 183.415 C 310.61 189.343 305.805 194.148 299.877 194.148 C 293.949 194.148 289.144 189.343 289.144 183.415 L 289.144 110.794 L 216.523 110.794 C 210.595 110.794 205.79 105.989 205.79 100.061 C 205.79 94.133 210.595 89.328 216.523 89.328 L 289.144 89.328 L 289.144 16.707 C 289.144 10.779 293.949 5.974 299.877 5.974 C 305.805 5.974 310.61 10.779 310.61 16.707 L 310.61 89.328 L 383.231 89.328 C 389.159 89.328 393.964 94.133 393.964 100.061 Z" style="fill: rgb(166, 0, 0);"/>
  </g>
  <g transform="matrix(1, 0, 0, 1, 2800.000042, 300.000004)">
    <rect x="600" width="200" height="200" style="fill: rgb(186, 218, 85); fill-opacity: 0;"/>
    <path d="M 766.172 166.59 C 761.98 170.782 755.185 170.782 750.993 166.59 L 710.376 125.973 L 710.376 183.415 C 710.376 189.343 705.571 194.148 699.643 194.148 C 693.715 194.148 688.91 189.343 688.91 183.415 L 688.91 125.973 L 648.292 166.591 C 644.1 170.782 637.305 170.782 633.113 166.591 C 628.922 162.399 628.922 155.603 633.113 151.412 L 673.731 110.794 L 616.289 110.794 C 610.361 110.794 605.556 105.989 605.556 100.061 C 605.556 94.133 610.361 89.328 616.289 89.328 L 673.731 89.328 L 633.113 48.71 C 628.921 44.518 628.921 37.723 633.113 33.531 C 637.304 29.34 644.1 29.34 648.291 33.531 L 688.91 74.15 L 688.91 16.707 C 688.91 10.779 693.715 5.974 699.643 5.974 C 705.571 5.974 710.376 10.779 710.376 16.707 L 710.376 74.15 L 750.994 33.532 C 755.185 29.34 761.981 29.34 766.172 33.532 C 770.364 37.723 770.364 44.519 766.172 48.71 L 725.554 89.328 L 782.997 89.328 C 788.924 89.328 793.73 94.133 793.73 100.061 C 793.73 105.989 788.924 110.794 782.997 110.794 L 725.554 110.794 L 766.172 151.412 C 770.363 155.603 770.363 162.399 766.172 166.59 Z" style="fill: rgb(166, 0, 0);"/>
  </g>
  <g transform="matrix(1, 0, 0, 1, 3200.000048, 300.000004)">
    <rect x="400" width="200" height="200" style="fill: rgb(186, 218, 85); fill-opacity: 0;"/>
    <path d="M 566.29 33.532 C 570.481 37.723 570.481 44.519 566.29 48.71 L 514.939 100.061 L 566.289 151.412 C 570.481 155.603 570.481 162.399 566.289 166.59 C 562.098 170.782 555.302 170.782 551.11 166.59 L 499.76 115.24 L 448.409 166.591 C 444.218 170.782 437.422 170.782 433.231 166.591 C 429.039 162.399 429.039 155.603 433.231 151.412 L 484.582 100.062 L 433.23 48.71 C 429.039 44.518 429.039 37.723 433.23 33.531 C 437.422 29.34 444.217 29.34 448.409 33.531 L 499.76 84.883 L 551.111 33.532 C 555.302 29.34 562.098 29.34 566.29 33.532 Z" style="fill: rgb(166, 0, 0);"/>
  </g>
  <g transform="matrix(1, 0, 0, 1, 3600.206108, 300.000004)">
    <rect x="200" width="199.794" height="200" style="fill: rgb(186, 218, 85); fill-opacity: 0;"/>
    <path d="M 393.964 100.061 C 393.964 105.989 389.159 110.794 383.231 110.794 L 310.61 110.794 L 310.61 183.415 C 310.61 189.343 305.805 194.148 299.877 194.148 C 293.949 194.148 289.144 189.343 289.144 183.415 L 289.144 110.794 L 216.523 110.794 C 210.595 110.794 205.79 105.989 205.79 100.061 C 205.79 94.133 210.595 89.328 216.523 89.328 L 289.144 89.328 L 289.144 16.707 C 289.144 10.779 293.949 5.974 299.877 5.974 C 305.805 5.974 310.61 10.779 310.61 16.707 L 310.61 89.328 L 383.231 89.328 C 389.159 89.328 393.964 94.133 393.964 100.061 Z" style="fill: rgb(166, 0, 0);"/>
  </g>
  <g transform="matrix(1, 0, 0, 1, 3400.000051, 300.000004)">
    <rect x="600" width="200" height="200" style="fill: rgb(186, 218, 85); fill-opacity: 0;"/>
    <path d="M 766.172 166.59 C 761.98 170.782 755.185 170.782 750.993 166.59 L 710.376 125.973 L 710.376 183.415 C 710.376 189.343 705.571 194.148 699.643 194.148 C 693.715 194.148 688.91 189.343 688.91 183.415 L 688.91 125.973 L 648.292 166.591 C 644.1 170.782 637.305 170.782 633.113 166.591 C 628.922 162.399 628.922 155.603 633.113 151.412 L 673.731 110.794 L 616.289 110.794 C 610.361 110.794 605.556 105.989 605.556 100.061 C 605.556 94.133 610.361 89.328 616.289 89.328 L 673.731 89.328 L 633.113 48.71 C 628.921 44.518 628.921 37.723 633.113 33.531 C 637.304 29.34 644.1 29.34 648.291 33.531 L 688.91 74.15 L 688.91 16.707 C 688.91 10.779 693.715 5.974 699.643 5.974 C 705.571 5.974 710.376 10.779 710.376 16.707 L 710.376 74.15 L 750.994 33.532 C 755.185 29.34 761.981 29.34 766.172 33.532 C 770.364 37.723 770.364 44.519 766.172 48.71 L 725.554 89.328 L 782.997 89.328 C 788.924 89.328 793.73 94.133 793.73 100.061 C 793.73 105.989 788.924 110.794 782.997 110.794 L 725.554 110.794 L 766.172 151.412 C 770.363 155.603 770.363 162.399 766.172 166.59 Z" style="fill: rgb(166, 0, 0);"/>
  </g>
  <g transform="matrix(1, 0, 0, 1, 3800.000057, 300.000004)">
    <rect x="400" width="200" height="200" style="fill: rgb(186, 218, 85); fill-opacity: 0;"/>
    <path d="M 566.29 33.532 C 570.481 37.723 570.481 44.519 566.29 48.71 L 514.939 100.061 L 566.289 151.412 C 570.481 155.603 570.481 162.399 566.289 166.59 C 562.098 170.782 555.302 170.782 551.11 166.59 L 499.76 115.24 L 448.409 166.591 C 444.218 170.782 437.422 170.782 433.231 166.591 C 429.039 162.399 429.039 155.603 433.231 151.412 L 484.582 100.062 L 433.23 48.71 C 429.039 44.518 429.039 37.723 433.23 33.531 C 437.422 29.34 444.217 29.34 448.409 33.531 L 499.76 84.883 L 551.111 33.532 C 555.302 29.34 562.098 29.34 566.29 33.532 Z" style="fill: rgb(166, 0, 0);"/>
  </g>
  <g transform="matrix(1, 0, 0, 1, 4200.205629, 300.000004)">
    <rect x="200" width="199.794" height="200" style="fill: rgb(186, 218, 85); fill-opacity: 0;"/>
    <path d="M 393.964 100.061 C 393.964 105.989 389.159 110.794 383.231 110.794 L 310.61 110.794 L 310.61 183.415 C 310.61 189.343 305.805 194.148 299.877 194.148 C 293.949 194.148 289.144 189.343 289.144 183.415 L 289.144 110.794 L 216.523 110.794 C 210.595 110.794 205.79 105.989 205.79 100.061 C 205.79 94.133 210.595 89.328 216.523 89.328 L 289.144 89.328 L 289.144 16.707 C 289.144 10.779 293.949 5.974 299.877 5.974 C 305.805 5.974 310.61 10.779 310.61 16.707 L 310.61 89.328 L 383.231 89.328 C 389.159 89.328 393.964 94.133 393.964 100.061 Z" style="fill: rgb(166, 0, 0);"/>
  </g>
</svg>