<svg xmlns:xlink="http://www.w3.org/1999/xlink" xmlns="http://www.w3.org/2000/svg" viewBox="200 600 4400 200" width="4400" height="200">
  <g transform="matrix(1, 0, 0, 1, -200.206012, 600.000009)">
    <rect x="400" width="200" height="200" style="fill: rgb(186, 218, 85); fill-opacity: 0;"/>
    <path d="M 566.29 33.532 C 570.481 37.723 570.481 44.519 566.29 48.71 L 514.939 100.061 L 566.289 151.412 C 570.481 155.603 570.481 162.399 566.289 166.59 C 562.098 170.782 555.302 170.782 551.11 166.59 L 499.76 115.24 L 448.409 166.591 C 444.218 170.782 437.422 170.782 433.231 166.591 C 429.039 162.399 429.039 155.603 433.231 151.412 L 484.582 100.062 L 433.23 48.71 C 429.039 44.518 429.039 37.723 433.23 33.531 C 437.422 29.34 444.217 29.34 448.409 33.531 L 499.76 84.883 L 551.111 33.532 C 555.302 29.34 562.098 29.34 566.29 33.532 Z" style="fill: rgb(166, 0, 0);"/>
  </g>
  <g transform="matrix(1, 0, 0, 1, -0.205994, 600.000009)">
    <rect x="400" width="200" height="200" style="fill: rgb(186, 218, 85); fill-opacity: 0;"/>
    <path d="M 566.29 33.532 C 570.481 37.723 570.481 44.519 566.29 48.71 L 514.939 100.061 L 566.289 151.412 C 570.481 155.603 570.481 162.399 566.289 166.59 C 562.098 170.782 555.302 170.782 551.11 166.59 L 499.76 115.24 L 448.409 166.591 C 444.218 170.782 437.422 170.782 433.231 166.591 C 429.039 162.399 429.039 155.603 433.231 151.412 L 484.582 100.062 L 433.23 48.71 C 429.039 44.518 429.039 37.723 433.23 33.531 C 437.422 29.34 444.217 29.34 448.409 33.531 L 499.76 84.883 L 551.111 33.532 C 555.302 29.34 562.098 29.34 566.29 33.532 Z" style="fill: rgb(166, 0, 0);"/>
  </g>
  <g transform="matrix(1, 0, 0, 1, 399.999975, 600.000009)">
    <rect x="400" width="200" height="200" style="fill: rgb(186, 218, 85); fill-opacity: 0;"/>
    <path d="M 566.29 33.532 C 570.481 37.723 570.481 44.519 566.29 48.71 L 514.939 100.061 L 566.289 151.412 C 570.481 155.603 570.481 162.399 566.289 166.59 C 562.098 170.782 555.302 170.782 551.11 166.59 L 499.76 115.24 L 448.409 166.591 C 444.218 170.782 437.422 170.782 433.231 166.591 C 429.039 162.399 429.039 155.603 433.231 151.412 L 484.582 100.062 L 433.23 48.71 C 429.039 44.518 429.039 37.723 433.23 33.531 C 437.422 29.34 444.217 29.34 448.409 33.531 L 499.76 84.883 L 551.111 33.532 C 555.302 29.34 562.098 29.34 566.29 33.532 Z" style="fill: rgb(166, 0, 0);"/>
  </g>
  <g transform="matrix(1, 0, 0, 1, -0.205993, 600.000009)">
    <rect x="600" width="200" height="200" style="fill: rgb(186, 218, 85); fill-opacity: 0;"/>
    <path d="M 766.172 166.59 C 761.98 170.782 755.185 170.782 750.993 166.59 L 710.376 125.973 L 710.376 183.415 C 710.376 189.343 705.571 194.148 699.643 194.148 C 693.715 194.148 688.91 189.343 688.91 183.415 L 688.91 125.973 L 648.292 166.591 C 644.1 170.782 637.305 170.782 633.113 166.591 C 628.922 162.399 628.922 155.603 633.113 151.412 L 673.731 110.794 L 616.289 110.794 C 610.361 110.794 605.556 105.989 605.556 100.061 C 605.556 94.133 610.361 89.328 616.289 89.328 L 673.731 89.328 L 633.113 48.71 C 628.921 44.518 628.921 37.723 633.113 33.531 C 637.304 29.34 644.1 29.34 648.291 33.531 L 688.91 74.15 L 688.91 16.707 C 688.91 10.779 693.715 5.974 699.643 5.974 C 705.571 5.974 710.376 10.779 710.376 16.707 L 710.376 74.15 L 750.994 33.532 C 755.185 29.34 761.981 29.34 766.172 33.532 C 770.364 37.723 770.364 44.519 766.172 48.71 L 725.554 89.328 L 782.997 89.328 C 788.924 89.328 793.73 94.133 793.73 100.061 C 793.73 105.989 788.924 110.794 782.997 110.794 L 725.554 110.794 L 766.172 151.412 C 770.363 155.603 770.363 162.399 766.172 166.59 Z" style="fill: rgb(166, 0, 0);"/>
  </g>
  <g transform="matrix(1, 0, 0, 1, 399.999975, 600.000009)">
    <rect x="600" width="200" height="200" style="fill: rgb(186, 218, 85); fill-opacity: 0;"/>
    <path d="M 766.172 166.59 C 761.98 170.782 755.185 170.782 750.993 166.59 L 710.376 125.973 L 710.376 183.415 C 710.376 189.343 705.571 194.148 699.643 194.148 C 693.715 194.148 688.91 189.343 688.91 183.415 L 688.91 125.973 L 648.292 166.591 C 644.1 170.782 637.305 170.782 633.113 166.591 C 628.922 162.399 628.922 155.603 633.113 151.412 L 673.731 110.794 L 616.289 110.794 C 610.361 110.794 605.556 105.989 605.556 100.061 C 605.556 94.133 610.361 89.328 616.289 89.328 L 673.731 89.328 L 633.113 48.71 C 628.921 44.518 628.921 37.723 633.113 33.531 C 637.304 29.34 644.1 29.34 648.291 33.531 L 688.91 74.15 L 688.91 16.707 C 688.91 10.779 693.715 5.974 699.643 5.974 C 705.571 5.974 710.376 10.779 710.376 16.707 L 710.376 74.15 L 750.994 33.532 C 755.185 29.34 761.981 29.34 766.172 33.532 C 770.364 37.723 770.364 44.519 766.172 48.71 L 725.554 89.328 L 782.997 89.328 C 788.924 89.328 793.73 94.133 793.73 100.061 C 793.73 105.989 788.924 110.794 782.997 110.794 L 725.554 110.794 L 766.172 151.412 C 770.363 155.603 770.363 162.399 766.172 166.59 Z" style="fill: rgb(166, 0, 0);"/>
  </g>
  <g transform="matrix(1, 0, 0, 1, 799.793957, 600.000009)">
    <rect x="400" width="200" height="200" style="fill: rgb(186, 218, 85); fill-opacity: 0;"/>
    <path d="M 566.29 33.532 C 570.481 37.723 570.481 44.519 566.29 48.71 L 514.939 100.061 L 566.289 151.412 C 570.481 155.603 570.481 162.399 566.289 166.59 C 562.098 170.782 555.302 170.782 551.11 166.59 L 499.76 115.24 L 448.409 166.591 C 444.218 170.782 437.422 170.782 433.231 166.591 C 429.039 162.399 429.039 155.603 433.231 151.412 L 484.582 100.062 L 433.23 48.71 C 429.039 44.518 429.039 37.723 433.23 33.531 C 437.422 29.34 444.217 29.34 448.409 33.531 L 499.76 84.883 L 551.111 33.532 C 555.302 29.34 562.098 29.34 566.29 33.532 Z" style="fill: rgb(166, 0, 0);"/>
  </g>
  <g transform="matrix(1, 0, 0, 1, 999.794021, 600.000009)">
    <rect x="400" width="200" height="200" style="fill: rgb(186, 218, 85); fill-opacity: 0;"/>
    <path d="M 566.29 33.532 C 570.481 37.723 570.481 44.519 566.29 48.71 L 514.939 100.061 L 566.289 151.412 C 570.481 155.603 570.481 162.399 566.289 166.59 C 562.098 170.782 555.302 170.782 551.11 166.59 L 499.76 115.24 L 448.409 166.591 C 444.218 170.782 437.422 170.782 433.231 166.591 C 429.039 162.399 429.039 155.603 433.231 151.412 L 484.582 100.062 L 433.23 48.71 C 429.039 44.518 429.039 37.723 433.23 33.531 C 437.422 29.34 444.217 29.34 448.409 33.531 L 499.76 84.883 L 551.111 33.532 C 555.302 29.34 562.098 29.34 566.29 33.532 Z" style="fill: rgb(166, 0, 0);"/>
  </g>
  <g transform="matrix(1, 0, 0, 1, 1400.000021, 600.000009)">
    <rect x="400" width="200" height="200" style="fill: rgb(186, 218, 85); fill-opacity: 0;"/>
    <path d="M 566.29 33.532 C 570.481 37.723 570.481 44.519 566.29 48.71 L 514.939 100.061 L 566.289 151.412 C 570.481 155.603 570.481 162.399 566.289 166.59 C 562.098 170.782 555.302 170.782 551.11 166.59 L 499.76 115.24 L 448.409 166.591 C 444.218 170.782 437.422 170.782 433.231 166.591 C 429.039 162.399 429.039 155.603 433.231 151.412 L 484.582 100.062 L 433.23 48.71 C 429.039 44.518 429.039 37.723 433.23 33.531 C 437.422 29.34 444.217 29.34 448.409 33.531 L 499.76 84.883 L 551.111 33.532 C 555.302 29.34 562.098 29.34 566.29 33.532 Z" style="fill: rgb(166, 0, 0);"/>
  </g>
  <g transform="matrix(1, 0, 0, 1, 999.794021, 600.000009)">
    <rect x="600" width="200" height="200" style="fill: rgb(186, 218, 85); fill-opacity: 0;"/>
    <path d="M 766.172 166.59 C 761.98 170.782 755.185 170.782 750.993 166.59 L 710.376 125.973 L 710.376 183.415 C 710.376 189.343 705.571 194.148 699.643 194.148 C 693.715 194.148 688.91 189.343 688.91 183.415 L 688.91 125.973 L 648.292 166.591 C 644.1 170.782 637.305 170.782 633.113 166.591 C 628.922 162.399 628.922 155.603 633.113 151.412 L 673.731 110.794 L 616.289 110.794 C 610.361 110.794 605.556 105.989 605.556 100.061 C 605.556 94.133 610.361 89.328 616.289 89.328 L 673.731 89.328 L 633.113 48.71 C 628.921 44.518 628.921 37.723 633.113 33.531 C 637.304 29.34 644.1 29.34 648.291 33.531 L 688.91 74.15 L 688.91 16.707 C 688.91 10.779 693.715 5.974 699.643 5.974 C 705.571 5.974 710.376 10.779 710.376 16.707 L 710.376 74.15 L 750.994 33.532 C 755.185 29.34 761.981 29.34 766.172 33.532 C 770.364 37.723 770.364 44.519 766.172 48.71 L 725.554 89.328 L 782.997 89.328 C 788.924 89.328 793.73 94.133 793.73 100.061 C 793.73 105.989 788.924 110.794 782.997 110.794 L 725.554 110.794 L 766.172 151.412 C 770.363 155.603 770.363 162.399 766.172 166.59 Z" style="fill: rgb(166, 0, 0);"/>
  </g>
  <g transform="matrix(1, 0, 0, 1, 1400.000021, 600.000009)">
    <rect x="600" width="200" height="200" style="fill: rgb(186, 218, 85); fill-opacity: 0;"/>
    <path d="M 766.172 166.59 C 761.98 170.782 755.185 170.782 750.993 166.59 L 710.376 125.973 L 710.376 183.415 C 710.376 189.343 705.571 194.148 699.643 194.148 C 693.715 194.148 688.91 189.343 688.91 183.415 L 688.91 125.973 L 648.292 166.591 C 644.1 170.782 637.305 170.782 633.113 166.591 C 628.922 162.399 628.922 155.603 633.113 151.412 L 673.731 110.794 L 616.289 110.794 C 610.361 110.794 605.556 105.989 605.556 100.061 C 605.556 94.133 610.361 89.328 616.289 89.328 L 673.731 89.328 L 633.113 48.71 C 628.921 44.518 628.921 37.723 633.113 33.531 C 637.304 29.34 644.1 29.34 648.291 33.531 L 688.91 74.15 L 688.91 16.707 C 688.91 10.779 693.715 5.974 699.643 5.974 C 705.571 5.974 710.376 10.779 710.376 16.707 L 710.376 74.15 L 750.994 33.532 C 755.185 29.34 761.981 29.34 766.172 33.532 C 770.364 37.723 770.364 44.519 766.172 48.71 L 725.554 89.328 L 782.997 89.328 C 788.924 89.328 793.73 94.133 793.73 100.061 C 793.73 105.989 788.924 110.794 782.997 110.794 L 725.554 110.794 L 766.172 151.412 C 770.363 155.603 770.363 162.399 766.172 166.59 Z" style="fill: rgb(166, 0, 0);"/>
  </g>
  <g transform="matrix(1, 0, 0, 1, 1800.000027, 600.000009)">
    <rect x="400" width="200" height="200" style="fill: rgb(186, 218, 85); fill-opacity: 0;"/>
    <path d="M 566.29 33.532 C 570.481 37.723 570.481 44.519 566.29 48.71 L 514.939 100.061 L 566.289 151.412 C 570.481 155.603 570.481 162.399 566.289 166.59 C 562.098 170.782 555.302 170.782 551.11 166.59 L 499.76 115.24 L 448.409 166.591 C 444.218 170.782 437.422 170.782 433.231 166.591 C 429.039 162.399 429.039 155.603 433.231 151.412 L 484.582 100.062 L 433.23 48.71 C 429.039 44.518 429.039 37.723 433.23 33.531 C 437.422 29.34 444.217 29.34 448.409 33.531 L 499.76 84.883 L 551.111 33.532 C 555.302 29.34 562.098 29.34 566.29 33.532 Z" style="fill: rgb(166, 0, 0);"/>
  </g>
  <g transform="matrix(1, 0, 0, 1, 2000.00003, 600.000009)">
    <rect x="400" width="200" height="200" style="fill: rgb(186, 218, 85); fill-opacity: 0;"/>
    <path d="M 566.29 33.532 C 570.481 37.723 570.481 44.519 566.29 48.71 L 514.939 100.061 L 566.289 151.412 C 570.481 155.603 570.481 162.399 566.289 166.59 C 562.098 170.782 555.302 170.782 551.11 166.59 L 499.76 115.24 L 448.409 166.591 C 444.218 170.782 437.422 170.782 433.231 166.591 C 429.039 162.399 429.039 155.603 433.231 151.412 L 484.582 100.062 L 433.23 48.71 C 429.039 44.518 429.039 37.723 433.23 33.531 C 437.422 29.34 444.217 29.34 448.409 33.531 L 499.76 84.883 L 551.111 33.532 C 555.302 29.34 562.098 29.34 566.29 33.532 Z" style="fill: rgb(166, 0, 0);"/>
  </g>
  <g transform="matrix(1, 0, 0, 1, 2400.20609, 600.000009)">
    <rect x="400" width="200" height="200" style="fill: rgb(186, 218, 85); fill-opacity: 0;"/>
    <path d="M 566.29 33.532 C 570.481 37.723 570.481 44.519 566.29 48.71 L 514.939 100.061 L 566.289 151.412 C 570.481 155.603 570.481 162.399 566.289 166.59 C 562.098 170.782 555.302 170.782 551.11 166.59 L 499.76 115.24 L 448.409 166.591 C 444.218 170.782 437.422 170.782 433.231 166.591 C 429.039 162.399 429.039 155.603 433.231 151.412 L 484.582 100.062 L 433.23 48.71 C 429.039 44.518 429.039 37.723 433.23 33.531 C 437.422 29.34 444.217 29.34 448.409 33.531 L 499.76 84.883 L 551.111 33.532 C 555.302 29.34 562.098 29.34 566.29 33.532 Z" style="fill: rgb(166, 0, 0);"/>
  </g>
  <g transform="matrix(1, 0, 0, 1, 2000.00003, 600.000009)">
    <rect x="600" width="200" height="200" style="fill: rgb(186, 218, 85); fill-opacity: 0;"/>
    <path d="M 766.172 166.59 C 761.98 170.782 755.185 170.782 750.993 166.59 L 710.376 125.973 L 710.376 183.415 C 710.376 189.343 705.571 194.148 699.643 194.148 C 693.715 194.148 688.91 189.343 688.91 183.415 L 688.91 125.973 L 648.292 166.591 C 644.1 170.782 637.305 170.782 633.113 166.591 C 628.922 162.399 628.922 155.603 633.113 151.412 L 673.731 110.794 L 616.289 110.794 C 610.361 110.794 605.556 105.989 605.556 100.061 C 605.556 94.133 610.361 89.328 616.289 89.328 L 673.731 89.328 L 633.113 48.71 C 628.921 44.518 628.921 37.723 633.113 33.531 C 637.304 29.34 644.1 29.34 648.291 33.531 L 688.91 74.15 L 688.91 16.707 C 688.91 10.779 693.715 5.974 699.643 5.974 C 705.571 5.974 710.376 10.779 710.376 16.707 L 710.376 74.15 L 750.994 33.532 C 755.185 29.34 761.981 29.34 766.172 33.532 C 770.364 37.723 770.364 44.519 766.172 48.71 L 725.554 89.328 L 782.997 89.328 C 788.924 89.328 793.73 94.133 793.73 100.061 C 793.73 105.989 788.924 110.794 782.997 110.794 L 725.554 110.794 L 766.172 151.412 C 770.363 155.603 770.363 162.399 766.172 166.59 Z" style="fill: rgb(166, 0, 0);"/>
  </g>
  <g transform="matrix(1, 0, 0, 1, 2400.20609, 600.000009)">
    <rect x="600" width="200" height="200" style="fill: rgb(186, 218, 85); fill-opacity: 0;"/>
    <path d="M 766.172 166.59 C 761.98 170.782 755.185 170.782 750.993 166.59 L 710.376 125.973 L 710.376 183.415 C 710.376 189.343 705.571 194.148 699.643 194.148 C 693.715 194.148 688.91 189.343 688.91 183.415 L 688.91 125.973 L 648.292 166.591 C 644.1 170.782 637.305 170.782 633.113 166.591 C 628.922 162.399 628.922 155.603 633.113 151.412 L 673.731 110.794 L 616.289 110.794 C 610.361 110.794 605.556 105.989 605.556 100.061 C 605.556 94.133 610.361 89.328 616.289 89.328 L 673.731 89.328 L 633.113 48.71 C 628.921 44.518 628.921 37.723 633.113 33.531 C 637.304 29.34 644.1 29.34 648.291 33.531 L 688.91 74.15 L 688.91 16.707 C 688.91 10.779 693.715 5.974 699.643 5.974 C 705.571 5.974 710.376 10.779 710.376 16.707 L 710.376 74.15 L 750.994 33.532 C 755.185 29.34 761.981 29.34 766.172 33.532 C 770.364 37.723 770.364 44.519 766.172 48.71 L 725.554 89.328 L 782.997 89.328 C 788.924 89.328 793.73 94.133 793.73 100.061 C 793.73 105.989 788.924 110.794 782.997 110.794 L 725.554 110.794 L 766.172 151.412 C 770.363 155.603 770.363 162.399 766.172 166.59 Z" style="fill: rgb(166, 0, 0);"/>
  </g>
  <g transform="matrix(1, 0, 0, 1, 2799.382122, 600.000009)">
    <rect x="400" width="200" height="200" style="fill: rgb(186, 218, 85); fill-opacity: 0;"/>
    <path d="M 566.29 33.532 C 570.481 37.723 570.481 44.519 566.29 48.71 L 514.939 100.061 L 566.289 151.412 C 570.481 155.603 570.481 162.399 566.289 166.59 C 562.098 170.782 555.302 170.782 551.11 166.59 L 499.76 115.24 L 448.409 166.591 C 444.218 170.782 437.422 170.782 433.231 166.591 C 429.039 162.399 429.039 155.603 433.231 151.412 L 484.582 100.062 L 433.23 48.71 C 429.039 44.518 429.039 37.723 433.23 33.531 C 437.422 29.34 444.217 29.34 448.409 33.531 L 499.76 84.883 L 551.111 33.532 C 555.302 29.34 562.098 29.34 566.29 33.532 Z" style="fill: rgb(166, 0, 0);"/>
  </g>
  <g transform="matrix(1, 0, 0, 1, 2999.382125, 600.000009)">
    <rect x="400" width="200" height="200" style="fill: rgb(186, 218, 85); fill-opacity: 0;"/>
    <path d="M 566.29 33.532 C 570.481 37.723 570.481 44.519 566.29 48.71 L 514.939 100.061 L 566.289 151.412 C 570.481 155.603 570.481 162.399 566.289 166.59 C 562.098 170.782 555.302 170.782 551.11 166.59 L 499.76 115.24 L 448.409 166.591 C 444.218 170.782 437.422 170.782 433.231 166.591 C 429.039 162.399 429.039 155.603 433.231 151.412 L 484.582 100.062 L 433.23 48.71 C 429.039 44.518 429.039 37.723 433.23 33.531 C 437.422 29.34 444.217 29.34 448.409 33.531 L 499.76 84.883 L 551.111 33.532 C 555.302 29.34 562.098 29.34 566.29 33.532 Z" style="fill: rgb(166, 0, 0);"/>
  </g>
  <g transform="matrix(1, 0, 0, 1, 3399.588185, 600.000009)">
    <rect x="400" width="200" height="200" style="fill: rgb(186, 218, 85); fill-opacity: 0;"/>
    <path d="M 566.29 33.532 C 570.481 37.723 570.481 44.519 566.29 48.71 L 514.939 100.061 L 566.289 151.412 C 570.481 155.603 570.481 162.399 566.289 166.59 C 562.098 170.782 555.302 170.782 551.11 166.59 L 499.76 115.24 L 448.409 166.591 C 444.218 170.782 437.422 170.782 433.231 166.591 C 429.039 162.399 429.039 155.603 433.231 151.412 L 484.582 100.062 L 433.23 48.71 C 429.039 44.518 429.039 37.723 433.23 33.531 C 437.422 29.34 444.217 29.34 448.409 33.531 L 499.76 84.883 L 551.111 33.532 C 555.302 29.34 562.098 29.34 566.29 33.532 Z" style="fill: rgb(166, 0, 0);"/>
  </g>
  <g transform="matrix(1, 0, 0, 1, 2999.382125, 600.000009)">
    <rect x="600" width="200" height="200" style="fill: rgb(186, 218, 85); fill-opacity: 0;"/>
    <path d="M 766.172 166.59 C 761.98 170.782 755.185 170.782 750.993 166.59 L 710.376 125.973 L 710.376 183.415 C 710.376 189.343 705.571 194.148 699.643 194.148 C 693.715 194.148 688.91 189.343 688.91 183.415 L 688.91 125.973 L 648.292 166.591 C 644.1 170.782 637.305 170.782 633.113 166.591 C 628.922 162.399 628.922 155.603 633.113 151.412 L 673.731 110.794 L 616.289 110.794 C 610.361 110.794 605.556 105.989 605.556 100.061 C 605.556 94.133 610.361 89.328 616.289 89.328 L 673.731 89.328 L 633.113 48.71 C 628.921 44.518 628.921 37.723 633.113 33.531 C 637.304 29.34 644.1 29.34 648.291 33.531 L 688.91 74.15 L 688.91 16.707 C 688.91 10.779 693.715 5.974 699.643 5.974 C 705.571 5.974 710.376 10.779 710.376 16.707 L 710.376 74.15 L 750.994 33.532 C 755.185 29.34 761.981 29.34 766.172 33.532 C 770.364 37.723 770.364 44.519 766.172 48.71 L 725.554 89.328 L 782.997 89.328 C 788.924 89.328 793.73 94.133 793.73 100.061 C 793.73 105.989 788.924 110.794 782.997 110.794 L 725.554 110.794 L 766.172 151.412 C 770.363 155.603 770.363 162.399 766.172 166.59 Z" style="fill: rgb(166, 0, 0);"/>
  </g>
  <g transform="matrix(1, 0, 0, 1, 3399.588185, 600.000009)">
    <rect x="600" width="200" height="200" style="fill: rgb(186, 218, 85); fill-opacity: 0;"/>
    <path d="M 766.172 166.59 C 761.98 170.782 755.185 170.782 750.993 166.59 L 710.376 125.973 L 710.376 183.415 C 710.376 189.343 705.571 194.148 699.643 194.148 C 693.715 194.148 688.91 189.343 688.91 183.415 L 688.91 125.973 L 648.292 166.591 C 644.1 170.782 637.305 170.782 633.113 166.591 C 628.922 162.399 628.922 155.603 633.113 151.412 L 673.731 110.794 L 616.289 110.794 C 610.361 110.794 605.556 105.989 605.556 100.061 C 605.556 94.133 610.361 89.328 616.289 89.328 L 673.731 89.328 L 633.113 48.71 C 628.921 44.518 628.921 37.723 633.113 33.531 C 637.304 29.34 644.1 29.34 648.291 33.531 L 688.91 74.15 L 688.91 16.707 C 688.91 10.779 693.715 5.974 699.643 5.974 C 705.571 5.974 710.376 10.779 710.376 16.707 L 710.376 74.15 L 750.994 33.532 C 755.185 29.34 761.981 29.34 766.172 33.532 C 770.364 37.723 770.364 44.519 766.172 48.71 L 725.554 89.328 L 782.997 89.328 C 788.924 89.328 793.73 94.133 793.73 100.061 C 793.73 105.989 788.924 110.794 782.997 110.794 L 725.554 110.794 L 766.172 151.412 C 770.363 155.603 770.363 162.399 766.172 166.59 Z" style="fill: rgb(166, 0, 0);"/>
  </g>
  <g transform="matrix(1, 0, 0, 1, 3800.205623, 600.000009)">
    <rect x="400" width="200" height="200" style="fill: rgb(186, 218, 85); fill-opacity: 0;"/>
    <path d="M 566.29 33.532 C 570.481 37.723 570.481 44.519 566.29 48.71 L 514.939 100.061 L 566.289 151.412 C 570.481 155.603 570.481 162.399 566.289 166.59 C 562.098 170.782 555.302 170.782 551.11 166.59 L 499.76 115.24 L 448.409 166.591 C 444.218 170.782 437.422 170.782 433.231 166.591 C 429.039 162.399 429.039 155.603 433.231 151.412 L 484.582 100.062 L 433.23 48.71 C 429.039 44.518 429.039 37.723 433.23 33.531 C 437.422 29.34 444.217 29.34 448.409 33.531 L 499.76 84.883 L 551.111 33.532 C 555.302 29.34 562.098 29.34 566.29 33.532 Z" style="fill: rgb(166, 0, 0);"/>
  </g>
  <g transform="matrix(1, 0, 0, 1, 4000.205626, 600.000009)">
    <rect x="400" width="200" height="200" style="fill: rgb(186, 218, 85); fill-opacity: 0;"/>
    <path d="M 566.29 33.532 C 570.481 37.723 570.481 44.519 566.29 48.71 L 514.939 100.061 L 566.289 151.412 C 570.481 155.603 570.481 162.399 566.289 166.59 C 562.098 170.782 555.302 170.782 551.11 166.59 L 499.76 115.24 L 448.409 166.591 C 444.218 170.782 437.422 170.782 433.231 166.591 C 429.039 162.399 429.039 155.603 433.231 151.412 L 484.582 100.062 L 433.23 48.71 C 429.039 44.518 429.039 37.723 433.23 33.531 C 437.422 29.34 444.217 29.34 448.409 33.531 L 499.76 84.883 L 551.111 33.532 C 555.302 29.34 562.098 29.34 566.29 33.532 Z" style="fill: rgb(166, 0, 0);"/>
  </g>
</svg>