<svg xmlns="http://www.w3.org/2000/svg" version="1.0" viewBox="0 0 300.73 363.38"><path d="M305.14 553.93S92.5 384.16 245.74 335.44c153.44-48.79 93.34 210.01 93.34 210.01z" style="stroke-linejoin:round;fill-rule:evenodd;stroke:#000;stroke-width:4;fill:#502d16" transform="translate(-188.23 -327.31)"/><path d="M513.69 561.96a121.5 121.5 0 1 1-243 0 121.5 121.5 0 1 1 243 0" style="stroke-linejoin:round;stroke:#000;stroke-linecap:round;stroke-width:4;fill:#784421" transform="translate(-214.961 -327.31)"/><path d="M177.22 113.16c-24.51 0-47.32 7.25-66.41 19.75 8.54 30.08 35.95 52.24 68.63 52.81 1.08 1.85 2.11 3.32 2.75 3.78 2.01 1.45 12.86 2.01 14.87.34.99-.81 2.79-3.71 4.25-7.03 22.48-6.64 40.43-23.88 48.1-45.9-20.19-14.94-45.17-23.75-72.19-23.75" style="fill:#000;fill-opacity:.31373"/><path d="M440.04 422.84a49.103 49.103 0 1 1-98.21 0 49.103 49.103 0 1 1 98.21 0" style="fill:#000;fill-opacity:.31373" transform="translate(-35.04 19.18)scale(.46795)"/><path d="M365.46 440.47c-12.93 0-25.38 2.04-37.07 5.78 10.52-2.46 21.61-3.78 33.07-3.78 31.43 0 60.1 9.88 81.68 26.09-21.06-17.54-48.15-28.09-77.68-28.09m115.06 82.37a84 84 0 0 1 2.44 20.07c0 55.44-54.44 100.43-121.5 100.43-56.09 0-103.31-31.46-117.28-74.18 3.72 63.72 56.62 114.31 121.28 114.31 67.06 0 121.5-54.43 121.5-121.5 0-13.68-2.26-26.85-6.44-39.13" style="fill:#000;fill-opacity:.31373" transform="translate(-188.23 -327.31)"/><path d="M97.562 21.875c-11.055 0-20.031 8.976-20.031 20.031 0 7.155 3.758 13.426 9.407 16.969a72.3 72.3 0 0 0-9.407 35.719c0 40.136 32.549 72.716 72.689 72.716 40.13 0 72.72-32.58 72.72-72.716 0-12.984-3.44-25.165-9.41-35.719 5.64-3.545 9.41-9.824 9.41-16.969 0-11.055-8.98-20.031-20.03-20.031-7.15 0-13.4 3.771-16.94 9.406-10.56-5.979-22.76-9.406-35.75-9.406s-25.16 3.43-35.72 9.406c-3.55-5.635-9.79-9.406-16.938-9.406" style="stroke-linejoin:round;stroke:#000;stroke-linecap:round;stroke-width:4;fill:#784421" transform="translate(27 9.95)"/><path d="M424.33 614.22c-30.4 0-55.09 24.69-55.09 55.09 0 6.29 1.06 12.31 3 17.94h104.15c1.95-5.63 3-11.65 3-17.94 0-30.4-24.65-55.09-55.06-55.09M314.14 614.22c-30.4 0-55.06 24.69-55.06 55.09 0 6.29 1.06 12.31 3 17.94h104.16c1.94-5.63 3-11.65 3-17.94 0-30.4-24.69-55.09-55.1-55.09" style="stroke-linejoin:round;stroke:#000;stroke-linecap:round;stroke-width:4;fill:#784421" transform="translate(-188.23 -327.31)"/><path d="M371.42 413.4a9.443 9.443 0 1 1-18.89 0 9.443 9.443 0 1 1 18.89 0" style="stroke-linejoin:round;stroke:#000;stroke-linecap:round;stroke-width:1.8462;fill:#fff" transform="translate(-629.4 -805.52)scale(2.1667)"/><path d="M371.42 413.4a9.443 9.443 0 1 1-18.89 0 9.443 9.443 0 1 1 18.89 0" style="stroke-linejoin:round;stroke:#000;stroke-linecap:round;stroke-width:1.8462;fill:#fff" transform="translate(-584.07 -805.52)scale(2.1667)"/><path d="M377.08 426.93a6.61 6.61 0 1 1-13.22 0 6.61 6.61 0 1 1 13.22 0" style="fill:#000" transform="translate(-175.224 -332.82)"/><path d="M347.04 459.51c4.14-6.99 29.55-7.32 34.87-.48 5.04 6.51-7.58 25.02-17.44 24.26-9.82-.75-21.66-16.65-17.43-23.78" style="fill-rule:evenodd;fill:#000" transform="translate(-188.23 -327.31)"/><path d="M354 671.86a17.5 17.5 0 1 1-35 0 17.5 17.5 0 1 1 35 0" style="stroke-linejoin:round;stroke:#000;stroke-linecap:round;stroke-width:4;fill:#502d16" transform="matrix(.84286 0 0 1 -177.332 -327.81)"/><path d="M354 671.86a17.5 17.5 0 1 1-35 0 17.5 17.5 0 1 1 35 0" style="stroke-linejoin:round;stroke:#000;stroke-linecap:round;stroke-width:4;fill:#502d16" transform="matrix(.84286 0 0 1 -140.332 -327.81)"/><path d="M354 671.86a17.5 17.5 0 1 1-35 0 17.5 17.5 0 1 1 35 0" style="stroke-linejoin:round;stroke:#000;stroke-linecap:round;stroke-width:4;fill:#502d16" transform="matrix(.84286 0 0 1 -157.832 -327.81)"/><path d="M354 671.86a17.5 17.5 0 1 1-35 0 17.5 17.5 0 1 1 35 0" style="stroke-linejoin:round;stroke:#000;stroke-linecap:round;stroke-width:4;fill:#502d16" transform="matrix(.84286 0 0 1 -63.83 -327.81)"/><path d="M354 671.86a17.5 17.5 0 1 1-35 0 17.5 17.5 0 1 1 35 0" style="stroke-linejoin:round;stroke:#000;stroke-linecap:round;stroke-width:4;fill:#502d16" transform="matrix(.84286 0 0 1 -26.83 -327.81)"/><path d="M354 671.86a17.5 17.5 0 1 1-35 0 17.5 17.5 0 1 1 35 0" style="stroke-linejoin:round;stroke:#000;stroke-linecap:round;stroke-width:4;fill:#502d16" transform="matrix(.84286 0 0 1 -44.33 -327.81)"/><path d="M440.04 422.84a49.103 49.103 0 1 1-98.21 0 49.103 49.103 0 1 1 98.21 0" style="fill:#000;fill-opacity:.31373" transform="scale(.46794)rotate(15 274.05 683.02)"/><path d="M440.04 422.84a49.103 49.103 0 1 1-98.21 0 49.103 49.103 0 1 1 98.21 0" style="stroke-linejoin:round;stroke:#000;stroke-linecap:round;stroke-width:8.5479;fill:#784421" transform="rotate(-29.999 189.284 277.232)scale(.46795)"/><path d="M440.04 422.84a49.103 49.103 0 1 1-98.21 0 49.103 49.103 0 1 1 98.21 0" style="stroke-linejoin:round;stroke:#000;stroke-linecap:round;stroke-width:8.5479;fill:#784421" transform="rotate(45 179.806 235.348)scale(.46795)"/><path d="M354 671.86a17.5 17.5 0 1 1-35 0 17.5 17.5 0 1 1 35 0" style="stroke-linejoin:round;stroke:#000;stroke-linecap:round;stroke-width:7.6177;fill:#502d16" transform="matrix(.39134 -.22594 .25714 .44538 -162.693 .53)"/><path d="M354 671.86a17.5 17.5 0 1 1-35 0 17.5 17.5 0 1 1 35 0" style="stroke-linejoin:round;stroke:#000;stroke-linecap:round;stroke-width:7.6177;fill:#502d16" transform="matrix(.39134 -.22594 .25714 .44538 -145.514 -9.38)"/><path d="M354 671.86a17.5 17.5 0 1 1-35 0 17.5 17.5 0 1 1 35 0" style="stroke-linejoin:round;stroke:#000;stroke-linecap:round;stroke-width:7.6177;fill:#502d16" transform="matrix(.39134 -.22594 .25714 .44538 -151.639 -.19)"/><path d="M354 671.86a17.5 17.5 0 1 1-35 0 17.5 17.5 0 1 1 35 0" style="stroke-linejoin:round;stroke:#000;stroke-linecap:round;stroke-width:7.6177;fill:#502d16" transform="matrix(-.39134 -.22594 -.25714 .44538 516.46 1.44)"/><path d="M354 671.86a17.5 17.5 0 1 1-35 0 17.5 17.5 0 1 1 35 0" style="stroke-linejoin:round;stroke:#000;stroke-linecap:round;stroke-width:7.6177;fill:#502d16" transform="matrix(-.39134 -.22594 -.25714 .44538 499.28 -8.48)"/><path d="M354 671.86a17.5 17.5 0 1 1-35 0 17.5 17.5 0 1 1 35 0" style="stroke-linejoin:round;stroke:#000;stroke-linecap:round;stroke-width:7.6177;fill:#502d16" transform="matrix(-.39134 -.22594 -.25714 .44538 505.41 .71)"/><path d="M418.38 367.64c-4.02 0-7.53 2.11-9.53 5.28a57.2 57.2 0 0 1 15.57 15.56c3.15-2 5.26-5.54 5.26-9.55 0-6.23-5.07-11.29-11.3-11.29" style="stroke-linejoin:round;stroke:#000;stroke-linecap:round;stroke-width:4;fill:#502d16" transform="translate(-188.23 -327.31)"/><path d="M377.08 426.93a6.61 6.61 0 1 1-13.22 0 6.61 6.61 0 1 1 13.22 0" style="fill:#000" transform="translate(-209.639 -332.82)"/><path d="M312.75 367.64c4.01 0 7.52 2.11 9.52 5.28a57.5 57.5 0 0 0-15.57 15.56c-3.15-2-5.25-5.54-5.25-9.55 0-6.23 5.06-11.29 11.3-11.29" style="stroke-linejoin:round;stroke:#000;stroke-linecap:round;stroke-width:4;fill:#502d16" transform="translate(-188.23 -327.31)"/><path d="M217.81 67.812a73 73 0 0 1 1.13 12.782c0 40.136-32.59 72.716-72.72 72.716-30.64 0-56.84-19-67.532-45.84 6.082 34 35.792 59.84 71.532 59.84 40.13 0 72.72-32.58 72.72-72.716 0-9.463-1.83-18.491-5.13-26.782" style="fill:#000;fill-opacity:.31373" transform="translate(27 9.95)"/><path d="M426.92 430.24c10.87-5 37.02 12.72 35.95 17.96-15.52-5.5-23.21-5.51-31.69-2.08 9.29 3.86 19.46 12.9 20.05 22.22-6.45-5.43-18.31-10.54-30.42-8.29 6.08 7.18 14.31 13.78 12.09 23.19-7.52-7.97-14.93-9.06-22.35-11.04M304.3 430.24c-10.87-5-37.02 12.72-35.95 17.96 15.52-5.5 23.21-5.51 31.69-2.08-9.29 3.86-19.46 12.9-20.05 22.22 6.45-5.43 18.31-10.54 30.42-8.29-6.08 7.18-14.31 13.78-12.09 23.19 7.52-7.97 14.92-9.06 22.34-11.04" style="stroke-linejoin:round;fill-rule:evenodd;stroke:#000;stroke-linecap:round;stroke-width:4;fill:#784421" transform="translate(-188.23 -327.31)"/><path d="M354.39 490.56c6.53 2.23 16.23 2 21.22.01 5.12-2.05-2.05 15.86-4.25 17.67-2.01 1.66-11.42 1.45-13.43 0-2.17-1.56-9.64-19.76-3.54-17.68z" style="stroke-linejoin:round;fill-rule:evenodd;stroke:#000;stroke-width:4;fill:#fff" transform="translate(-188.23 -327.31)"/></svg>